<?xml version="1.0" encoding="UTF-8" standalone="no"?>
<!-- Created with Inkscape (http://www.inkscape.org/) -->

<svg
   xmlns:dc="http://purl.org/dc/elements/1.1/"
   xmlns:cc="http://creativecommons.org/ns#"
   xmlns:rdf="http://www.w3.org/1999/02/22-rdf-syntax-ns#"
   xmlns:svg="http://www.w3.org/2000/svg"
   xmlns="http://www.w3.org/2000/svg"
   xmlns:sodipodi="http://sodipodi.sourceforge.net/DTD/sodipodi-0.dtd"
   xmlns:inkscape="http://www.inkscape.org/namespaces/inkscape"
   width="792pt"
   height="612pt"
   id="svg2"
   version="1.1"
   inkscape:version="0.48.0 r9654"
   sodipodi:docname="vmhilevel.svg">
  <sodipodi:namedview
     inkscape:document-units="in"
     pagecolor="#ffffff"
     bordercolor="#666666"
     borderopacity="1.0"
     inkscape:pageopacity="0.0"
     inkscape:pageshadow="2"
     inkscape:zoom="1.5567975"
     inkscape:cx="630.12702"
     inkscape:cy="537.14753"
     inkscape:current-layer="layer1"
     id="namedview6"
     showgrid="false"
     inkscape:window-width="1340"
     inkscape:window-height="1033"
     inkscape:window-x="61"
     inkscape:window-y="17"
     inkscape:window-maximized="0"
     showguides="true"
     inkscape:guide-bbox="true">
    <inkscape:grid
       id="grid3786"
       type="xygrid" />
  </sodipodi:namedview>
  <defs
     id="defs4">
    <marker
       inkscape:stockid="Arrow1Lend"
       orient="auto"
       refY="0.0"
       refX="0.0"
       id="Arrow1Lend"
       style="overflow:visible;">
      <path
         id="path3905"
         d="M 0.0,0.0 L 5.0,-5.0 L -12.5,0.0 L 5.0,5.0 L 0.0,0.0 z "
         style="fill-rule:evenodd;stroke:#000000;stroke-width:1.0pt;marker-start:none;"
         transform="scale(0.8) rotate(180) translate(12.5,0)" />
    </marker>
    <filter
       inkscape:collect="always"
       id="filter4359">
      <feGaussianBlur
         inkscape:collect="always"
         stdDeviation="0.5"
         id="feGaussianBlur4361" />
    </filter>
    <marker
       inkscape:stockid="Arrow1LendN"
       orient="auto"
       refY="0.0"
       refX="0.0"
       id="Arrow1LendN"
       style="overflow:visible;">
      <path
         id="path4606"
         d="M 0.0,0.0 L 5.0,-5.0 L -12.5,0.0 L 5.0,5.0 L 0.0,0.0 z "
         style="marker-start:none;stroke:#008000;stroke-width:1.0pt;fill:#008000;fill-rule:evenodd"
         transform="scale(0.8) rotate(180) translate(12.5,0)" />
    </marker>
    <marker
       inkscape:stockid="Arrow1Lend2"
       orient="auto"
       refY="0.0"
       refX="0.0"
       id="Arrow1Lend2"
       style="overflow:visible;">
      <path
         id="path3089"
         d="M 0.0,0.0 L 5.0,-5.0 L -12.5,0.0 L 5.0,5.0 L 0.0,0.0 z "
         style="marker-start:none;stroke:#008000;stroke-width:1.0pt;fill:#008000;fill-rule:evenodd"
         transform="scale(0.8) rotate(180) translate(12.5,0)" />
    </marker>
    <marker
       inkscape:stockid="Arrow1LendH"
       orient="auto"
       refY="0.0"
       refX="0.0"
       id="Arrow1LendH"
       style="overflow:visible;">
      <path
         id="path4248"
         d="M 0.0,0.0 L 5.0,-5.0 L -12.5,0.0 L 5.0,5.0 L 0.0,0.0 z "
         style="marker-start:none;stroke:#ff0000;stroke-width:1.0pt;fill:#ff0000;fill-rule:evenodd"
         transform="scale(0.8) rotate(180) translate(12.5,0)" />
    </marker>
    <filter
       id="filter4420"
       inkscape:collect="always">
      <feGaussianBlur
         id="feGaussianBlur4422"
         stdDeviation="0.605"
         inkscape:collect="always" />
    </filter>
    <filter
       id="filter4429"
       inkscape:collect="always">
      <feGaussianBlur
         id="feGaussianBlur4431"
         stdDeviation="0.275"
         inkscape:collect="always" />
    </filter>
    <filter
       id="filter4463"
       inkscape:collect="always">
      <feGaussianBlur
         id="feGaussianBlur4465"
         stdDeviation="0.65"
         inkscape:collect="always" />
    </filter>
    <marker
       inkscape:stockid="Arrow1Lend23"
       orient="auto"
       refY="0.0"
       refX="0.0"
       id="Arrow1Lend23"
       style="overflow:visible;">
      <path
         id="path4501"
         d="M 0.0,0.0 L 5.0,-5.0 L -12.5,0.0 L 5.0,5.0 L 0.0,0.0 z "
         style="fill-rule:evenodd;marker-start:none;stroke:#333333;stroke-width:1.0pt;fill:#333333"
         transform="scale(0.8) rotate(180) translate(12.5,0)" />
    </marker>
    <marker
       inkscape:stockid="Arrow1LendNl"
       orient="auto"
       refY="0.0"
       refX="0.0"
       id="Arrow1LendNl"
       style="overflow:visible;">
      <path
         id="path4722"
         d="M 0.0,0.0 L 5.0,-5.0 L -12.5,0.0 L 5.0,5.0 L 0.0,0.0 z "
         style="fill-rule:evenodd;marker-start:none;stroke:#333333;stroke-width:1.0pt;fill:#333333"
         transform="scale(0.8) rotate(180) translate(12.5,0)" />
    </marker>
    <marker
       inkscape:stockid="Arrow1LendHC"
       orient="auto"
       refY="0.0"
       refX="0.0"
       id="Arrow1LendHC"
       style="overflow:visible;">
      <path
         id="path4945"
         d="M 0.0,0.0 L 5.0,-5.0 L -12.5,0.0 L 5.0,5.0 L 0.0,0.0 z "
         style="fill-rule:evenodd;marker-start:none;stroke:#800000;stroke-width:1.0pt;fill:#800000"
         transform="scale(0.8) rotate(180) translate(12.5,0)" />
    </marker>
  </defs>
  <metadata
     id="metadata8">
    <rdf:RDF>
      <cc:Work
         rdf:about="">
        <dc:format>image/svg+xml</dc:format>
        <dc:type
           rdf:resource="http://purl.org/dc/dcmitype/StillImage" />
        <dc:title />
      </cc:Work>
    </rdf:RDF>
  </metadata>
  <g
     id="layer1"
     inkscape:groupmode="layer"
     inkscape:label="Layer 1">
    <path
       inkscape:connector-curvature="0"
       id="path4909"
       d="M 441.00388,275.00775 440.774,326.23375 192,327"
       style="fill:none;stroke:#800000;stroke-width:2;stroke-linecap:butt;stroke-linejoin:miter;stroke-miterlimit:4;stroke-opacity:1;stroke-dasharray:none;marker-end:url(#Arrow1LendHC)"
       sodipodi:nodetypes="ccc" />
    <path
       inkscape:connector-curvature="0"
       id="path4686"
       d="M 510.2604,225.96149 691.49862,227"
       style="fill:none;stroke:#333333;stroke-width:2;stroke-linecap:butt;stroke-linejoin:miter;stroke-miterlimit:4;stroke-opacity:1;stroke-dasharray:none;marker-end:url(#Arrow1LendNl)"
       sodipodi:nodetypes="cc" />
    <rect
       style="fill:#333333;fill-opacity:1;stroke:none;filter:url(#filter4463)"
       id="rect4461"
       width="100"
       height="160"
       x="702"
       y="187" />
    <rect
       y="247"
       x="562"
       height="40"
       width="70"
       id="rect4427"
       style="fill:#333333;fill-opacity:1;stroke:none;filter:url(#filter4429)" />
    <path
       inkscape:connector-curvature="0"
       id="rect4415"
       d="m 102,175 0,100 0,62 80,0 0,-62 0,-100 -80,0 z"
       style="fill:#333333;stroke:none;filter:url(#filter4420)" />
    <rect
       y="185"
       x="700"
       height="160"
       width="100"
       id="rect4722"
       style="fill:#a7ffa7;fill-opacity:1;stroke:#008000;stroke-width:2;stroke-miterlimit:4;stroke-dasharray:none" />
    <rect
       ry="0"
       y="173"
       x="100"
       height="100"
       width="80"
       id="rect3788"
       style="fill:#ff6600;stroke:#000000" />
    <rect
       y="273"
       x="100"
       height="62"
       width="80"
       id="rect3790"
       style="fill:#ff2a2a;stroke:#000000;stroke-width:1" />
    <text
       sodipodi:linespacing="125%"
       id="text3792"
       y="233"
       x="116.86683"
       style="font-size:22px;font-style:normal;font-variant:normal;font-weight:500;font-stretch:normal;line-height:125%;letter-spacing:0px;word-spacing:0px;fill:#000000;fill-opacity:1;stroke:none;font-family:Computer Modern;-inkscape-font-specification:Computer Modern Medium"
       xml:space="preserve"><tspan
         y="233"
         x="116.86683"
         id="tspan3794"
         sodipodi:role="line">load</tspan></text>
    <flowRoot
       xml:space="preserve"
       id="flowRoot3844"
       style="font-size:40px;font-style:normal;font-variant:normal;font-weight:500;font-stretch:normal;line-height:125%;letter-spacing:0px;word-spacing:0px;fill:#000000;fill-opacity:1;stroke:none;font-family:Computer Modern;-inkscape-font-specification:Computer Modern Medium"
       transform="translate(0,108)"><flowRegion
         id="flowRegion3846"><rect
           id="rect3848"
           width="23.778864"
           height="53.672291"
           x="292.14032"
           y="246.62079" /></flowRegion><flowPara
         id="flowPara3850" /></flowRoot>    <g
       transform="matrix(0.54133717,0,0,0.54133717,-30.050698,91.366765)"
       id="g3852">
      <g
         style="font-style:normal;font-variant:normal;font-weight:normal;font-stretch:normal;letter-spacing:normal;word-spacing:normal;text-anchor:start;fill:none;stroke:#000000;stroke-width:1.84727752;stroke-linecap:butt;stroke-linejoin:miter;stroke-miterlimit:10.43299961;stroke-opacity:1;stroke-dasharray:none;stroke-dashoffset:0"
         id="g3854"
         transform="matrix(1.0928571,0,0,-1.0928571,-191.25,742.5)"
         xml:space="preserve"
         stroke-miterlimit="10.433"
         font-style="normal"
         font-variant="normal"
         font-weight="normal"
         font-stretch="normal"
         font-size-adjust="none"
         letter-spacing="normal"
         word-spacing="normal"><path
           style="fill:#000000;stroke-width:0"
           inkscape:connector-curvature="0"
           d="m 465.08,423.48 0,0.13 -0.01,0.14 -0.02,0.13 -0.02,0.13 -0.03,0.12 -0.04,0.13 -0.04,0.12 -0.05,0.12 -0.05,0.12 -0.06,0.11 -0.06,0.11 -0.07,0.11 -0.07,0.1 -0.08,0.1 -0.09,0.1 -0.08,0.09 -0.1,0.09 -0.09,0.08 -0.1,0.08 -0.1,0.07 -0.11,0.07 -0.11,0.07 -0.12,0.06 -0.11,0.05 -0.12,0.05 -0.13,0.04 -0.12,0.04 -0.13,0.03 -0.13,0.02 -0.13,0.02 -0.13,0.01 -0.14,0 c -1.44,0 -2.64,-1.2 -2.64,-2.64 0,-1.44 1.2,-2.64 2.64,-2.64 1.45,0 2.64,1.2 2.64,2.64 z"
           id="path3856" /><path
           style="fill:#000000;stroke-width:0"
           inkscape:connector-curvature="0"
           d="m 465.08,403.56 0,0.14 -0.01,0.13 -0.02,0.13 -0.02,0.13 -0.03,0.13 -0.04,0.12 -0.04,0.12 -0.05,0.12 -0.05,0.12 -0.06,0.11 -0.06,0.11 -0.07,0.11 -0.07,0.1 -0.08,0.1 -0.09,0.1 -0.08,0.09 -0.1,0.09 -0.09,0.08 -0.1,0.08 -0.1,0.08 -0.11,0.07 -0.11,0.06 -0.12,0.06 -0.11,0.05 -0.12,0.05 -0.13,0.04 -0.12,0.04 -0.13,0.03 -0.13,0.02 -0.13,0.02 -0.13,0.01 -0.14,0 c -1.44,0 -2.64,-1.2 -2.64,-2.64 0,-1.44 1.2,-2.64 2.64,-2.64 1.45,0 2.64,1.2 2.64,2.64 z"
           id="path3858" /><path
           style="fill:#000000;stroke-width:0"
           inkscape:connector-curvature="0"
           d="m 465.08,383.64 0,0.13 -0.01,0.14 -0.02,0.13 -0.02,0.13 -0.03,0.12 -0.04,0.13 -0.04,0.12 -0.05,0.12 -0.05,0.12 -0.06,0.11 -0.06,0.11 -0.07,0.11 -0.07,0.1 -0.08,0.1 -0.09,0.1 -0.08,0.09 -0.1,0.09 -0.09,0.08 -0.1,0.08 -0.1,0.07 -0.11,0.07 -0.11,0.07 -0.12,0.06 -0.11,0.05 -0.12,0.05 -0.13,0.04 -0.12,0.04 -0.13,0.03 -0.13,0.02 -0.13,0.02 -0.13,0.01 -0.14,0 c -1.44,0 -2.64,-1.2 -2.64,-2.64 0,-1.44 1.2,-2.64 2.64,-2.64 1.45,0 2.64,1.2 2.64,2.64 z"
           id="path3860" /></g>    </g>
    <g
       id="g3862"
       transform="matrix(0.54133717,0,0,0.54133717,-30.589058,31.272108)">
      <g
         word-spacing="normal"
         letter-spacing="normal"
         font-size-adjust="none"
         font-stretch="normal"
         font-weight="normal"
         font-variant="normal"
         font-style="normal"
         stroke-miterlimit="10.433"
         xml:space="preserve"
         transform="matrix(1.0928571,0,0,-1.0928571,-191.25,742.5)"
         id="g3864"
         style="font-style:normal;font-variant:normal;font-weight:normal;font-stretch:normal;letter-spacing:normal;word-spacing:normal;text-anchor:start;fill:none;stroke:#000000;stroke-width:1.84727752;stroke-linecap:butt;stroke-linejoin:miter;stroke-miterlimit:10.43299961;stroke-opacity:1;stroke-dasharray:none;stroke-dashoffset:0"><path
           id="path3866"
           d="m 465.08,423.48 0,0.13 -0.01,0.14 -0.02,0.13 -0.02,0.13 -0.03,0.12 -0.04,0.13 -0.04,0.12 -0.05,0.12 -0.05,0.12 -0.06,0.11 -0.06,0.11 -0.07,0.11 -0.07,0.1 -0.08,0.1 -0.09,0.1 -0.08,0.09 -0.1,0.09 -0.09,0.08 -0.1,0.08 -0.1,0.07 -0.11,0.07 -0.11,0.07 -0.12,0.06 -0.11,0.05 -0.12,0.05 -0.13,0.04 -0.12,0.04 -0.13,0.03 -0.13,0.02 -0.13,0.02 -0.13,0.01 -0.14,0 c -1.44,0 -2.64,-1.2 -2.64,-2.64 0,-1.44 1.2,-2.64 2.64,-2.64 1.45,0 2.64,1.2 2.64,2.64 z"
           inkscape:connector-curvature="0"
           style="fill:#000000;stroke-width:0" /><path
           id="path3868"
           d="m 465.08,403.56 0,0.14 -0.01,0.13 -0.02,0.13 -0.02,0.13 -0.03,0.13 -0.04,0.12 -0.04,0.12 -0.05,0.12 -0.05,0.12 -0.06,0.11 -0.06,0.11 -0.07,0.11 -0.07,0.1 -0.08,0.1 -0.09,0.1 -0.08,0.09 -0.1,0.09 -0.09,0.08 -0.1,0.08 -0.1,0.08 -0.11,0.07 -0.11,0.06 -0.12,0.06 -0.11,0.05 -0.12,0.05 -0.13,0.04 -0.12,0.04 -0.13,0.03 -0.13,0.02 -0.13,0.02 -0.13,0.01 -0.14,0 c -1.44,0 -2.64,-1.2 -2.64,-2.64 0,-1.44 1.2,-2.64 2.64,-2.64 1.45,0 2.64,1.2 2.64,2.64 z"
           inkscape:connector-curvature="0"
           style="fill:#000000;stroke-width:0" /><path
           id="path3870"
           d="m 465.08,383.64 0,0.13 -0.01,0.14 -0.02,0.13 -0.02,0.13 -0.03,0.12 -0.04,0.13 -0.04,0.12 -0.05,0.12 -0.05,0.12 -0.06,0.11 -0.06,0.11 -0.07,0.11 -0.07,0.1 -0.08,0.1 -0.09,0.1 -0.08,0.09 -0.1,0.09 -0.09,0.08 -0.1,0.08 -0.1,0.07 -0.11,0.07 -0.11,0.07 -0.12,0.06 -0.11,0.05 -0.12,0.05 -0.13,0.04 -0.12,0.04 -0.13,0.03 -0.13,0.02 -0.13,0.02 -0.13,0.01 -0.14,0 c -1.44,0 -2.64,-1.2 -2.64,-2.64 0,-1.44 1.2,-2.64 2.64,-2.64 1.45,0 2.64,1.2 2.64,2.64 z"
           inkscape:connector-curvature="0"
           style="fill:#000000;stroke-width:0" /></g>    </g>
    <text
       xml:space="preserve"
       style="font-size:24px;font-style:normal;font-variant:normal;font-weight:normal;font-stretch:normal;text-align:end;line-height:125%;letter-spacing:0px;word-spacing:0px;text-anchor:end;fill:#d45500;fill-opacity:1;stroke:none;font-family:Nimbus Sans L;-inkscape-font-specification:Nimbus Sans L"
       x="90"
       y="193"
       id="text3872"
       sodipodi:linespacing="125%"><tspan
         sodipodi:role="line"
         id="tspan3874"
         x="90"
         y="193">app.</tspan></text>
    <text
       xml:space="preserve"
       style="font-size:24px;font-style:normal;font-variant:normal;font-weight:normal;font-stretch:normal;text-align:end;line-height:125%;letter-spacing:0px;word-spacing:0px;text-anchor:end;fill:#d40000;fill-opacity:1;stroke:none;font-family:Nimbus Sans L;-inkscape-font-specification:Nimbus Sans L"
       x="90"
       y="293"
       id="text3876"
       sodipodi:linespacing="125%"><tspan
         sodipodi:role="line"
         id="tspan3878"
         x="90"
         y="293">kernel</tspan></text>
    <path
       style="fill:none;stroke:#000000;stroke-width:2;stroke-linecap:butt;stroke-linejoin:miter;stroke-miterlimit:4;stroke-opacity:1;stroke-dasharray:none;marker-end:url(#Arrow1Lend)"
       d="m 190,228 180,0"
       id="path3897"
       inkscape:connector-curvature="0"
       sodipodi:nodetypes="cc" />
    <text
       xml:space="preserve"
       style="font-size:24px;font-style:normal;font-variant:normal;font-weight:normal;font-stretch:normal;text-align:center;line-height:125%;letter-spacing:0px;word-spacing:0px;text-anchor:middle;fill:#000000;fill-opacity:1;stroke:none;font-family:Nimbus Sans L;-inkscape-font-specification:Nimbus Sans L"
       x="280.32193"
       y="195"
       id="text4343"
       sodipodi:linespacing="125%"><tspan
         sodipodi:role="line"
         id="tspan4345"
         x="280.32193"
         y="195">virtual address</tspan></text>
    <text
       xml:space="preserve"
       style="font-size:24px;font-style:normal;font-variant:normal;font-weight:500;font-stretch:normal;text-align:center;line-height:125%;letter-spacing:0px;word-spacing:0px;text-anchor:middle;fill:#000000;fill-opacity:1;stroke:none;font-family:Computer Modern;-inkscape-font-specification:Computer Modern Medium"
       x="279.91205"
       y="223"
       id="text4347"
       sodipodi:linespacing="125%"><tspan
         sodipodi:role="line"
         id="tspan4349"
         x="279.91205"
         y="223">0x30408</tspan></text>
    <rect
       y="195"
       x="381.97186"
       height="80"
       width="120"
       id="rect4357"
       style="fill:#333333;fill-opacity:1;stroke:none;stroke-width:1;stroke-miterlimit:4;stroke-dasharray:none;filter:url(#filter4359)" />
    <rect
       style="fill:#c5c5ff;fill-opacity:1;stroke:#000000;stroke-width:1;stroke-miterlimit:4;stroke-dasharray:none"
       id="rect4351"
       width="120"
       height="80"
       x="379.97186"
       y="193" />
    <text
       xml:space="preserve"
       style="font-size:24px;font-style:normal;font-variant:normal;font-weight:normal;font-stretch:normal;text-align:center;line-height:125%;letter-spacing:0px;word-spacing:0px;text-anchor:middle;fill:#000000;fill-opacity:1;stroke:none;font-family:Nimbus Sans L;-inkscape-font-specification:Nimbus Sans L"
       x="440"
       y="241.064"
       id="text4353"
       sodipodi:linespacing="125%"><tspan
         sodipodi:role="line"
         id="tspan4355"
         x="440"
         y="241.064">MMU</tspan></text>
    <path
       inkscape:transform-center-x="14.644628"
       sodipodi:type="arc"
       style="fill:#ffffff;fill-opacity:1;stroke:#000000;stroke-width:0.47170091;stroke-miterlimit:4;stroke-dasharray:none"
       id="path4369"
       sodipodi:cx="355"
       sodipodi:cy="-25"
       sodipodi:rx="15"
       sodipodi:ry="10"
       d="m 370,-25 a 15,10 0 1 1 -30,0 15,10 0 1 1 30,0 z"
       transform="matrix(4.7602033,0,0,3.776601,-1143.4184,218.48627)" />
    <flowRoot
       inkscape:transform-center-y="3.15654"
       inkscape:transform-center-x="13.981703"
       transform="translate(-1.605007,151.4613)"
       xml:space="preserve"
       id="flowRoot4379"
       style="font-size:24px;font-style:normal;font-variant:normal;font-weight:normal;font-stretch:normal;text-align:center;line-height:125%;letter-spacing:0px;word-spacing:0px;text-anchor:middle;fill:#000000;fill-opacity:1;stroke:none;font-family:Nimbus Sans L;-inkscape-font-specification:Nimbus Sans L"><flowRegion
         id="flowRegion4381"><rect
           id="rect4383"
           width="118.3382"
           height="59.169098"
           x="491.39212"
           y="-53.986881"
           style="font-style:normal;font-variant:normal;font-weight:normal;font-stretch:normal;font-family:Nimbus Sans L;-inkscape-font-specification:Nimbus Sans L" /></flowRegion><flowPara
         id="flowPara4385">Is address</flowPara><flowPara
         id="flowPara4387">legal?</flowPara></flowRoot>    <path
       sodipodi:type="arc"
       style="fill:#ffffff;fill-opacity:1;stroke:#000000;stroke-width:3.2863338;stroke-miterlimit:4;stroke-dasharray:none"
       id="path4391"
       sodipodi:cx="355"
       sodipodi:cy="-25"
       sodipodi:rx="15"
       sodipodi:ry="10"
       d="m 370,-25 a 15,10 0 1 1 -30,0 15,10 0 1 1 30,0 z"
       transform="matrix(0.66666707,0,0,0.55555584,254.21147,180.95028)" />
    <path
       transform="matrix(0.40051465,0,0,0.27634019,330.43008,187.87316)"
       d="m 370,-25 a 15,10 0 1 1 -30,0 15,10 0 1 1 30,0 z"
       sodipodi:ry="10"
       sodipodi:rx="15"
       sodipodi:cy="-25"
       sodipodi:cx="355"
       id="path4393"
       style="fill:#ffffff;fill-opacity:1;stroke:#000000;stroke-width:6.01172113;stroke-miterlimit:4;stroke-dasharray:none"
       sodipodi:type="arc" />
    <path
       sodipodi:nodetypes="cc"
       style="fill:none;stroke:#008000;stroke-width:2;stroke-linecap:butt;stroke-linejoin:miter;stroke-miterlimit:4;stroke-opacity:1;stroke-dasharray:none;marker-end:url(#Arrow1LendN)"
       d="m 509.49862,225 180,0"
       id="path4403"
       inkscape:connector-curvature="0" />
    <text
       sodipodi:linespacing="125%"
       id="text4718"
       y="195"
       x="599.63702"
       style="font-size:24px;font-style:normal;font-variant:normal;font-weight:normal;font-stretch:normal;text-align:center;line-height:125%;letter-spacing:0px;word-spacing:0px;text-anchor:middle;fill:#008000;fill-opacity:1;stroke:none;font-family:Nimbus Sans L;-inkscape-font-specification:Nimbus Sans L"
       xml:space="preserve"><tspan
         y="195"
         x="599.63702"
         id="tspan4720"
         sodipodi:role="line">Yes, phys. addr</tspan></text>
    <text
       sodipodi:linespacing="125%"
       id="text3046"
       y="220.93294"
       x="599.41071"
       style="font-size:24px;font-style:normal;font-variant:normal;font-weight:500;font-stretch:normal;text-align:center;line-height:125%;letter-spacing:0px;word-spacing:0px;text-anchor:middle;fill:#008000;fill-opacity:1;stroke:none;font-family:Computer Modern;-inkscape-font-specification:Computer Modern Medium"
       xml:space="preserve"><tspan
         y="220.93294"
         x="599.41071"
         id="tspan3048"
         sodipodi:role="line">0x92408</tspan></text>
    <flowRoot
       style="fill:black;stroke:none;stroke-opacity:1;stroke-width:1px;stroke-linejoin:miter;stroke-linecap:butt;fill-opacity:1;font-family:URW Palladio L;font-style:normal;font-weight:normal;font-size:20;line-height:125%;letter-spacing:0px;word-spacing:0px;-inkscape-font-specification:Sans;font-stretch:normal;font-variant:normal;text-anchor:start;text-align:start"
       id="flowRoot3099"
       xml:space="preserve"><flowRegion
         id="flowRegion3101"><rect
           y="263.40637"
           x="699.08521"
           height="48.935963"
           width="72.53009"
           id="rect3103" /></flowRegion><flowPara
         id="flowPara3105" /></flowRoot>    <text
       xml:space="preserve"
       style="font-size:24px;font-style:normal;font-variant:normal;font-weight:normal;font-stretch:normal;text-align:center;line-height:125%;letter-spacing:0px;word-spacing:0px;text-anchor:middle;fill:#000000;fill-opacity:1;stroke:none;font-family:Nimbus Sans L;-inkscape-font-specification:Nimbus Sans L"
       x="749.95972"
       y="267.23199"
       id="text3113"
       sodipodi:linespacing="125%"><tspan
         sodipodi:role="line"
         id="tspan3115"
         x="749.95972"
         y="267.23199">memory</tspan></text>
    <rect
       style="fill:#a7ffa7;fill-opacity:1;stroke:#008000;stroke-width:2;stroke-miterlimit:4;stroke-dasharray:none"
       id="rect3918"
       width="70"
       height="40"
       x="560"
       y="245" />
    <text
       sodipodi:linespacing="125%"
       id="text3920"
       y="273.56799"
       x="594.92798"
       style="font-size:24px;font-style:normal;font-variant:normal;font-weight:normal;font-stretch:normal;text-align:center;line-height:125%;letter-spacing:0px;word-spacing:0px;text-anchor:middle;fill:#000000;fill-opacity:1;stroke:none;font-family:Nimbus Sans L;-inkscape-font-specification:Nimbus Sans L"
       xml:space="preserve"><tspan
         id="tspan3924"
         y="273.56799"
         x="594.92798"
         sodipodi:role="line">data</tspan></text>
    <path
       sodipodi:nodetypes="ccc"
       style="fill:none;stroke:#ff0000;stroke-width:2;stroke-linecap:butt;stroke-linejoin:miter;stroke-miterlimit:4;stroke-opacity:1;stroke-dasharray:none;marker-end:url(#Arrow1LendH)"
       d="m 440,275 0,50 -250,0"
       id="path3248"
       inkscape:connector-curvature="0" />
    <text
       sodipodi:linespacing="125%"
       id="text4407"
       y="315"
       x="450"
       style="font-size:24px;font-style:normal;font-variant:normal;font-weight:normal;font-stretch:normal;text-align:start;line-height:125%;letter-spacing:0px;word-spacing:0px;text-anchor:start;fill:#ff0000;fill-opacity:1;stroke:none;font-family:Nimbus Sans L;-inkscape-font-specification:Nimbus Sans L"
       xml:space="preserve"><tspan
         y="315"
         x="450"
         id="tspan4409"
         sodipodi:role="line">No</tspan></text>
    <text
       sodipodi:linespacing="125%"
       id="text4411"
       y="315"
       x="320"
       style="font-size:24px;font-style:normal;font-variant:normal;font-weight:normal;font-stretch:normal;text-align:center;line-height:125%;letter-spacing:0px;word-spacing:0px;text-anchor:middle;fill:#ff0000;fill-opacity:1;stroke:none;font-family:Nimbus Sans L;-inkscape-font-specification:Nimbus Sans L"
       xml:space="preserve"><tspan
         y="315"
         x="320"
         id="tspan4413"
         sodipodi:role="line">To fault handler</tspan></text>
    <flowRoot
       style="fill:black;stroke:none;stroke-opacity:1;stroke-width:1px;stroke-linejoin:miter;stroke-linecap:butt;fill-opacity:1;font-family:URW Palladio L;font-style:normal;font-weight:normal;font-size:24px;line-height:125%;letter-spacing:0px;word-spacing:0px;-inkscape-font-specification:Sans;font-stretch:normal;font-variant:normal;text-anchor:middle;text-align:center"
       id="flowRoot4443"
       xml:space="preserve"><flowRegion
         id="flowRegion4445"><rect
           y="37.077568"
           x="468.38705"
           height="95.250351"
           width="189.62685"
           id="rect4447" /></flowRegion><flowPara
         id="flowPara4449" /></flowRoot>    <path
       sodipodi:nodetypes="csc"
       style="fill:none;stroke:#333333;stroke-width:1.98000002;stroke-linecap:butt;stroke-linejoin:miter;stroke-miterlimit:4;stroke-opacity:1;stroke-dasharray:none;marker-end:url(#Arrow1Lend23)"
       d="m 691,286 -324,0 c -65.29535,0 -175,-49 -175,-49"
       id="path4467"
       inkscape:connector-curvature="0" />
    <path
       inkscape:connector-curvature="0"
       id="path3937"
       d="m 690,285 -325.04574,0 C 299.65891,285 190,235 190,235"
       style="fill:none;stroke:#008000;stroke-width:1.98000002;stroke-linecap:butt;stroke-linejoin:miter;stroke-miterlimit:4;stroke-opacity:1;stroke-dasharray:none;marker-end:url(#Arrow1Lend2)"
       sodipodi:nodetypes="csc" />
  </g>
</svg>
