<?xml version="1.0" encoding="utf-8"?>
<!-- Generator: Adobe Illustrator 15.0.2, SVG Export Plug-In . SVG Version: 6.00 Build 0)  -->
<!DOCTYPE svg PUBLIC "-//W3C//DTD SVG 1.1//EN" "http://www.w3.org/Graphics/SVG/1.1/DTD/svg11.dtd" [
	<!ENTITY ns_extend "http://ns.adobe.com/Extensibility/1.0/">
	<!ENTITY ns_ai "http://ns.adobe.com/AdobeIllustrator/10.0/">
	<!ENTITY ns_graphs "http://ns.adobe.com/Graphs/1.0/">
	<!ENTITY ns_vars "http://ns.adobe.com/Variables/1.0/">
	<!ENTITY ns_imrep "http://ns.adobe.com/ImageReplacement/1.0/">
	<!ENTITY ns_sfw "http://ns.adobe.com/SaveForWeb/1.0/">
	<!ENTITY ns_custom "http://ns.adobe.com/GenericCustomNamespace/1.0/">
	<!ENTITY ns_adobe_xpath "http://ns.adobe.com/XPath/1.0/">
]>
<svg version="1.1" id="Layer_1" xmlns:x="&ns_extend;" xmlns:i="&ns_ai;" xmlns:graph="&ns_graphs;"
	 xmlns="http://www.w3.org/2000/svg" xmlns:xlink="http://www.w3.org/1999/xlink" x="0px" y="0px" width="360px" height="124.313px"
	 viewBox="0 0 360 124.313" enable-background="new 0 0 360 124.313" xml:space="preserve">
<metadata>
	<sfw  xmlns="&ns_sfw;">
		<slices></slices>
		<sliceSourceBounds  y="457.188" x="-208.5" width="360" height="124.313" bottomLeftOrigin="true"></sliceSourceBounds>
	</sfw>
</metadata>
<g>
	<g id="_x23_ffffffff">
		<path fill="#FFFFFF" d="M0,0h360v124.313H0V0 M115.551,2.638c-1.789,0.141-3.541,0.481-5.271,0.939
			c-2.261,0.259-4.401,1.094-6.393,2.168c-1.693,0.945-3.62,1.454-5.167,2.661c-0.692,0.56-1.471,0.987-2.247,1.415
			c-1.37,0.756-2.039,2.264-3.257,3.195c-0.948,0.689-1.397,1.803-2.062,2.731c-1.468,2.101-2.59,4.418-3.608,6.764
			c-0.649,2.343-1.625,4.618-1.859,7.062c-0.369,2.438-0.65,4.902-0.5,7.372c1.184-0.7,1.282-2.312,2.126-3.338
			c0.489,0.945,0.886,1.935,1.409,2.857c0.101,0.321,0.464,0.352,0.74,0.408c0.965,0.141,1.932,0.253,2.891,0.419
			c-0.765,0.908-1.673,1.679-2.5,2.531c0.206,1.176,0.402,2.351,0.602,3.524c-1.08-0.529-2.137-1.105-3.209-1.651
			c-0.686,0.38-1.384,0.745-2.081,1.105c-0.009,15.173,0,30.35-0.003,45.523c-0.037,1.523,0.61,2.964,0.534,4.488
			c-0.028,3.226,1.24,6.235,2.028,9.313c0.276,1.107,1.021,2.011,1.409,3.076c0.495,1.463,1.448,2.7,2.177,4.048
			c1.848,2.854,4.455,5.091,6.975,7.329c0.877,0.802,2.005,1.229,3.077,1.701c2.211,0.923,4.306,2.169,6.652,2.74
			c1.6,0.272,3.187,0.624,4.798,0.832c1.4,0.18,2.762,0.655,4.185,0.621c1.977-0.072,3.915,0.481,5.895,0.251
			c2.081,0.18,4.131-0.293,6.213-0.253c1.524,0.005,2.976-0.555,4.489-0.667c1.35-0.079,2.624-0.585,3.965-0.729
			c1.28-0.106,2.372-0.866,3.62-1.105c0.886-0.18,1.719-0.548,2.45-1.08c1.24-0.892,2.801-1.234,3.96-2.25
			c1.988-1.839,4.086-3.574,5.774-5.712c1.592-1.767,2.424-4.024,3.507-6.104c0.768-1.403,1.024-3,1.685-4.449
			c0.636-1.42,0.698-3.001,1.071-4.497c0.402-2.976,1.001-5.954,0.892-8.969c-0.119-2.444,0.379-4.866,0.23-7.308
			c0.104-6.848-0.087-13.696,0.017-20.545c0.098-4.686-0.22-9.374-0.012-14.06c0.104-2.098-0.357-4.303,0.29-6.328
			c-0.396,0.38-0.804,0.751-1.207,1.122c0.175,1.187,0.391,2.368,0.588,3.552c-1.075-0.523-2.126-1.085-3.181-1.645
			c-1.043,0.545-2.081,1.105-3.133,1.631c0.124-1.162,0.332-2.312,0.551-3.457c-0.83-0.883-1.727-1.696-2.565-2.568
			c1.189-0.2,2.388-0.352,3.578-0.56c0.579-0.967,0.815-2.275,1.67-2.995c0.523,0.984,0.976,2.005,1.485,2.998
			c0.604,0.102,1.209,0.197,1.819,0.287c-0.228-1.46-0.158-2.942-0.292-4.41c-0.402-3.417-0.914-6.854-2.132-10.091
			c-0.762-2-1.581-4.024-2.905-5.726c-0.546-0.689-0.903-1.508-1.493-2.163c-0.962-1.094-2.042-2.087-2.911-3.265
			c-0.512-0.695-1.063-1.406-1.868-1.78c-1.383-0.661-2.466-1.814-3.89-2.402c-2.818-1.136-5.403-2.939-8.452-3.431
			c-1.8-0.248-3.521-0.895-5.338-1.041c-1.98-0.149-3.943-0.557-5.935-0.481C122.138,2.32,118.814,2.028,115.551,2.638 M1.541,4.649
			c2.394,10.913,4.768,21.833,7.155,32.749c1.035-0.144,2.095-0.197,3.105-0.49c0.61-1.004,1.066-2.095,1.578-3.15
			c0.616,1.038,1.088,2.152,1.654,3.218c1.176,0.16,2.354,0.323,3.521,0.534c-0.821,0.835-1.676,1.637-2.52,2.453
			c0.135,1.201,0.388,2.385,0.548,3.583c-1.052-0.543-2.098-1.094-3.145-1.646c-1.077,0.54-2.143,1.105-3.209,1.663
			c0.2-1.193,0.417-2.382,0.599-3.578c-0.689-0.627-1.355-1.274-2.002-1.943c5.892,26.966,11.717,53.949,17.62,80.91
			c0.298,0.905,1.356,1.246,2.228,1.198c9.383,0.005,18.765-0.003,28.147,0.002c1.62,0.043,3.249,0.073,4.863-0.104
			c0.068-2.31,0.83-4.506,1.252-6.756c5.161-23.405,10.431-46.785,15.553-70.2c-0.59-0.298-1.175-0.599-1.763-0.897
			c-1.063,0.546-2.126,1.094-3.187,1.651c0.2-1.189,0.416-2.376,0.585-3.572c-0.85-0.818-1.752-1.589-2.483-2.52
			c1.125-0.191,2.278-0.236,3.389-0.518c0.728-0.964,1.116-2.163,1.699-3.226c0.512,1.08,1.063,2.14,1.583,3.217
			c0.473,0.09,0.945,0.177,1.415,0.27c2.472-10.94,4.908-21.89,7.313-32.847C76.514,4.703,65.993,4.677,55.471,4.677
			c-0.126,1.246-0.168,2.503-0.41,3.735c-3.623,20.942-7.22,41.89-10.879,62.822c-1.041-5.191-1.741-10.451-2.787-15.64
			c-0.138,0.29-0.396,0.579-0.256,0.928c0.135,1.015,0.357,2.017,0.478,3.038c-1.052-0.535-2.093-1.091-3.139-1.634
			c-1.078,0.54-2.141,1.1-3.209,1.657c0.206-1.19,0.422-2.379,0.594-3.575c-0.855-0.81-1.73-1.601-2.495-2.498
			c1.164-0.188,2.337-0.335,3.499-0.532c0.523-1.066,1.066-2.121,1.558-3.201c0.61,1.043,1.103,2.149,1.643,3.229
			c0.315,0.031,0.627,0.064,0.942,0.101c-2.47-14.377-4.961-28.747-7.464-43.118c-0.262-1.797-0.565-3.623-1.333-5.288
			C21.988,4.638,11.762,4.733,1.541,4.649 M163.198,4.801c0.002,8.944,0.002,17.888,0,26.832c6.896,0.157,13.798,0.045,20.7,0.079
			c-0.076,24.303-0.018,48.605-0.037,72.908c-0.059,5.161,0.127,10.33-0.104,15.486c10.397,0.098,20.795,0.02,31.19,0.045
			c-0.006-29.479-0.028-58.956-0.003-88.431c7.04,0.037,14.085-0.115,21.122,0.079c0.006-8.958,0.003-17.918-0.028-26.876
			c-21.308-0.028-42.618,0.003-63.925-0.014C169.146,4.703,166.171,4.834,163.198,4.801 M240.75,4.649
			c0.022,10.769-0.045,21.541,0.034,32.307c0.486-1.057,0.976-2.115,1.549-3.13c0.513,1.066,1.027,2.132,1.545,3.198
			c1.192,0.213,2.396,0.374,3.594,0.56c-0.857,0.852-1.755,1.662-2.579,2.545c0.214,1.17,0.414,2.343,0.588,3.518
			c-1.04-0.557-2.098-1.08-3.119-1.667c-0.543,0.259-1.077,0.531-1.611,0.807c0,25.788,0,51.576,0,77.364
			c22.109,0.014,44.218-0.018,66.324,0.002c0.23-3.769-0.073-7.537,0.085-11.306c-0.211-5.218,0.143-10.438-0.116-15.651
			c-11.823,0.003-23.645,0-35.468,0c0.025-6.385-0.063-12.77,0.054-19.153c10.842,0.02,21.687,0.003,32.529,0.009
			c0.087-8.899,0.02-17.801,0.042-26.7c-10.873,0-21.749,0-32.622,0c-0.006-5.214-0.006-10.426,0-15.64
			c10.51-0.034,21.021,0.064,31.53-0.048c0.724-0.208,2.349,0.206,2.102-1.001c-0.015-8.657-0.003-17.317-0.006-25.974
			C283.72,4.669,262.234,4.703,240.75,4.649 M323.401,4.798c-0.104,3.507,0.346,7.034-0.054,10.524
			c0.31,2.005,0.07,4.047,0.146,6.067c0.036,4.759-0.073,9.523,0.045,14.279c1.836,13.593,3.586,27.197,5.38,40.793
			c0.32,2.694,0.976,5.391,0.645,8.117c3.76,0.27,7.54,0.109,11.303,0.042c2.124,0.16,4.256,0.048,6.385,0.106
			c0.805-2.464,0.995-5.063,1.364-7.613c0.908-7.121,1.975-14.218,2.896-21.336c-0.796,0.807-1.62,1.586-2.424,2.382
			c0.199,1.187,0.401,2.371,0.607,3.555c-1.061-0.568-2.132-1.117-3.195-1.676c-1.063,0.563-2.132,1.111-3.192,1.676
			c0.205-1.182,0.405-2.365,0.61-3.547c-0.838-0.849-1.729-1.645-2.531-2.525c1.153-0.191,2.313-0.371,3.479-0.498
			c0.554-1.001,0.987-2.067,1.55-3.065c0.042,0.008,0.132,0.022,0.174,0.028c0.563,0.984,1.007,2.03,1.541,3.032
			c1.147,0.132,2.287,0.32,3.438,0.467c0.872-6.629,1.822-13.252,2.702-19.884c0.184-5.338,0.116-10.685,0.076-16.026
			c0.205-3.377-0.078-6.755,0.054-10.133c-0.138-1.55,0.081-3.105-0.079-4.655c-6.542,0.008-13.086,0-19.628,0.006
			C330.933,4.694,327.164,4.84,323.401,4.798 M324.003,90.132C323.997,100.139,324,110.144,324,120.15c9.962,0,19.924,0,29.886,0
			c-0.025-10.029,0.059-20.062-0.042-30.092C343.896,90.106,333.945,89.969,324.003,90.132z"/>
		<path fill="#FFFFFF" d="M174.806,15.654c0.506-1.083,1.049-2.148,1.566-3.229c0.616,1.038,0.999,2.228,1.688,3.209
			c1.151,0.262,2.337,0.337,3.501,0.548c-0.835,0.875-1.814,1.637-2.55,2.593c0.135,1.162,0.402,2.3,0.573,3.457
			c-1.099-0.478-2.092-1.187-3.217-1.606c-1.091,0.467-2.098,1.111-3.167,1.625c0.186-1.195,0.422-2.382,0.577-3.583
			c-0.852-0.824-1.718-1.634-2.548-2.483C172.417,15.992,173.613,15.834,174.806,15.654z"/>
		<path fill="#FFFFFF" d="M332.17,12.397c0.546,1.074,1.083,2.151,1.598,3.24c1.189,0.205,2.388,0.354,3.583,0.542
			c-0.849,0.864-1.74,1.685-2.579,2.56c0.226,1.165,0.417,2.334,0.605,3.507c-1.089-0.501-2.087-1.195-3.207-1.62
			c-1.094,0.456-2.075,1.139-3.175,1.578c0.172-1.178,0.506-2.34,0.543-3.532c-0.796-0.875-1.696-1.646-2.526-2.486
			c1.193-0.191,2.394-0.346,3.589-0.535C331.127,14.569,331.667,13.492,332.17,12.397z"/>
		<path fill="#FFFFFF" d="M97.793,15.646c0.526-1.046,0.948-2.152,1.625-3.116c0.518,1.043,1.043,2.081,1.547,3.13
			c1.192,0.177,2.385,0.334,3.578,0.52c-0.869,0.81-1.676,1.685-2.576,2.461c0.157,1.209,0.408,2.402,0.585,3.608
			c-1.091-0.512-2.093-1.223-3.229-1.617c-1.074,0.473-2.073,1.094-3.122,1.615c0.163-1.198,0.408-2.385,0.557-3.583
			c-0.858-0.818-1.718-1.634-2.548-2.48C95.403,15.992,96.601,15.837,97.793,15.646z"/>
		<path fill="#FFFFFF" d="M114.859,12.434c0.557,1.066,1.097,2.138,1.621,3.22c1.184,0.186,2.371,0.34,3.555,0.526
			c-0.855,0.861-1.744,1.685-2.593,2.554c0.234,1.167,0.43,2.343,0.625,3.519c-1.071-0.554-2.129-1.133-3.203-1.673
			c-1.049,0.56-2.101,1.117-3.162,1.659c0.177-1.175,0.38-2.346,0.604-3.513c-0.855-0.86-1.729-1.699-2.607-2.537
			c1.195-0.197,2.396-0.343,3.591-0.546C113.811,14.572,114.339,13.506,114.859,12.434z"/>
		<path fill="#FFFFFF" d="M190.068,15.649c0.523-1.052,0.965-2.155,1.638-3.125c0.522,1.038,1.046,2.079,1.541,3.13
			c1.195,0.186,2.394,0.34,3.589,0.532c-0.892,0.827-1.747,1.688-2.616,2.534c0.226,1.172,0.437,2.351,0.619,3.529
			c-1.077-0.557-2.135-1.145-3.229-1.67c-1.035,0.577-2.087,1.119-3.137,1.668c0.184-1.17,0.383-2.337,0.597-3.504
			c-0.824-0.886-1.727-1.693-2.57-2.56C187.687,15.992,188.879,15.837,190.068,15.649z"/>
		<path fill="#FFFFFF" d="M205.546,15.643c0.734-0.928,0.959-2.166,1.71-3.085c0.571,1.004,1.038,2.067,1.569,3.097
			c1.187,0.186,2.377,0.34,3.563,0.535c-0.844,0.827-1.676,1.667-2.557,2.458c0.138,1.201,0.405,2.382,0.534,3.583
			c-1.043-0.503-2.021-1.136-3.091-1.583c-1.142,0.349-2.143,1.114-3.24,1.603c0.197-1.175,0.392-2.351,0.61-3.524
			c-0.854-0.858-1.732-1.688-2.581-2.548C203.22,15.975,204.398,15.891,205.546,15.643z"/>
		<path fill="#FFFFFF" d="M222.621,12.426c0.539,1.068,1.068,2.14,1.592,3.22c1.192,0.2,2.393,0.346,3.588,0.543
			c-0.877,0.838-1.752,1.679-2.606,2.54c0.228,1.164,0.425,2.334,0.604,3.507c-1.055-0.538-2.104-1.083-3.136-1.657
			c-1.095,0.526-2.154,1.117-3.227,1.679c0.191-1.179,0.386-2.354,0.622-3.524c-0.847-0.869-1.738-1.693-2.591-2.554
			c1.185-0.186,2.374-0.343,3.561-0.529C221.541,14.566,222.095,13.503,222.621,12.426z"/>
		<path fill="#FFFFFF" d="M273.152,12.524c0.664,0.976,1.108,2.076,1.626,3.13c1.192,0.177,2.385,0.343,3.577,0.523
			c-0.863,0.849-1.737,1.69-2.581,2.556c0.222,1.17,0.425,2.343,0.607,3.521c-1.077-0.56-2.135-1.153-3.229-1.676
			c-1.037,0.579-2.095,1.119-3.144,1.679c0.177-1.209,0.427-2.408,0.557-3.625c-0.869-0.799-1.696-1.637-2.554-2.444
			c1.195-0.197,2.398-0.352,3.597-0.538C272.104,14.6,272.618,13.556,273.152,12.524z"/>
		<path fill="#FFFFFF" d="M345.595,15.654c0.548-1.049,0.979-2.163,1.665-3.136c0.518,1.046,1.021,2.098,1.541,3.142
			c1.192,0.177,2.385,0.337,3.577,0.523c-0.892,0.833-1.758,1.69-2.612,2.554c0.238,1.165,0.441,2.334,0.613,3.51
			c-1.05-0.543-2.096-1.086-3.122-1.665c-1.103,0.515-2.166,1.111-3.246,1.665c0.191-1.176,0.386-2.352,0.603-3.521
			c-0.839-0.869-1.725-1.69-2.574-2.545C343.221,15.995,344.407,15.837,345.595,15.654z"/>
		<path fill="#FFFFFF" d="M69.629,12.946c0.554,1.066,1.083,2.146,1.615,3.223c1.189,0.174,2.385,0.329,3.569,0.546
			c-0.877,0.844-1.775,1.667-2.607,2.557c0.245,1.15,0.439,2.312,0.61,3.476c-1.055-0.489-2.033-1.128-3.105-1.581
			c-1.153,0.34-2.154,1.114-3.259,1.603c0.202-1.167,0.391-2.337,0.627-3.499c-0.844-0.88-1.735-1.713-2.599-2.574
			c1.175-0.188,2.357-0.352,3.538-0.52C68.577,15.111,69.109,14.032,69.629,12.946z"/>
		<path fill="#FFFFFF" d="M254.104,13.612c0.169-0.186,0.175-0.692,0.518-0.616c0.552,0.965,0.999,1.988,1.488,2.984
			c1.176,0.211,2.362,0.352,3.541,0.549c-0.811,0.877-1.677,1.696-2.534,2.522c0.169,1.136,0.419,2.259,0.593,3.395
			c-1.15-0.25-2.111-1.049-3.184-1.522c-1.055,0.565-2.115,1.123-3.178,1.671c0.191-1.201,0.428-2.394,0.579-3.6
			c-0.869-0.791-1.721-1.603-2.515-2.472c1.146-0.2,2.304-0.295,3.443-0.532C253.412,15.292,253.671,14.392,254.104,13.612z"/>
		<path fill="#FFFFFF" d="M20.503,16.38c0.521-1.077,1.024-2.166,1.623-3.203c0.551,1.063,0.942,2.228,1.662,3.195
			c1.139,0.245,2.306,0.349,3.462,0.503c-0.813,0.886-1.699,1.702-2.563,2.537c0.183,1.189,0.396,2.374,0.588,3.561
			c-1.046-0.501-2.022-1.145-3.102-1.567c-1.176,0.279-2.166,1.091-3.268,1.569c0.149-1.153,0.447-2.289,0.571-3.445
			c-0.7-0.979-1.696-1.701-2.517-2.573C18.129,16.698,19.319,16.549,20.503,16.38z"/>
		<path fill="#FFFFFF" d="M130.674,13.177c0.574,1.066,1.083,2.16,1.659,3.226c1.151,0.141,2.298,0.321,3.445,0.49
			c-0.753,0.903-1.639,1.682-2.475,2.506c0.146,1.192,0.386,2.371,0.557,3.563c-1.043-0.49-2.016-1.134-3.088-1.556
			c-1.178,0.281-2.171,1.088-3.273,1.578c0.205-1.187,0.408-2.374,0.602-3.563c-0.854-0.833-1.754-1.623-2.522-2.537
			c1.176-0.152,2.346-0.334,3.519-0.503C129.605,15.306,130.146,14.243,130.674,13.177z"/>
		<path fill="#FFFFFF" d="M144.501,16.166c0.534-1.071,1.068-2.143,1.614-3.209c0.526,1.072,1.069,2.138,1.595,3.209
			c1.187,0.18,2.379,0.335,3.56,0.54c-0.869,0.853-1.763,1.679-2.596,2.565c0.239,1.156,0.425,2.32,0.613,3.487
			c-1.058-0.5-2.048-1.139-3.125-1.595c-1.145,0.357-2.144,1.114-3.243,1.603c0.135-1.195,0.523-2.379,0.534-3.575
			c-0.779-0.886-1.688-1.645-2.509-2.492C142.127,16.504,143.313,16.346,144.501,16.166z"/>
		<path fill="#FFFFFF" d="M290.48,16.183c0.543-1.077,1.058-2.171,1.648-3.229c0.506,1.08,1.032,2.151,1.575,3.214
			c1.187,0.174,2.376,0.332,3.558,0.54c-0.863,0.855-1.774,1.662-2.588,2.568c0.23,1.153,0.422,2.315,0.603,3.479
			c-1.053-0.498-2.037-1.125-3.1-1.592c-1.162,0.34-2.163,1.117-3.269,1.609c0.158-1.15,0.437-2.281,0.58-3.431
			c-0.664-1.01-1.738-1.688-2.479-2.647C288.16,16.498,289.319,16.338,290.48,16.183z"/>
		<path fill="#FFFFFF" d="M120.496,27.439c1.811-0.431,3.718-0.411,5.507,0.112c1.212,0.492,1.932,1.693,2.582,2.765
			c0.7,1.898,0.928,3.946,1.105,5.951c-0.171,1.417,0.144,2.813,0.211,4.225c-0.006,14.341,0.005,28.684-0.006,43.026
			c-0.177,1.603-0.205,3.214-0.216,4.826c-0.323,2.491-0.492,5.07-1.654,7.352c-0.99,1.477-2.779,2.391-4.556,2.337
			c-1.893,0.178-3.957-0.495-5.06-2.112c-0.903-1.037-1.097-2.436-1.539-3.689c-0.554-2.188-0.875-4.449-0.81-6.711
			c0.011-15.384-0.011-30.771,0.011-46.159c-0.11-2.984,0.245-6.041,1.353-8.828C117.925,29.115,119.064,27.917,120.496,27.439z"/>
		<path fill="#FFFFFF" d="M28.825,36.751c0.518-1.055,1.018-2.115,1.564-3.156c0.596,1.013,1.085,2.082,1.581,3.145
			c1.184,0.214,2.379,0.366,3.566,0.56c-0.821,0.877-1.716,1.679-2.542,2.548c0.213,1.17,0.411,2.34,0.607,3.51
			c-1.08-0.534-2.138-1.114-3.212-1.662c-1.043,0.571-2.093,1.133-3.17,1.643c0.169-1.15,0.439-2.287,0.557-3.445
			c-0.714-0.97-1.719-1.688-2.515-2.587C26.449,37.108,27.641,36.956,28.825,36.751z"/>
		<path fill="#FFFFFF" d="M60.106,36.976c0.554-1.069,1.035-2.174,1.628-3.223c0.56,1.055,0.979,2.191,1.634,3.195
			c1.127,0.25,2.286,0.324,3.42,0.537c-0.723,0.917-1.671,1.617-2.411,2.517c0.011,1.195,0.394,2.363,0.523,3.552
			c-1.058-0.5-2.05-1.136-3.125-1.595c-1.156,0.36-2.154,1.105-3.254,1.604c0.155-1.193,0.484-2.366,0.543-3.569
			c-0.782-0.897-1.716-1.651-2.506-2.542C57.744,37.313,58.925,37.142,60.106,36.976z"/>
		<path fill="#FFFFFF" d="M105.916,33.806c0.062,0,0.186,0,0.245,0c0.545,0.951,0.967,1.963,1.459,2.939
			c1.179,0.208,2.368,0.36,3.55,0.557c-0.813,0.866-1.679,1.682-2.534,2.503c0.174,1.181,0.394,2.354,0.596,3.53
			c-1.088-0.506-2.138-1.088-3.207-1.64c-1.038,0.565-2.086,1.119-3.147,1.643c0.141-1.145,0.414-2.272,0.534-3.423
			c-0.68-0.987-1.732-1.693-2.511-2.616c1.184-0.191,2.374-0.346,3.558-0.551C104.959,35.775,105.381,34.763,105.916,33.806z"/>
		<path fill="#FFFFFF" d="M139.691,33.843c0.062-0.014,0.186-0.042,0.247-0.056c0.521,0.976,0.973,1.985,1.485,2.967
			c1.17,0.202,2.349,0.352,3.524,0.548c-0.824,0.872-1.699,1.69-2.548,2.537c0.211,1.17,0.422,2.343,0.607,3.519
			c-1.074-0.543-2.134-1.114-3.203-1.662c-1.035,0.571-2.087,1.108-3.136,1.654c0.151-1.201,0.396-2.388,0.548-3.589
			c-0.88-0.785-1.721-1.614-2.542-2.458c1.192-0.197,2.399-0.34,3.588-0.565C138.732,35.77,139.154,34.776,139.691,33.843z"/>
		<path fill="#FFFFFF" d="M197.671,36.734c0.72-0.917,0.914-2.166,1.704-3.021c0.58,0.968,1.027,2.008,1.511,3.026
			c1.198,0.216,2.41,0.366,3.617,0.568c-0.816,0.83-1.708,1.581-2.486,2.438c-0.031,1.221,0.362,2.413,0.495,3.623
			c-1.047-0.557-2.109-1.085-3.14-1.67c-1.091,0.529-2.154,1.116-3.236,1.667c0.19-1.181,0.388-2.362,0.612-3.541
			c-0.841-0.841-1.732-1.628-2.509-2.534C195.379,37.077,196.546,37.018,197.671,36.734z"/>
		<path fill="#FFFFFF" d="M260.027,36.931c0.57-1.063,1.06-2.168,1.647-3.223c0.532,1.066,1.055,2.137,1.587,3.206
			c1.184,0.166,2.37,0.329,3.549,0.563c-0.866,0.815-1.704,1.659-2.564,2.478c0.196,1.184,0.407,2.365,0.599,3.549
			c-1.105-0.484-2.093-1.271-3.263-1.572c-1.08,0.436-2.07,1.063-3.11,1.575c0.191-1.184,0.394-2.365,0.591-3.549
			c-0.855-0.857-1.741-1.679-2.574-2.554C257.67,37.28,258.846,37.08,260.027,36.931z"/>
		<path fill="#FFFFFF" d="M337.356,36.748c0.526-1.015,0.939-2.092,1.559-3.057c0.706,0.909,1.052,2.036,1.589,3.046
			c1.189,0.222,2.391,0.371,3.586,0.565c-0.85,0.858-1.729,1.682-2.57,2.545c0.225,1.164,0.416,2.334,0.607,3.507
			c-1.077-0.537-2.135-1.103-3.198-1.659c-1.038,0.56-2.078,1.119-3.139,1.631c0.093-1.192,0.476-2.357,0.483-3.552
			c-0.79-0.863-1.682-1.623-2.488-2.467C334.972,37.103,336.17,36.956,337.356,36.748z"/>
		<path fill="#FFFFFF" d="M23.476,49.77c0.577,1.06,1.083,2.157,1.628,3.231c1.184,0.163,2.368,0.324,3.541,0.543
			c-0.83,0.886-1.898,1.6-2.529,2.641c0.152,1.136,0.405,2.258,0.56,3.395c-1.108-0.478-2.107-1.291-3.277-1.578
			c-1.069,0.447-2.05,1.078-3.094,1.578c0.163-1.147,0.414-2.284,0.563-3.431c-0.551-1.043-1.896-1.556-2.281-2.658
			c1.083-0.225,2.188-0.315,3.279-0.483C22.438,51.947,22.933,50.847,23.476,49.77z"/>
		<path fill="#FFFFFF" d="M70.31,49.77c0.577,1.055,1.1,2.138,1.623,3.22c1.184,0.174,2.371,0.332,3.546,0.548
			c-0.841,0.833-1.679,1.671-2.551,2.472c0.188,1.193,0.408,2.379,0.607,3.572c-1.083-0.515-2.092-1.187-3.217-1.606
			c-1.097,0.447-2.104,1.085-3.167,1.6c0.197-1.181,0.402-2.362,0.588-3.544c-0.835-0.857-1.741-1.642-2.526-2.545
			c1.17-0.152,2.334-0.321,3.501-0.49C69.266,51.933,69.803,50.858,70.31,49.77z"/>
		<path fill="#FFFFFF" d="M97.802,52.999c0.554-1.071,1.049-2.174,1.626-3.234c0.512,1.08,1.055,2.141,1.575,3.215
			c1.19,0.2,2.388,0.34,3.572,0.574c-0.852,0.799-1.718,1.586-2.503,2.453c-0.014,1.195,0.405,2.385,0.526,3.586
			c-1.041-0.512-2.025-1.142-3.097-1.586c-1.167,0.292-2.174,1.086-3.273,1.581c0.183-1.198,0.419-2.385,0.576-3.586
			c-0.86-0.81-1.693-1.648-2.554-2.458C95.428,53.331,96.615,53.165,97.802,52.999z"/>
		<path fill="#FFFFFF" d="M146.082,49.753c0.565,1.069,1.071,2.168,1.631,3.24c1.148,0.183,2.298,0.332,3.451,0.492
			c-0.714,0.939-1.617,1.71-2.469,2.514c0.18,1.198,0.394,2.394,0.59,3.589c-1.091-0.509-2.093-1.243-3.246-1.603
			c-1.077,0.456-2.076,1.083-3.125,1.598c0.121-1.195,0.551-2.399,0.515-3.583c-0.779-0.886-1.698-1.637-2.486-2.517
			c1.195-0.146,2.391-0.298,3.577-0.509C145.038,51.899,145.572,50.833,146.082,49.753z"/>
		<path fill="#FFFFFF" d="M53.396,53.3c0.554-1.075,1.071-2.166,1.64-3.229c0.52,1.075,1.068,2.138,1.575,3.22
			c1.193,0.18,2.388,0.34,3.575,0.54c-0.866,0.805-1.699,1.64-2.54,2.467c0.146,1.204,0.377,2.394,0.56,3.589
			c-1.052-0.518-2.05-1.156-3.133-1.606c-1.15,0.371-2.152,1.097-3.243,1.606c0.188-1.17,0.38-2.34,0.613-3.504
			c-0.844-0.872-1.71-1.727-2.599-2.554C51.024,53.634,52.211,53.471,53.396,53.3z"/>
		<path fill="#FFFFFF" d="M190.021,55.038c0.673-0.97,1.01-2.129,1.68-3.105c0.54,1.046,0.944,2.174,1.614,3.15
			c1.15,0.287,2.349,0.34,3.513,0.563c-0.866,0.846-1.749,1.673-2.599,2.537c0.222,1.173,0.422,2.349,0.619,3.524
			c-1.086-0.56-2.155-1.145-3.258-1.667c-1.021,0.59-2.075,1.116-3.116,1.662c0.184-1.181,0.392-2.357,0.597-3.533
			c-0.863-0.841-1.729-1.679-2.582-2.531C187.655,55.4,188.894,55.415,190.021,55.038z"/>
		<path fill="#FFFFFF" d="M254.441,52.045c0.79,0.849,1.077,2.104,1.704,3.097c1.164,0.129,2.32,0.306,3.479,0.495
			c-0.805,0.892-1.707,1.688-2.537,2.554c0.214,1.167,0.402,2.34,0.63,3.507c-1.077-0.537-2.141-1.097-3.2-1.662
			c-1.066,0.56-2.138,1.111-3.201,1.673c0.211-1.181,0.402-2.368,0.61-3.549c-0.841-0.844-1.732-1.637-2.525-2.528
			c1.156-0.18,2.312-0.36,3.477-0.489C253.415,54.118,253.887,53.061,254.441,52.045z"/>
		<path fill="#FFFFFF" d="M271.634,55.221c0.512-1.072,1.013-2.154,1.587-3.195c0.56,1.021,0.984,2.115,1.574,3.119
			c1.098,0.394,2.326,0.36,3.477,0.588c-0.689,1.004-1.789,1.651-2.441,2.672c0.146,1.147,0.405,2.275,0.565,3.423
			c-1.1-0.498-2.095-1.243-3.248-1.598c-1.08,0.456-2.076,1.083-3.125,1.598c0.186-1.189,0.405-2.376,0.568-3.572
			c-0.841-0.852-1.732-1.657-2.534-2.545C269.252,55.589,270.444,55.42,271.634,55.221z"/>
		<path fill="#FFFFFF" d="M290.188,55.032c0.624-0.984,1.001-2.109,1.656-3.083c0.554,1.018,0.95,2.121,1.581,3.097
			c1.149,0.349,2.379,0.366,3.561,0.599c-0.872,0.833-1.732,1.673-2.594,2.517c0.208,1.178,0.399,2.359,0.597,3.541
			c-1.083-0.56-2.154-1.145-3.254-1.668c-1.019,0.599-2.079,1.119-3.119,1.673c0.18-1.181,0.388-2.357,0.61-3.532
			c-0.628-0.622-1.263-1.235-1.901-1.845c-0.186-0.214-0.507-0.399-0.411-0.726C287.991,55.35,289.145,55.398,290.188,55.032z"/>
		<path fill="#FFFFFF" d="M329.647,55.108c0.796-0.857,0.914-2.295,1.786-3.04c0.618,0.956,0.886,2.149,1.611,3.012
			c1.103,0.292,2.259,0.334,3.384,0.548c-0.751,0.903-1.635,1.679-2.48,2.483c0.16,1.204,0.396,2.394,0.602,3.589
			c-1.08-0.546-2.146-1.111-3.218-1.665c-1.055,0.571-2.12,1.114-3.175,1.676c0.202-1.181,0.396-2.365,0.599-3.546
			c-0.847-0.847-1.724-1.663-2.551-2.526C327.344,55.426,328.512,55.35,329.647,55.108z"/>
		<path fill="#FFFFFF" d="M205.633,55.229c0.521-1.08,1.041-2.16,1.601-3.217c0.537,1.074,1.055,2.163,1.606,3.231
			c1.17,0.169,2.34,0.337,3.516,0.492c-0.805,0.88-1.677,1.693-2.537,2.517c0.171,1.184,0.41,2.363,0.554,3.555
			c-1.052-0.546-2.095-1.105-3.149-1.637c-1.066,0.551-2.13,1.1-3.189,1.657c0.202-1.192,0.413-2.382,0.599-3.575
			c-0.872-0.807-1.758-1.606-2.506-2.531C203.299,55.578,204.469,55.417,205.633,55.229z"/>
		<path fill="#FFFFFF" d="M188.562,65.675c0.073,0.011,0.219,0.031,0.292,0.042c-0.008,16.594-0.003,33.188-0.003,49.784
			c-0.073,0.003-0.216,0.011-0.289,0.014c0.02-13.938-0.057-27.896,0.056-41.835C188.46,71.013,188.662,68.344,188.562,65.675z"/>
		<path fill="#FFFFFF" d="M25.987,65.714c2.526,0,5.054-0.003,7.58,0c0.008,16.501-0.048,33.002,0,49.503
			c-0.92,0.028-1.842,0.022-2.762,0.022c-1.403-6.53-2.894-13.041-4.258-19.583c-0.197-1.047-0.546-2.076-0.591-3.145
			C26.03,83.579,25.968,74.646,25.987,65.714z"/>
		<path fill="#FFFFFF" d="M55.049,65.714c2.512-0.003,5.026,0,7.538,0c-0.002,8.741,0.011,17.485-0.005,26.227
			c-0.456,2.802-1.358,5.513-1.741,8.328c-1.17,4.978-2.129,10.001-3.33,14.971c-0.832,0-1.667,0.003-2.5-0.022
			C55.094,98.716,55.032,82.215,55.049,65.714z"/>
		<path fill="#FFFFFF" d="M89.927,65.714c0.121,0,0.366,0,0.487,0c-0.003,7.532,0,15.067-0.003,22.602
			c0.02,1.671-0.053,3.35,0.101,5.018c-0.138-0.729-0.149-1.469-0.154-2.205c-0.023-1.696-0.436-3.361-0.434-5.06
			C89.927,79.284,89.921,72.498,89.927,65.714z"/>
		<path fill="#FFFFFF" d="M97.242,65.714c2.534-0.003,5.071,0,7.608,0c0.008,9.223-0.065,18.442-0.04,27.664
			c0.065,7.157,0.037,14.313,0.034,21.471c-1.088-0.613-2.23-1.14-3.257-1.848c-1.459-1.258-3.164-2.228-4.368-3.764
			C97.304,94.73,97.217,80.221,97.242,65.714z"/>
		<path fill="#FFFFFF" d="M141.075,65.714c2.414,0,4.829-0.003,7.242,0c-0.002,14.622-0.064,29.247,0,43.869
			c-0.813,1.063-1.895,1.804-2.97,2.56c-1.17,1.285-2.796,1.94-4.309,2.712C141.137,98.474,140.971,82.094,141.075,65.714z"/>
		<path fill="#FFFFFF" d="M155.5,65.68l0.47,0.091c0.127,3.858,0.017,7.726,0.054,11.59c-0.039,2.059,0.107,4.129-0.141,6.179
			c-0.183,1.677-0.051,3.376-0.352,5.043C155.568,80.949,155.574,73.313,155.5,65.68z"/>
		<path fill="#FFFFFF" d="M195.933,65.714c2.428-0.003,4.852,0,7.282,0c0.062,16.594,0.024,33.19,0.036,49.784
			c-2.441-0.003-4.88-0.003-7.318,0C195.933,98.904,195.933,82.308,195.933,65.714z"/>
		<path fill="#FFFFFF" d="M248.701,65.714c2.525,0,5.054-0.003,7.582,0c0,16.501,0,33.002,0.003,49.5
			c-2.531,0.04-5.06,0.04-7.588,0.003C248.704,98.716,248.698,82.215,248.701,65.714z"/>
		<path fill="#FFFFFF" d="M263.098,65.714c2.515-0.003,5.026-0.003,7.541,0c-0.003,1.212-0.003,2.427-0.003,3.643
			c-1.303,0.054-2.604,0.034-3.904,0.036c0.096,9.537,0.015,19.077,0.046,28.614c1.285,0.04,2.573,0.012,3.858,0.065
			c0.003,5.715-0.003,11.43,0.003,17.145c-2.523,0.039-5.049,0.028-7.571,0.006C263.135,98.719,263.084,82.218,263.098,65.714z"/>
		<path fill="#FFFFFF" d="M277.501,65.714c2.512-0.003,5.023-0.003,7.537,0c-0.003,1.201-0.003,2.402,0,3.603
			c-2.511,0.136-5.025,0.06-7.537,0.037C277.498,68.141,277.498,66.926,277.501,65.714z"/>
		<path fill="#FFFFFF" d="M292.126,65.714c2.385,0,4.77-0.003,7.155,0c0.036,1.212,0.051,2.422,0.045,3.631
			c-2.402,0.051-4.804,0.088-7.203-0.017C292.123,68.125,292.123,66.918,292.126,65.714z"/>
		<path fill="#FFFFFF" d="M332.325,65.711c0.962,0.003,1.927,0,2.891,0.003c-0.081,4.731,0.025,9.464-0.033,14.197
			c-0.341,0.006-0.675,0.012-1.004,0.018C333.54,75.192,332.924,70.453,332.325,65.711z"/>
		<path fill="#FFFFFF" d="M342.374,65.714c0.99-0.003,1.98-0.003,2.976,0c-0.639,4.736-1.282,9.476-1.904,14.212
			c-0.362-0.003-0.72-0.006-1.071-0.009C342.374,75.181,342.374,70.447,342.374,65.714z"/>
		<path fill="#FFFFFF" d="M40.371,77.773c0.557,3.17,1.15,6.332,1.881,9.468c1.224-0.018,2.444-0.02,3.668,0.008
			c0.312-1.097,0.596-2.202,0.925-3.293c0.461-1.997,0.652-4.047,1.114-6.044c0.008,12.437,0,24.873,0.002,37.313
			c-2.522,0.022-5.048,0.022-7.571,0C40.374,102.74,40.41,90.259,40.371,77.773z"/>
		<path fill="#FFFFFF" d="M111.946,92.32c0.191,1.556,0.633,3.077,1.423,4.436c0.675,1.698,1.969,3.049,3.347,4.207
			c0.931,0.476,1.882,0.926,2.771,1.488c-0.048,5.118-0.009,10.237-0.022,15.354c-2.483-0.276-4.984-0.447-7.442-0.9
			C111.974,108.709,112.123,100.508,111.946,92.32z"/>
		<path fill="#FFFFFF" d="M130.562,99.911c1.966-1.51,2.467-4.078,3.35-6.255c0.045,7.748,0.006,15.497,0.022,23.248
			c-2.503,0.444-5.042,0.624-7.566,0.92c0.082-5.074-0.078-10.15,0.057-15.225C127.98,102.046,129.271,100.918,130.562,99.911z"/>
		<path fill="#FFFFFF" d="M328.801,95.107c2.124,0.003,4.25,0,6.373,0.003c0.003,6.702-0.003,13.404,0.003,20.106
			c-2.126,0.048-4.252,0.009-6.376,0.022C328.798,108.528,328.798,101.818,328.801,95.107z"/>
		<path fill="#FFFFFF" d="M342.374,95.11c2.208-0.003,4.416-0.003,6.623,0c0,6.708,0,13.418,0,20.129
			c-2.204,0-4.409-0.003-6.614,0.003v-0.054C342.365,108.495,342.38,101.801,342.374,95.11z"/>
		<path fill="#FFFFFF" d="M277.492,98.058c2.515-0.042,5.032-0.036,7.546-0.003c-0.003,5.724,0,11.447-0.003,17.171
			c-2.528,0.005-5.057,0.056-7.585-0.028C277.555,109.488,277.481,103.772,277.492,98.058z"/>
		<path fill="#FFFFFF" d="M292.126,98.063c2.433-0.051,4.871-0.045,7.307-0.003c-0.003,5.721,0,11.441,0,17.162
			c-2.438,0.022-4.874,0.033-7.31-0.009C292.126,109.499,292.123,103.781,292.126,98.063z"/>
	</g>
	<g id="_x23_0026ffff">
		<path fill="#0026FF" d="M115.551,2.638c3.263-0.61,6.587-0.318,9.883-0.394c1.991-0.076,3.955,0.332,5.935,0.481
			c1.817,0.146,3.538,0.793,5.338,1.041c3.049,0.492,5.633,2.295,8.452,3.431c1.423,0.588,2.506,1.741,3.89,2.402
			c0.804,0.374,1.355,1.085,1.868,1.78c0.869,1.178,1.949,2.171,2.911,3.265c0.59,0.655,0.947,1.474,1.493,2.163
			c1.325,1.702,2.143,3.727,2.905,5.726c1.218,3.237,1.73,6.674,2.132,10.091c0.135,1.468,0.064,2.95,0.292,4.41
			c-0.61-0.09-1.215-0.186-1.819-0.287c-0.509-0.993-0.962-2.014-1.485-2.998c-0.855,0.72-1.091,2.028-1.67,2.995
			c-1.189,0.208-2.388,0.36-3.578,0.56c0.838,0.872,1.735,1.685,2.565,2.568c-0.219,1.145-0.428,2.295-0.551,3.457
			c1.052-0.526,2.09-1.086,3.133-1.631c1.055,0.56,2.106,1.122,3.181,1.645c-0.197-1.184-0.414-2.365-0.588-3.552
			c0.402-0.371,0.811-0.742,1.207-1.122c-0.646,2.025-0.185,4.23-0.29,6.328c-0.208,4.686,0.11,9.374,0.012,14.06
			c-0.104,6.849,0.087,13.697-0.017,20.545c0.149,2.441-0.349,4.863-0.23,7.308c0.109,3.015-0.49,5.993-0.892,8.969
			c-0.374,1.496-0.436,3.077-1.071,4.497c-0.661,1.449-0.917,3.046-1.685,4.449c-1.083,2.079-1.916,4.337-3.507,6.104
			c-1.688,2.138-3.786,3.873-5.774,5.712c-1.159,1.016-2.72,1.358-3.96,2.25c-0.731,0.532-1.564,0.9-2.45,1.08
			c-1.248,0.239-2.339,0.999-3.62,1.105c-1.341,0.144-2.615,0.649-3.965,0.729c-1.513,0.112-2.964,0.672-4.489,0.667
			c-2.082-0.04-4.132,0.433-6.213,0.253c-1.98,0.23-3.918-0.323-5.895-0.251c-1.423,0.034-2.784-0.441-4.185-0.621
			c-1.612-0.208-3.198-0.56-4.798-0.832c-2.346-0.571-4.441-1.817-6.652-2.74c-1.071-0.472-2.199-0.899-3.077-1.701
			c-2.52-2.238-5.127-4.475-6.975-7.329c-0.729-1.348-1.682-2.585-2.177-4.048c-0.388-1.065-1.133-1.969-1.409-3.076
			c-0.788-3.077-2.056-6.087-2.028-9.313c0.076-1.524-0.571-2.965-0.534-4.488c0.003-15.174-0.006-30.35,0.003-45.523
			c0.697-0.36,1.395-0.726,2.081-1.105c1.072,0.545,2.129,1.122,3.209,1.651c-0.2-1.173-0.396-2.348-0.602-3.524
			c0.827-0.852,1.735-1.623,2.5-2.531c-0.959-0.166-1.926-0.278-2.891-0.419c-0.276-0.057-0.639-0.087-0.74-0.408
			c-0.523-0.922-0.92-1.912-1.409-2.857c-0.844,1.027-0.942,2.638-2.126,3.338c-0.149-2.469,0.132-4.933,0.5-7.372
			c0.233-2.444,1.209-4.719,1.859-7.062c1.018-2.346,2.141-4.663,3.608-6.764c0.664-0.928,1.114-2.042,2.062-2.731
			c1.218-0.931,1.887-2.438,3.257-3.195c0.776-0.428,1.555-0.855,2.247-1.415c1.547-1.207,3.473-1.716,5.167-2.661
			c1.991-1.075,4.131-1.91,6.393-2.168C112.011,3.119,113.763,2.779,115.551,2.638 M97.793,15.646
			c-1.192,0.191-2.391,0.346-3.583,0.537c0.83,0.847,1.69,1.662,2.548,2.48c-0.149,1.198-0.394,2.385-0.557,3.583
			c1.049-0.521,2.047-1.142,3.122-1.615c1.136,0.394,2.138,1.105,3.229,1.617c-0.177-1.207-0.428-2.399-0.585-3.608
			c0.9-0.776,1.707-1.651,2.576-2.461c-1.192-0.186-2.385-0.343-3.578-0.52c-0.503-1.049-1.029-2.087-1.547-3.13
			C98.741,13.494,98.319,14.6,97.793,15.646 M114.859,12.434c-0.52,1.072-1.049,2.138-1.569,3.209
			c-1.195,0.203-2.396,0.349-3.591,0.546c0.877,0.838,1.752,1.676,2.607,2.537c-0.225,1.167-0.427,2.337-0.604,3.513
			c1.061-0.542,2.112-1.1,3.162-1.659c1.074,0.54,2.132,1.119,3.203,1.673c-0.194-1.176-0.391-2.351-0.625-3.519
			c0.85-0.869,1.738-1.693,2.593-2.554c-1.184-0.186-2.371-0.34-3.555-0.526C115.957,14.572,115.417,13.5,114.859,12.434
			 M130.674,13.177c-0.529,1.066-1.069,2.129-1.578,3.203c-1.173,0.169-2.343,0.352-3.519,0.503
			c0.768,0.914,1.668,1.705,2.522,2.537c-0.193,1.189-0.396,2.376-0.602,3.563c1.103-0.49,2.096-1.297,3.273-1.578
			c1.072,0.422,2.045,1.066,3.088,1.556c-0.171-1.193-0.411-2.371-0.557-3.563c0.836-0.824,1.722-1.603,2.475-2.506
			c-1.147-0.169-2.294-0.349-3.445-0.49C131.757,15.336,131.248,14.243,130.674,13.177 M144.501,16.166
			c-1.188,0.18-2.374,0.338-3.556,0.535c0.821,0.847,1.73,1.606,2.509,2.492c-0.011,1.195-0.399,2.379-0.534,3.575
			c1.1-0.489,2.098-1.246,3.243-1.603c1.077,0.456,2.067,1.094,3.125,1.595c-0.188-1.167-0.375-2.332-0.613-3.487
			c0.833-0.886,1.727-1.713,2.596-2.565c-1.181-0.205-2.374-0.36-3.56-0.54c-0.526-1.071-1.069-2.137-1.595-3.209
			C145.569,14.023,145.035,15.095,144.501,16.166 M120.496,27.439c-1.432,0.478-2.571,1.676-3.071,3.094
			c-1.108,2.787-1.463,5.844-1.353,8.828c-0.022,15.387,0,30.775-0.011,46.159c-0.064,2.262,0.256,4.522,0.81,6.711
			c0.442,1.254,0.636,2.652,1.539,3.689c1.103,1.617,3.167,2.29,5.06,2.112c1.777,0.054,3.566-0.86,4.556-2.337
			c1.162-2.281,1.331-4.86,1.654-7.352c0.011-1.612,0.039-3.224,0.216-4.826c0.011-14.342,0-28.685,0.006-43.026
			c-0.067-1.412-0.382-2.807-0.211-4.225c-0.177-2.005-0.405-4.053-1.105-5.951c-0.65-1.072-1.37-2.272-2.582-2.765
			C124.214,27.028,122.307,27.008,120.496,27.439 M105.916,33.806c-0.535,0.957-0.957,1.969-1.457,2.942
			c-1.184,0.206-2.374,0.36-3.558,0.551c0.779,0.922,1.831,1.628,2.511,2.616c-0.121,1.15-0.394,2.278-0.534,3.423
			c1.061-0.523,2.109-1.077,3.147-1.643c1.069,0.551,2.118,1.133,3.207,1.64c-0.203-1.176-0.422-2.349-0.596-3.53
			c0.855-0.821,1.721-1.637,2.534-2.503c-1.182-0.197-2.371-0.349-3.55-0.557c-0.492-0.976-0.914-1.988-1.459-2.939
			C106.102,33.806,105.978,33.806,105.916,33.806 M139.691,33.843c-0.538,0.934-0.959,1.927-1.429,2.894
			c-1.189,0.225-2.396,0.369-3.588,0.565c0.821,0.844,1.662,1.673,2.542,2.458c-0.152,1.201-0.397,2.388-0.548,3.589
			c1.049-0.546,2.101-1.083,3.136-1.654c1.069,0.548,2.129,1.119,3.203,1.662c-0.186-1.176-0.396-2.348-0.607-3.519
			c0.85-0.846,1.725-1.665,2.548-2.537c-1.175-0.197-2.354-0.346-3.524-0.548c-0.512-0.982-0.965-1.991-1.485-2.967
			C139.877,33.801,139.753,33.829,139.691,33.843 M97.802,52.999c-1.187,0.166-2.374,0.332-3.552,0.543
			c0.861,0.81,1.693,1.648,2.554,2.458c-0.157,1.201-0.394,2.388-0.576,3.586c1.1-0.495,2.106-1.288,3.273-1.581
			c1.072,0.444,2.056,1.075,3.097,1.586c-0.121-1.201-0.54-2.391-0.526-3.586c0.785-0.866,1.651-1.654,2.503-2.453
			c-1.184-0.233-2.382-0.374-3.572-0.574c-0.52-1.074-1.063-2.135-1.575-3.215C98.851,50.825,98.356,51.927,97.802,52.999
			 M146.082,49.753c-0.509,1.08-1.043,2.146-1.562,3.221c-1.187,0.211-2.382,0.363-3.577,0.509c0.788,0.88,1.707,1.631,2.486,2.517
			c0.037,1.184-0.394,2.388-0.515,3.583c1.049-0.515,2.048-1.142,3.125-1.598c1.153,0.36,2.154,1.094,3.246,1.603
			c-0.197-1.195-0.411-2.391-0.59-3.589c0.852-0.804,1.755-1.575,2.469-2.514c-1.153-0.16-2.303-0.31-3.451-0.492
			C147.153,51.921,146.646,50.822,146.082,49.753 M89.927,65.714c-0.005,6.784,0,13.57-0.003,20.354
			c-0.002,1.698,0.411,3.363,0.434,5.06c0.005,0.736,0.017,1.477,0.154,2.205c0.217,0.86,0.433,1.724,0.56,2.607
			c0.928,4.852,3.023,9.461,6.148,13.297c1.204,1.536,2.908,2.506,4.368,3.764c1.027,0.708,2.168,1.234,3.257,1.848
			c2.368,0.754,4.779,1.39,7.178,2.056c2.458,0.453,4.958,0.624,7.442,0.9c2.298,0.183,4.606,0.188,6.904,0.02
			c2.523-0.296,5.063-0.476,7.566-0.92c2.382-0.63,4.773-1.26,7.104-2.05c1.513-0.771,3.139-1.427,4.309-2.712
			c1.075-0.756,2.157-1.496,2.97-2.56c4.059-4.421,5.757-10.408,6.804-16.177c0.405-1.578,0.337-3.212,0.411-4.824
			c0.301-1.667,0.168-3.366,0.352-5.043c0.248-2.05,0.102-4.12,0.141-6.179c-0.037-3.864,0.073-7.731-0.054-11.59l-0.47-0.091
			c-2.393,0.076-4.789,0.012-7.183,0.034c-2.413-0.003-4.829,0-7.242,0c-2.137,0-4.274-0.003-6.412,0
			c-0.023,6.229,0.04,12.462-0.028,18.692c-0.298,1.758-0.236,3.535-0.225,5.31c0.044,1.342-0.605,2.596-0.498,3.94
			c-0.883,2.177-1.384,4.745-3.35,6.255c-1.291,1.007-2.582,2.135-4.137,2.688c-2.304,0.115-4.663,0.326-6.938-0.148
			c-0.889-0.563-1.839-1.013-2.771-1.488c-1.378-1.158-2.672-2.509-3.347-4.207c-0.79-1.358-1.232-2.88-1.423-4.436
			c-0.6-1.556-0.453-3.229-0.667-4.852c-0.138-7.25,0.048-14.504-0.056-21.755c-2.126,0-4.25,0-6.373,0
			c-2.537,0-5.074-0.003-7.608,0c-2.278-0.003-4.553,0-6.829,0C90.292,65.714,90.048,65.714,89.927,65.714z"/>
		<path fill="#0026FF" d="M1.541,4.649c10.221,0.084,20.447-0.011,30.67,0.054c0.768,1.665,1.072,3.49,1.333,5.288
			c2.503,14.372,4.995,28.741,7.464,43.118c-0.315-0.037-0.627-0.07-0.942-0.101c-0.54-1.08-1.032-2.186-1.643-3.229
			c-0.492,1.08-1.035,2.135-1.558,3.201c-1.162,0.197-2.334,0.343-3.499,0.532c0.765,0.897,1.64,1.688,2.495,2.498
			c-0.172,1.195-0.388,2.385-0.594,3.575c1.069-0.557,2.132-1.117,3.209-1.657c1.046,0.543,2.086,1.1,3.139,1.634
			c-0.121-1.021-0.343-2.022-0.478-3.038c-0.141-0.349,0.118-0.639,0.256-0.928c1.046,5.189,1.747,10.448,2.787,15.64
			c3.659-20.933,7.256-41.88,10.879-62.822c0.242-1.232,0.284-2.489,0.41-3.735c10.522,0,21.043,0.025,31.568-0.025
			c-2.405,10.958-4.84,21.907-7.313,32.847c-0.47-0.093-0.942-0.18-1.415-0.27c-0.52-1.077-1.071-2.137-1.583-3.217
			c-0.583,1.063-0.971,2.261-1.699,3.226c-1.111,0.281-2.264,0.327-3.389,0.518c0.731,0.931,1.634,1.702,2.483,2.52
			c-0.169,1.195-0.385,2.382-0.585,3.572c1.06-0.557,2.124-1.105,3.187-1.651c0.588,0.298,1.173,0.599,1.763,0.897
			c-5.122,23.415-10.392,46.794-15.553,70.2c-0.422,2.25-1.184,4.446-1.252,6.756c-1.614,0.177-3.243,0.146-4.863,0.104
			c-9.382-0.005-18.765,0.003-28.147-0.002c-0.872,0.048-1.929-0.293-2.228-1.198c-5.903-26.961-11.728-53.944-17.62-80.91
			c0.647,0.669,1.313,1.316,2.002,1.943c-0.183,1.195-0.399,2.385-0.599,3.578c1.066-0.557,2.132-1.123,3.209-1.663
			c1.046,0.551,2.093,1.103,3.145,1.646c-0.16-1.198-0.414-2.382-0.548-3.583c0.844-0.816,1.699-1.617,2.52-2.453
			c-1.167-0.211-2.346-0.374-3.521-0.534c-0.565-1.066-1.038-2.18-1.654-3.218c-0.512,1.055-0.967,2.146-1.578,3.15
			c-1.01,0.293-2.07,0.346-3.105,0.49C6.309,26.482,3.935,15.562,1.541,4.649 M69.629,12.946c-0.52,1.086-1.052,2.166-1.611,3.232
			c-1.181,0.168-2.363,0.332-3.538,0.52c0.863,0.861,1.755,1.693,2.599,2.574c-0.236,1.161-0.425,2.332-0.627,3.499
			c1.105-0.489,2.106-1.263,3.259-1.603c1.072,0.453,2.05,1.091,3.105,1.581c-0.171-1.165-0.365-2.326-0.61-3.476
			c0.833-0.889,1.73-1.713,2.607-2.557c-1.184-0.217-2.379-0.372-3.569-0.546C70.712,15.092,70.183,14.012,69.629,12.946
			 M20.503,16.38c-1.184,0.169-2.374,0.318-3.543,0.577c0.821,0.872,1.817,1.595,2.517,2.573c-0.124,1.156-0.422,2.292-0.571,3.445
			c1.103-0.478,2.092-1.291,3.268-1.569c1.08,0.422,2.056,1.066,3.102,1.567c-0.191-1.187-0.405-2.371-0.588-3.561
			c0.864-0.835,1.75-1.651,2.563-2.537c-1.156-0.155-2.323-0.259-3.462-0.503c-0.72-0.967-1.111-2.132-1.662-3.195
			C21.527,14.214,21.023,15.303,20.503,16.38 M28.825,36.751c-1.184,0.205-2.376,0.357-3.563,0.554c0.796,0.9,1.8,1.617,2.515,2.587
			c-0.118,1.159-0.388,2.295-0.557,3.445c1.077-0.509,2.126-1.072,3.17-1.643c1.074,0.548,2.132,1.128,3.212,1.662
			c-0.197-1.17-0.394-2.34-0.607-3.51c0.827-0.869,1.721-1.671,2.542-2.548c-1.187-0.194-2.382-0.346-3.566-0.56
			c-0.495-1.063-0.984-2.132-1.581-3.145C29.843,34.636,29.343,35.696,28.825,36.751 M60.106,36.976
			c-1.181,0.166-2.362,0.337-3.546,0.475c0.79,0.892,1.724,1.646,2.506,2.542c-0.059,1.204-0.388,2.376-0.543,3.569
			c1.1-0.498,2.098-1.243,3.254-1.604c1.075,0.458,2.067,1.094,3.125,1.595c-0.129-1.189-0.512-2.357-0.523-3.552
			c0.74-0.9,1.688-1.6,2.411-2.517c-1.134-0.213-2.292-0.287-3.42-0.537c-0.656-1.004-1.075-2.14-1.634-3.195
			C61.141,34.802,60.66,35.907,60.106,36.976 M23.476,49.77c-0.543,1.077-1.038,2.177-1.609,3.237
			c-1.091,0.168-2.197,0.259-3.279,0.483c0.385,1.103,1.729,1.615,2.281,2.658c-0.149,1.147-0.399,2.284-0.563,3.431
			c1.043-0.5,2.025-1.131,3.094-1.578c1.17,0.287,2.168,1.1,3.277,1.578c-0.155-1.136-0.408-2.258-0.56-3.395
			c0.63-1.041,1.699-1.755,2.529-2.641c-1.173-0.219-2.357-0.38-3.541-0.543C24.559,51.927,24.053,50.83,23.476,49.77 M70.31,49.77
			c-0.506,1.088-1.043,2.163-1.595,3.229c-1.167,0.169-2.332,0.338-3.501,0.49c0.785,0.903,1.69,1.688,2.526,2.545
			c-0.186,1.182-0.391,2.363-0.588,3.544c1.063-0.515,2.07-1.153,3.167-1.6c1.125,0.419,2.134,1.091,3.217,1.606
			c-0.2-1.193-0.419-2.379-0.607-3.572c0.872-0.801,1.71-1.64,2.551-2.472c-1.176-0.216-2.362-0.374-3.546-0.548
			C71.409,51.908,70.886,50.825,70.31,49.77 M53.396,53.3c-1.184,0.171-2.371,0.334-3.552,0.529
			c0.889,0.827,1.755,1.682,2.599,2.554c-0.233,1.164-0.425,2.334-0.613,3.504c1.091-0.509,2.093-1.235,3.243-1.606
			c1.083,0.45,2.081,1.088,3.133,1.606c-0.183-1.195-0.414-2.385-0.56-3.589c0.841-0.827,1.673-1.662,2.54-2.467
			c-1.187-0.2-2.382-0.36-3.575-0.54c-0.506-1.083-1.055-2.146-1.575-3.22C54.467,51.134,53.949,52.225,53.396,53.3 M20.008,65.714
			c1.741,8.53,3.724,17.01,5.557,25.521c0.102,0.434,0.236,0.858,0.391,1.277c0.045,1.068,0.394,2.098,0.591,3.145
			c1.364,6.542,2.854,13.053,4.258,19.583c0.92,0,1.842,0.006,2.762-0.022c2.275-0.022,4.548-0.036,6.823,0.009
			c2.523,0.022,5.049,0.022,7.571,0c2.349-0.045,4.7-0.031,7.048-0.009c0.833,0.025,1.668,0.022,2.5,0.022
			c1.201-4.97,2.16-9.993,3.33-14.971c0.383-2.815,1.286-5.526,1.741-8.328c2.019-8.727,3.828-17.502,5.881-26.224
			c-1.96-0.009-3.918-0.003-5.875-0.003c-2.511,0-5.026-0.003-7.538,0c-1.397,0.003-2.795-0.011-4.193,0.012
			c-0.284,0.141-0.568,0.272-0.857,0.399c-0.608,3.94-1.513,7.832-2.039,11.787c-0.461,1.997-0.653,4.047-1.114,6.044
			c-0.329,1.091-0.613,2.196-0.925,3.293c-1.224-0.027-2.444-0.025-3.668-0.008c-0.731-3.136-1.324-6.298-1.881-9.468
			c-0.537-3.869-1.341-7.694-2.017-11.542c-0.214-0.172-0.425-0.343-0.636-0.518c-1.384-0.003-2.767,0-4.151,0
			c-2.526-0.003-5.054,0-7.58,0C23.994,65.714,22,65.711,20.008,65.714z"/>
		<path fill="#0026FF" d="M163.198,4.801c2.973,0.034,5.948-0.098,8.916,0.107c21.307,0.017,42.618-0.014,63.925,0.014
			c0.031,8.958,0.034,17.918,0.028,26.876c-7.037-0.194-14.082-0.042-21.122-0.079c-0.025,29.475-0.003,58.953,0.003,88.431
			c-10.396-0.025-20.793,0.053-31.19-0.045c0.23-5.156,0.045-10.325,0.104-15.486c0.02-24.303-0.039-48.605,0.037-72.908
			c-6.902-0.034-13.804,0.079-20.7-0.079C163.201,22.688,163.201,13.745,163.198,4.801 M174.806,15.654
			c-1.193,0.18-2.388,0.337-3.578,0.532c0.83,0.849,1.696,1.659,2.548,2.483c-0.155,1.201-0.391,2.388-0.577,3.583
			c1.069-0.515,2.076-1.159,3.167-1.625c1.125,0.419,2.118,1.128,3.217,1.606c-0.171-1.156-0.438-2.295-0.573-3.457
			c0.736-0.957,1.715-1.719,2.55-2.593c-1.164-0.211-2.351-0.287-3.501-0.548c-0.688-0.981-1.071-2.171-1.688-3.209
			C175.854,13.506,175.312,14.572,174.806,15.654 M190.068,15.649c-1.189,0.188-2.382,0.343-3.568,0.534
			c0.844,0.866,1.746,1.673,2.57,2.56c-0.214,1.167-0.413,2.334-0.597,3.504c1.05-0.549,2.102-1.091,3.137-1.668
			c1.094,0.526,2.151,1.114,3.229,1.67c-0.183-1.178-0.394-2.357-0.619-3.529c0.869-0.847,1.725-1.708,2.616-2.534
			c-1.195-0.191-2.394-0.346-3.589-0.532c-0.495-1.052-1.019-2.092-1.541-3.13C191.033,13.494,190.592,14.597,190.068,15.649
			 M205.546,15.643c-1.147,0.248-2.326,0.332-3.481,0.535c0.849,0.86,1.727,1.69,2.581,2.548c-0.219,1.173-0.413,2.349-0.61,3.524
			c1.098-0.489,2.099-1.254,3.24-1.603c1.069,0.447,2.048,1.08,3.091,1.583c-0.129-1.201-0.396-2.382-0.534-3.583
			c0.881-0.791,1.713-1.631,2.557-2.458c-1.187-0.194-2.377-0.349-3.563-0.535c-0.531-1.029-0.998-2.092-1.569-3.097
			C206.505,13.478,206.28,14.715,205.546,15.643 M222.621,12.426c-0.526,1.077-1.08,2.14-1.593,3.226
			c-1.187,0.186-2.376,0.343-3.561,0.529c0.853,0.861,1.744,1.685,2.591,2.554c-0.236,1.17-0.431,2.346-0.622,3.524
			c1.072-0.563,2.132-1.153,3.227-1.679c1.032,0.574,2.081,1.119,3.136,1.657c-0.18-1.173-0.377-2.343-0.604-3.507
			c0.854-0.861,1.729-1.702,2.606-2.54c-1.195-0.197-2.396-0.343-3.588-0.543C223.689,14.566,223.16,13.494,222.621,12.426
			 M197.671,36.734c-1.125,0.284-2.292,0.343-3.432,0.557c0.776,0.906,1.668,1.693,2.509,2.534
			c-0.225,1.178-0.422,2.359-0.612,3.541c1.082-0.551,2.146-1.139,3.236-1.667c1.03,0.585,2.093,1.114,3.14,1.67
			c-0.133-1.209-0.526-2.402-0.495-3.623c0.778-0.857,1.67-1.608,2.486-2.438c-1.207-0.202-2.419-0.352-3.617-0.568
			c-0.483-1.018-0.931-2.059-1.511-3.026C198.585,34.568,198.391,35.817,197.671,36.734 M190.021,55.038
			c-1.127,0.377-2.365,0.363-3.532,0.599c0.853,0.853,1.719,1.69,2.582,2.531c-0.205,1.176-0.413,2.352-0.597,3.533
			c1.041-0.546,2.096-1.072,3.116-1.662c1.103,0.523,2.172,1.108,3.258,1.667c-0.197-1.175-0.397-2.351-0.619-3.524
			c0.85-0.863,1.732-1.69,2.599-2.537c-1.164-0.222-2.362-0.276-3.513-0.563c-0.67-0.976-1.074-2.104-1.614-3.15
			C191.03,52.909,190.693,54.067,190.021,55.038 M205.633,55.229c-1.164,0.188-2.334,0.349-3.507,0.492
			c0.748,0.925,1.634,1.724,2.506,2.531c-0.186,1.192-0.396,2.382-0.599,3.575c1.06-0.557,2.123-1.105,3.189-1.657
			c1.055,0.532,2.098,1.091,3.149,1.637c-0.144-1.192-0.383-2.371-0.554-3.555c0.86-0.824,1.732-1.637,2.537-2.517
			c-1.176-0.155-2.346-0.323-3.516-0.492c-0.552-1.069-1.069-2.157-1.606-3.231C206.674,53.069,206.153,54.149,205.633,55.229
			 M188.562,65.675c0.101,2.669-0.102,5.338,0.056,8.005c-0.112,13.938-0.036,27.896-0.056,41.835
			c0.073-0.003,0.216-0.011,0.289-0.014c2.36-0.042,4.72-0.042,7.082-0.003c2.438-0.003,4.877-0.003,7.318,0
			c2.289-0.039,4.579-0.02,6.868-0.003c0.036-16.591,0.006-33.182,0.017-49.775c-2.309-0.014-4.615-0.003-6.921-0.006
			c-2.431,0-4.854-0.003-7.282,0c-2.359,0-4.719-0.003-7.079,0.003C188.78,65.706,188.635,65.686,188.562,65.675z"/>
		<path fill="#0026FF" d="M240.75,4.649c21.484,0.054,42.97,0.02,64.454,0.04c0.003,8.657-0.009,17.316,0.006,25.974
			c0.247,1.207-1.378,0.793-2.102,1.001c-10.51,0.112-21.021,0.014-31.53,0.048c-0.006,5.214-0.006,10.426,0,15.64
			c10.873,0,21.749,0,32.622,0c-0.022,8.899,0.045,17.8-0.042,26.7c-10.843-0.006-21.688,0.011-32.529-0.009
			c-0.116,6.384-0.028,12.769-0.054,19.153c11.823,0,23.645,0.003,35.468,0c0.259,5.214-0.095,10.434,0.116,15.651
			c-0.158,3.769,0.146,7.537-0.085,11.306c-22.106-0.02-44.215,0.012-66.324-0.002c0-25.788,0-51.576,0-77.364
			c0.534-0.276,1.068-0.548,1.611-0.807c1.021,0.588,2.079,1.111,3.119,1.667c-0.174-1.175-0.374-2.348-0.588-3.518
			c0.824-0.883,1.722-1.693,2.579-2.545c-1.198-0.186-2.401-0.346-3.594-0.56c-0.518-1.066-1.032-2.132-1.545-3.198
			c-0.573,1.015-1.063,2.073-1.549,3.13C240.705,26.19,240.772,15.418,240.75,4.649 M273.152,12.524
			c-0.534,1.032-1.049,2.076-1.544,3.127c-1.198,0.186-2.401,0.34-3.597,0.538c0.857,0.807,1.685,1.645,2.554,2.444
			c-0.13,1.218-0.38,2.416-0.557,3.625c1.049-0.56,2.106-1.1,3.144-1.679c1.095,0.523,2.152,1.117,3.229,1.676
			c-0.183-1.179-0.386-2.351-0.607-3.521c0.844-0.866,1.718-1.707,2.581-2.556c-1.192-0.18-2.385-0.346-3.577-0.523
			C274.261,14.6,273.816,13.5,273.152,12.524 M254.104,13.612c-0.433,0.779-0.691,1.679-1.248,2.379
			c-1.14,0.236-2.298,0.332-3.443,0.532c0.794,0.869,1.646,1.682,2.515,2.472c-0.151,1.207-0.388,2.399-0.579,3.6
			c1.063-0.548,2.123-1.105,3.178-1.671c1.072,0.473,2.033,1.271,3.184,1.522c-0.174-1.136-0.424-2.259-0.593-3.395
			c0.857-0.827,1.724-1.645,2.534-2.522c-1.179-0.197-2.365-0.338-3.541-0.549c-0.489-0.996-0.937-2.019-1.488-2.984
			C254.278,12.92,254.272,13.427,254.104,13.612 M290.48,16.183c-1.161,0.155-2.32,0.315-3.471,0.512
			c0.74,0.959,1.814,1.637,2.479,2.647c-0.144,1.15-0.422,2.281-0.58,3.431c1.105-0.492,2.106-1.269,3.269-1.609
			c1.063,0.467,2.047,1.094,3.1,1.592c-0.181-1.164-0.372-2.326-0.603-3.479c0.813-0.906,1.725-1.713,2.588-2.568
			c-1.182-0.208-2.371-0.366-3.558-0.54c-0.543-1.063-1.069-2.135-1.575-3.214C291.538,14.012,291.023,15.106,290.48,16.183
			 M260.027,36.931c-1.182,0.149-2.357,0.349-3.539,0.472c0.833,0.875,1.719,1.696,2.574,2.554
			c-0.197,1.184-0.399,2.365-0.591,3.549c1.04-0.512,2.03-1.139,3.11-1.575c1.17,0.301,2.157,1.088,3.263,1.572
			c-0.191-1.184-0.402-2.365-0.599-3.549c0.86-0.819,1.698-1.663,2.564-2.478c-1.179-0.233-2.365-0.396-3.549-0.563
			c-0.532-1.069-1.055-2.14-1.587-3.206C261.087,34.763,260.598,35.868,260.027,36.931 M254.441,52.045
			c-0.555,1.015-1.026,2.073-1.563,3.097c-1.165,0.129-2.32,0.309-3.477,0.489c0.793,0.892,1.685,1.685,2.525,2.528
			c-0.208,1.181-0.399,2.368-0.61,3.549c1.063-0.563,2.135-1.114,3.201-1.673c1.06,0.565,2.123,1.125,3.2,1.662
			c-0.228-1.167-0.416-2.34-0.63-3.507c0.83-0.866,1.732-1.662,2.537-2.554c-1.159-0.188-2.315-0.365-3.479-0.495
			C255.519,54.149,255.231,52.895,254.441,52.045 M271.634,55.221c-1.189,0.2-2.382,0.368-3.577,0.489
			c0.802,0.889,1.693,1.693,2.534,2.545c-0.163,1.195-0.383,2.382-0.568,3.572c1.049-0.515,2.045-1.142,3.125-1.598
			c1.153,0.354,2.148,1.1,3.248,1.598c-0.16-1.147-0.419-2.275-0.565-3.423c0.652-1.021,1.752-1.668,2.441-2.672
			c-1.15-0.228-2.379-0.194-3.477-0.588c-0.59-1.004-1.015-2.098-1.574-3.119C272.646,53.066,272.146,54.149,271.634,55.221
			 M290.188,55.032c-1.044,0.366-2.197,0.318-3.274,0.574c-0.096,0.326,0.226,0.512,0.411,0.726c0.639,0.61,1.273,1.224,1.901,1.845
			c-0.223,1.175-0.431,2.351-0.61,3.532c1.04-0.554,2.101-1.074,3.119-1.673c1.1,0.523,2.171,1.108,3.254,1.668
			c-0.197-1.182-0.389-2.363-0.597-3.541c0.861-0.844,1.722-1.685,2.594-2.517c-1.182-0.233-2.411-0.25-3.561-0.599
			c-0.631-0.976-1.027-2.079-1.581-3.097C291.189,52.923,290.813,54.048,290.188,55.032 M245.554,65.714
			c-0.006,16.495-0.003,32.993-0.003,49.489c1.049-0.003,2.096-0.012,3.147,0.014c2.528,0.037,5.057,0.037,7.588-0.003
			c2.259-0.02,4.52-0.03,6.781,0.009c2.522,0.022,5.048,0.033,7.571-0.006c2.27-0.022,4.542-0.033,6.812,0.006v-0.025
			c2.528,0.084,5.057,0.033,7.585,0.028c2.363-0.045,4.726-0.028,7.088-0.012c2.436,0.042,4.871,0.031,7.31,0.009
			c0.863-0.028,1.732-0.025,2.602-0.02c0.082-5.713,0.04-11.422,0-17.131c-0.869-0.003-1.738,0-2.602-0.012
			c-2.436-0.042-4.874-0.048-7.307,0.003c-2.362,0.006-4.725,0.022-7.088-0.009c-2.514-0.033-5.031-0.039-7.546,0.003
			c-2.286,0.025-4.57,0.006-6.856,0.015c-1.285-0.054-2.573-0.025-3.858-0.065c-0.031-9.537,0.05-19.077-0.046-28.614
			c1.3-0.002,2.602,0.018,3.904-0.036c2.289,0.006,4.576-0.096,6.865-0.003c2.512,0.022,5.026,0.099,7.537-0.037
			c2.363,0.113,4.723-0.095,7.085,0.012c2.399,0.104,4.801,0.067,7.203,0.017c0.006-1.209-0.009-2.419-0.045-3.631
			c-2.386-0.003-4.771,0-7.155,0c-2.365,0-4.728,0-7.088,0c-2.514-0.003-5.025-0.003-7.537,0c-2.289,0-4.576,0-6.862,0
			c-2.515-0.003-5.026-0.003-7.541,0c-2.272,0-4.542-0.003-6.814,0c-2.528-0.003-5.057,0-7.582,0
			C247.649,65.714,246.6,65.714,245.554,65.714z"/>
		<path fill="#0026FF" d="M323.401,4.798c3.763,0.042,7.531-0.104,11.292,0.115c6.542-0.006,13.086,0.002,19.628-0.006
			c0.16,1.55-0.059,3.105,0.079,4.655c-0.132,3.378,0.151,6.756-0.054,10.133c0.04,5.341,0.107,10.688-0.076,16.026
			c-0.88,6.632-1.83,13.255-2.702,19.884c-1.15-0.146-2.29-0.334-3.438-0.467c-0.534-1.001-0.979-2.047-1.541-3.032
			c-0.042-0.006-0.132-0.02-0.174-0.028c-0.563,0.999-0.996,2.064-1.55,3.065c-1.167,0.127-2.326,0.307-3.479,0.498
			c0.802,0.88,1.693,1.676,2.531,2.525c-0.205,1.182-0.405,2.365-0.61,3.547c1.061-0.565,2.129-1.114,3.192-1.676
			c1.063,0.56,2.135,1.108,3.195,1.676c-0.206-1.184-0.408-2.368-0.607-3.555c0.804-0.796,1.628-1.575,2.424-2.382
			c-0.922,7.118-1.988,14.215-2.896,21.336c-0.369,2.551-0.56,5.149-1.364,7.613c-2.129-0.059-4.261,0.054-6.385-0.106
			c-3.763,0.067-7.543,0.228-11.303-0.042c0.331-2.727-0.324-5.423-0.645-8.117c-1.794-13.596-3.544-27.2-5.38-40.793
			c-0.118-4.756-0.009-9.52-0.045-14.279c-0.076-2.02,0.163-4.062-0.146-6.067C323.747,11.832,323.297,8.305,323.401,4.798
			 M332.17,12.397c-0.503,1.094-1.043,2.171-1.569,3.254c-1.195,0.188-2.396,0.343-3.589,0.535c0.83,0.841,1.73,1.611,2.526,2.486
			c-0.037,1.192-0.371,2.354-0.543,3.532c1.1-0.438,2.081-1.122,3.175-1.578c1.12,0.425,2.118,1.119,3.207,1.62
			c-0.188-1.173-0.38-2.343-0.605-3.507c0.839-0.875,1.73-1.696,2.579-2.56c-1.195-0.188-2.394-0.337-3.583-0.542
			C333.253,14.549,332.716,13.472,332.17,12.397 M345.595,15.654c-1.188,0.183-2.374,0.34-3.556,0.526
			c0.85,0.855,1.735,1.676,2.574,2.545c-0.217,1.17-0.411,2.346-0.603,3.521c1.08-0.554,2.144-1.15,3.246-1.665
			c1.026,0.579,2.072,1.122,3.122,1.665c-0.172-1.176-0.375-2.346-0.613-3.51c0.854-0.863,1.721-1.721,2.612-2.554
			c-1.192-0.186-2.385-0.346-3.577-0.523c-0.521-1.043-1.023-2.096-1.541-3.142C346.573,13.492,346.143,14.605,345.595,15.654
			 M337.356,36.748c-1.187,0.208-2.385,0.354-3.571,0.56c0.807,0.844,1.698,1.604,2.488,2.467c-0.008,1.195-0.391,2.36-0.483,3.552
			c1.061-0.512,2.101-1.072,3.139-1.631c1.063,0.557,2.121,1.122,3.198,1.659c-0.191-1.173-0.383-2.343-0.607-3.507
			c0.841-0.864,1.721-1.688,2.57-2.545c-1.195-0.194-2.396-0.343-3.586-0.565c-0.537-1.01-0.883-2.137-1.589-3.046
			C338.296,34.656,337.883,35.733,337.356,36.748 M329.647,55.108c-1.136,0.242-2.304,0.318-3.442,0.532
			c0.827,0.863,1.704,1.679,2.551,2.526c-0.202,1.181-0.396,2.365-0.599,3.546c1.055-0.563,2.12-1.105,3.175-1.676
			c1.071,0.554,2.138,1.119,3.218,1.665c-0.205-1.195-0.441-2.385-0.602-3.589c0.846-0.804,1.729-1.581,2.48-2.483
			c-1.125-0.214-2.281-0.256-3.384-0.548c-0.726-0.863-0.993-2.056-1.611-3.012C330.562,52.813,330.443,54.25,329.647,55.108
			 M332.325,65.711c0.599,4.742,1.215,9.481,1.854,14.218c0.329-0.006,0.663-0.012,1.004-0.018c2.396,0.006,4.792-0.002,7.191,0.006
			c0.352,0.003,0.709,0.006,1.071,0.009c0.622-4.736,1.266-9.476,1.904-14.212c-0.995-0.003-1.985-0.003-2.976,0
			c-2.385,0-4.772,0-7.158,0C334.252,65.711,333.287,65.714,332.325,65.711z"/>
		<path fill="#0026FF" d="M324.003,90.132c9.942-0.163,19.893-0.025,29.841-0.073c0.101,10.03,0.017,20.063,0.042,30.092
			c-9.962,0-19.924,0-29.886,0C324,110.144,323.997,100.139,324.003,90.132 M328.801,95.107c-0.003,6.711-0.003,13.421,0,20.132
			c2.124-0.014,4.25,0.025,6.376-0.022c2.402-0.042,4.804,0.009,7.206-0.028v0.054c2.205-0.006,4.41-0.003,6.614-0.003
			c0-6.711,0-13.421,0-20.129c-2.207-0.003-4.415-0.003-6.623,0c-2.399-0.003-4.801-0.003-7.2,0
			C333.051,95.107,330.925,95.11,328.801,95.107z"/>
	</g>
	<g id="_x23_ff0000ff">
		<path fill="#FF0000" d="M20.008,65.714c1.991-0.003,3.985,0,5.979,0c-0.02,8.933,0.042,17.865-0.031,26.798
			c-0.155-0.419-0.29-0.844-0.391-1.277C23.732,82.724,21.749,74.244,20.008,65.714z"/>
		<path fill="#FF0000" d="M33.567,65.714c1.384,0,2.767-0.003,4.151,0c0.211,0.175,0.422,0.346,0.636,0.518
			c0.675,3.848,1.479,7.673,2.017,11.542c0.04,12.485,0.003,24.967,0.02,37.452c-2.275-0.045-4.548-0.031-6.823-0.009
			C33.52,98.716,33.576,82.215,33.567,65.714z"/>
		<path fill="#FF0000" d="M49.998,66.125c0.29-0.127,0.574-0.259,0.857-0.399c1.398-0.022,2.796-0.009,4.193-0.012
			c-0.017,16.501,0.045,33.002-0.039,49.503c-2.349-0.022-4.7-0.036-7.048,0.009c-0.002-12.44,0.006-24.877-0.002-37.313
			C48.485,73.957,49.39,70.065,49.998,66.125z"/>
		<path fill="#FF0000" d="M62.586,65.714c1.958,0,3.915-0.006,5.875,0.003c-2.053,8.722-3.862,17.497-5.881,26.224
			C62.598,83.199,62.584,74.455,62.586,65.714z"/>
		<path fill="#FF0000" d="M90.414,65.714c2.275,0,4.55-0.003,6.829,0c-0.025,14.507,0.062,29.017-0.022,43.523
			c-3.125-3.836-5.22-8.445-6.148-13.297c-0.127-0.884-0.343-1.747-0.56-2.607c-0.154-1.668-0.082-3.347-0.101-5.018
			C90.414,80.781,90.411,73.246,90.414,65.714z"/>
		<path fill="#FF0000" d="M104.85,65.714c2.124,0,4.247,0,6.373,0c0.104,7.251-0.082,14.505,0.056,21.755
			c0.214,1.623,0.067,3.296,0.667,4.852c0.177,8.188,0.028,16.389,0.076,24.584c-2.399-0.666-4.81-1.302-7.178-2.056
			c0.003-7.158,0.031-14.313-0.034-21.471C104.785,84.156,104.858,74.937,104.85,65.714z"/>
		<path fill="#FF0000" d="M134.663,65.714c2.138-0.003,4.275,0,6.412,0c-0.104,16.38,0.062,32.76-0.037,49.141
			c-2.331,0.79-4.722,1.42-7.104,2.05c-0.017-7.751,0.022-15.5-0.022-23.248c-0.107-1.345,0.542-2.599,0.498-3.94
			c-0.011-1.774-0.074-3.552,0.225-5.31C134.702,78.176,134.64,71.943,134.663,65.714z"/>
		<path fill="#FF0000" d="M148.317,65.714c2.394-0.022,4.79,0.042,7.183-0.034c0.074,7.634,0.068,15.27,0.031,22.902
			c-0.073,1.612-0.005,3.246-0.411,4.824c-1.046,5.769-2.745,11.756-6.804,16.177C148.252,94.961,148.314,80.336,148.317,65.714z"/>
		<path fill="#FF0000" d="M188.851,115.501c0-16.597-0.005-33.19,0.003-49.784c2.36-0.006,4.72-0.003,7.079-0.003
			c0,16.594,0,33.19,0,49.784C193.57,115.459,191.211,115.459,188.851,115.501z"/>
		<path fill="#FF0000" d="M203.215,65.714c2.306,0.003,4.612-0.008,6.921,0.006c-0.011,16.594,0.02,33.185-0.017,49.775
			c-2.289-0.017-4.579-0.036-6.868,0.003C203.239,98.904,203.276,82.308,203.215,65.714z"/>
		<path fill="#FF0000" d="M245.554,65.714c1.046,0,2.096,0,3.147,0c-0.003,16.501,0.003,33.002-0.003,49.503
			c-1.052-0.025-2.099-0.017-3.147-0.014C245.551,98.707,245.548,82.209,245.554,65.714z"/>
		<path fill="#FF0000" d="M256.283,65.714c2.272-0.003,4.542,0,6.814,0c-0.014,16.504,0.037,33.005-0.03,49.509
			c-2.262-0.039-4.522-0.028-6.781-0.009C256.283,98.716,256.283,82.215,256.283,65.714z"/>
		<path fill="#FF0000" d="M270.639,65.714c2.286,0,4.573,0,6.862,0c-0.003,1.212-0.003,2.427,0,3.64
			c-2.289-0.093-4.576,0.009-6.865,0.003C270.636,68.141,270.636,66.926,270.639,65.714z"/>
		<path fill="#FF0000" d="M285.038,65.714c2.36,0,4.723,0,7.088,0c-0.003,1.204-0.003,2.411-0.003,3.614
			c-2.362-0.106-4.722,0.102-7.085-0.012C285.035,68.116,285.035,66.915,285.038,65.714z"/>
		<path fill="#FF0000" d="M335.216,65.714c2.386,0,4.773,0,7.158,0c0,4.733,0,9.467,0,14.203c-2.399-0.008-4.795,0-7.191-0.006
			C335.241,75.178,335.135,70.445,335.216,65.714z"/>
		<path fill="#FF0000" d="M335.174,95.11c2.399-0.003,4.801-0.003,7.2,0c0.006,6.69-0.009,13.385,0.009,20.078
			c-2.402,0.037-4.804-0.014-7.206,0.028C335.171,108.515,335.177,101.813,335.174,95.11z"/>
		<path fill="#FF0000" d="M270.636,98.072c2.286-0.009,4.57,0.011,6.856-0.015c-0.011,5.715,0.063,11.431-0.042,17.14v0.025
			c-2.27-0.039-4.542-0.028-6.812-0.006C270.633,109.502,270.639,103.787,270.636,98.072z"/>
		<path fill="#FF0000" d="M285.038,98.055c2.363,0.031,4.726,0.015,7.088,0.009c-0.003,5.718,0,11.436-0.003,17.15
			c-2.362-0.017-4.725-0.033-7.088,0.012C285.038,109.502,285.035,103.778,285.038,98.055z"/>
		<path fill="#FF0000" d="M299.433,98.061c0.863,0.012,1.732,0.009,2.602,0.012c0.04,5.709,0.082,11.418,0,17.131
			c-0.869-0.006-1.738-0.009-2.602,0.02C299.433,109.502,299.43,103.781,299.433,98.061z"/>
		<path fill="#FF0000" d="M119.486,102.451c2.275,0.475,4.635,0.264,6.938,0.148c-0.135,5.074,0.025,10.15-0.057,15.225
			c-2.298,0.169-4.606,0.163-6.904-0.02C119.478,112.688,119.438,107.569,119.486,102.451z"/>
	</g>
</g>
</svg>
