<?xml version="1.0" encoding="UTF-8" standalone="no"?>
<!-- Created with Inkscape (http://www.inkscape.org/) -->

<svg
   xmlns:dc="http://purl.org/dc/elements/1.1/"
   xmlns:cc="http://creativecommons.org/ns#"
   xmlns:rdf="http://www.w3.org/1999/02/22-rdf-syntax-ns#"
   xmlns:svg="http://www.w3.org/2000/svg"
   xmlns="http://www.w3.org/2000/svg"
   xmlns:sodipodi="http://sodipodi.sourceforge.net/DTD/sodipodi-0.dtd"
   xmlns:inkscape="http://www.inkscape.org/namespaces/inkscape"
   width="297mm"
   height="210mm"
   id="svg2"
   version="1.1"
   inkscape:version="0.48.0 r9654"
   sodipodi:docname="aba.svg">
  <sodipodi:namedview
     inkscape:document-units="mm"
     pagecolor="#ffffff"
     bordercolor="#666666"
     borderopacity="1.0"
     inkscape:pageopacity="0.0"
     inkscape:pageshadow="2"
     inkscape:zoom="0.94644222"
     inkscape:cx="526.18109"
     inkscape:cy="372.04724"
     inkscape:current-layer="layer1"
     id="namedview6"
     showgrid="true"
     inkscape:snap-bbox="true"
     inkscape:snap-bbox-midpoints="false"
     inkscape:snap-grids="true"
     inkscape:snap-object-midpoints="false"
     inkscape:snap-bbox-edge-midpoints="true"
     inkscape:snap-midpoints="true"
     inkscape:window-width="1578"
     inkscape:window-height="994"
     inkscape:window-x="16"
     inkscape:window-y="91"
     inkscape:window-maximized="0"
     inkscape:snap-global="false">
    <inkscape:grid
       type="xygrid"
       id="grid2990"
       empspacing="5"
       visible="true"
       enabled="true"
       snapvisiblegridlinesonly="true"
       spacingx="25px"
       spacingy="25px" />
  </sodipodi:namedview>
  <defs
     id="defs4">
    <marker
       inkscape:stockid="Arrow1Lend"
       orient="auto"
       refY="0.0"
       refX="0.0"
       id="Arrow1Lend"
       style="overflow:visible;">
      <path
         id="path3790"
         d="M 0.0,0.0 L 5.0,-5.0 L -12.5,0.0 L 5.0,5.0 L 0.0,0.0 z "
         style="fill-rule:evenodd;stroke:#000000;stroke-width:1.0pt;marker-start:none;"
         transform="scale(0.8) rotate(180) translate(12.5,0)" />
    </marker>
    <marker
       inkscape:stockid="Arrow1Mend"
       orient="auto"
       refY="0.0"
       refX="0.0"
       id="Arrow1Mend"
       style="overflow:visible;">
      <path
         id="path3796"
         d="M 0.0,0.0 L 5.0,-5.0 L -12.5,0.0 L 5.0,5.0 L 0.0,0.0 z "
         style="fill-rule:evenodd;stroke:#000000;stroke-width:1.0pt;marker-start:none;"
         transform="scale(0.4) rotate(180) translate(10,0)" />
    </marker>
  </defs>
  <metadata
     id="metadata8">
    <rdf:RDF>
      <cc:Work
         rdf:about="">
        <dc:format>image/svg+xml</dc:format>
        <dc:type
           rdf:resource="http://purl.org/dc/dcmitype/StillImage" />
      </cc:Work>
    </rdf:RDF>
  </metadata>
  <g
     inkscape:label="Layer 1"
     inkscape:groupmode="layer"
     id="layer1">
    <text
       xml:space="preserve"
       style="font-size:20px;font-style:normal;font-variant:normal;font-weight:bold;font-stretch:normal;text-align:center;line-height:125%;letter-spacing:0px;word-spacing:0px;text-anchor:middle;fill:#000000;fill-opacity:1;stroke:none;font-family:URW Palladio L;-inkscape-font-specification:Sans Bold"
       x="69.939011"
       y="239.24348"
       id="text4686"
       sodipodi:linespacing="125%"><tspan
         sodipodi:role="line"
         id="tspan4688"
         x="69.939011"
         y="239.24348">stack</tspan></text>
    <rect
       y="136.76682"
       x="0.068454459"
       height="64.655327"
       width="324.8631"
       id="rect5776"
       style="color:#000000;fill:#ffff00;fill-opacity:0.50196081;fill-rule:evenodd;stroke:#000000;stroke-width:1.13690888999999995;stroke-linecap:butt;stroke-linejoin:miter;stroke-miterlimit:4;stroke-opacity:1;stroke-dasharray:none;stroke-dashoffset:0;marker:none;visibility:visible;display:inline;overflow:visible;enable-background:accumulate" />
    <rect
       style="color:#000000;fill:#0000ff;fill-opacity:0.11036784;fill-rule:evenodd;stroke:#000000;stroke-width:2;stroke-linecap:butt;stroke-linejoin:miter;stroke-miterlimit:4;stroke-opacity:1;stroke-dasharray:none;stroke-dashoffset:0;marker:none;visibility:visible;display:inline;overflow:visible;enable-background:accumulate"
       id="rect2994"
       width="50"
       height="50"
       x="200.17354"
       y="80.358833" />
    <text
       xml:space="preserve"
       style="font-size:24px;font-style:normal;font-variant:normal;font-weight:normal;font-stretch:normal;text-align:end;line-height:125%;letter-spacing:0px;word-spacing:0px;text-anchor:end;fill:#000000;fill-opacity:1;stroke:none;font-family:URW Palladio L;-inkscape-font-specification:Sans"
       x="234.02167"
       y="113.55483"
       id="text2996"
       sodipodi:linespacing="125%"><tspan
         sodipodi:role="line"
         id="tspan2998"
         x="234.02167"
         y="113.55483">A</tspan></text>
    <rect
       style="color:#000000;fill:#ff00ff;fill-opacity:0.11036784;fill-rule:evenodd;stroke:#000000;stroke-width:2;stroke-linecap:butt;stroke-linejoin:miter;stroke-miterlimit:4;stroke-opacity:1;stroke-dasharray:none;stroke-dashoffset:0;marker:none;visibility:visible;display:inline;overflow:visible;enable-background:accumulate"
       id="rect3002"
       width="50"
       height="50"
       x="350.17355"
       y="80.358833" />
    <rect
       style="color:#000000;fill:#008080;fill-opacity:0.11036784;fill-rule:evenodd;stroke:#000000;stroke-width:2;stroke-linecap:butt;stroke-linejoin:miter;stroke-miterlimit:4;stroke-opacity:1;stroke-dasharray:none;stroke-dashoffset:0;marker:none;visibility:visible;display:inline;overflow:visible;enable-background:accumulate"
       id="rect3004"
       width="50"
       height="50"
       x="500.17355"
       y="80.358833" />
    <text
       xml:space="preserve"
       style="font-size:20px;font-style:normal;font-variant:normal;font-weight:normal;font-stretch:normal;text-align:end;line-height:125%;letter-spacing:0px;word-spacing:0px;text-anchor:end;fill:#000000;fill-opacity:1;stroke:none;font-family:URW Palladio L;-inkscape-font-specification:Sans"
       x="380.67355"
       y="112.13883"
       id="text3006"
       sodipodi:linespacing="125%"><tspan
         sodipodi:role="line"
         id="tspan3008"
         x="380.67355"
         y="112.13883">B</tspan></text>
    <text
       xml:space="preserve"
       style="font-size:20px;font-style:normal;font-variant:normal;font-weight:normal;font-stretch:normal;text-align:end;line-height:125%;letter-spacing:0px;word-spacing:0px;text-anchor:end;fill:#000000;fill-opacity:1;stroke:none;font-family:URW Palladio L;-inkscape-font-specification:Sans"
       x="531.6535"
       y="112.13883"
       id="text3010"
       sodipodi:linespacing="125%"><tspan
         sodipodi:role="line"
         id="tspan3012"
         x="531.6535"
         y="112.13883">C</tspan></text>
    <path
       style="fill:none;stroke:#000000;stroke-width:3.54330707;stroke-linecap:butt;stroke-linejoin:miter;stroke-miterlimit:4;stroke-opacity:1;stroke-dasharray:none;marker-end:url(#Arrow1Mend)"
       d="m 250.17355,105.35883 100,0"
       id="path3782"
       inkscape:connector-curvature="0"
       sodipodi:nodetypes="cc" />
    <path
       sodipodi:nodetypes="cc"
       inkscape:connector-curvature="0"
       id="path4598"
       d="m 400.17355,105.35883 100,0"
       style="fill:none;stroke:#000000;stroke-width:3.54330707;stroke-linecap:butt;stroke-linejoin:miter;stroke-miterlimit:4;stroke-opacity:1;stroke-dasharray:none;marker-end:url(#Arrow1Mend)" />
    <path
       sodipodi:nodetypes="cc"
       inkscape:connector-curvature="0"
       id="path4600"
       d="m 100.17354,105.35883 100,0"
       style="fill:none;stroke:#000000;stroke-width:3.54330707;stroke-linecap:butt;stroke-linejoin:miter;stroke-miterlimit:4;stroke-opacity:1;stroke-dasharray:none;marker-end:url(#Arrow1Mend)" />
    <text
       xml:space="preserve"
       style="font-size:20px;font-style:normal;font-variant:normal;font-weight:bold;font-stretch:normal;text-align:center;line-height:125%;letter-spacing:0px;word-spacing:0px;text-anchor:middle;fill:#000000;fill-opacity:1;stroke:none;font-family:URW Palladio L;-inkscape-font-specification:Sans Bold"
       x="69.939011"
       y="112.38883"
       id="text4602"
       sodipodi:linespacing="125%"><tspan
         sodipodi:role="line"
         id="tspan4604"
         x="69.939011"
         y="112.38883">stack</tspan></text>
    <rect
       y="269.47757"
       x="200.33511"
       height="50"
       width="50"
       id="rect4698"
       style="color:#000000;fill:#008080;fill-opacity:0.11036784;fill-rule:evenodd;stroke:#000000;stroke-width:2;stroke-linecap:butt;stroke-linejoin:miter;stroke-miterlimit:4;stroke-opacity:1;stroke-dasharray:none;stroke-dashoffset:0;marker:none;visibility:visible;display:inline;overflow:visible;enable-background:accumulate" />
    <text
       sodipodi:linespacing="125%"
       id="text4704"
       y="301.25757"
       x="231.81506"
       style="font-size:20px;font-style:normal;font-variant:normal;font-weight:normal;font-stretch:normal;text-align:end;line-height:125%;letter-spacing:0px;word-spacing:0px;text-anchor:end;fill:#000000;fill-opacity:1;stroke:none;font-family:URW Palladio L;-inkscape-font-specification:Sans"
       xml:space="preserve"><tspan
         y="301.25757"
         x="231.81506"
         id="tspan4706"
         sodipodi:role="line">C</tspan></text>
    <path
       style="fill:none;stroke:#000000;stroke-width:3.54330707;stroke-linecap:butt;stroke-linejoin:miter;stroke-miterlimit:4;stroke-opacity:1;stroke-dasharray:none;marker-end:url(#Arrow1Mend)"
       d="m 100.17354,294.47756 100,0"
       id="path4712"
       inkscape:connector-curvature="0"
       sodipodi:nodetypes="cc" />
    <text
       sodipodi:linespacing="125%"
       id="text4714"
       y="301.50757"
       x="69.939011"
       style="font-size:20px;font-style:normal;font-variant:normal;font-weight:bold;font-stretch:normal;text-align:center;line-height:125%;letter-spacing:0px;word-spacing:0px;text-anchor:middle;fill:#000000;fill-opacity:1;stroke:none;font-family:URW Palladio L;-inkscape-font-specification:Sans Bold"
       xml:space="preserve"><tspan
         y="301.50757"
         x="69.939011"
         id="tspan4716"
         sodipodi:role="line">stack</tspan></text>
    <rect
       y="333.94839"
       x="200.17354"
       height="50"
       width="50"
       id="rect4718"
       style="color:#000000;fill:#0000ff;fill-opacity:0.11036784;fill-rule:evenodd;stroke:#000000;stroke-width:2;stroke-linecap:butt;stroke-linejoin:miter;stroke-miterlimit:4;stroke-opacity:1;stroke-dasharray:none;stroke-dashoffset:0;marker:none;visibility:visible;display:inline;overflow:visible;enable-background:accumulate" />
    <text
       sodipodi:linespacing="125%"
       id="text4720"
       y="367.14438"
       x="234.02167"
       style="font-size:24px;font-style:normal;font-variant:normal;font-weight:normal;font-stretch:normal;text-align:end;line-height:125%;letter-spacing:0px;word-spacing:0px;text-anchor:end;fill:#000000;fill-opacity:1;stroke:none;font-family:URW Palladio L;-inkscape-font-specification:Sans"
       xml:space="preserve"><tspan
         y="367.14438"
         x="234.02167"
         id="tspan4722"
         sodipodi:role="line">A'</tspan></text>
    <rect
       y="333.94839"
       x="349.56662"
       height="50"
       width="50"
       id="rect4726"
       style="color:#000000;fill:#008080;fill-opacity:0.11036784;fill-rule:evenodd;stroke:#000000;stroke-width:2;stroke-linecap:butt;stroke-linejoin:miter;stroke-miterlimit:4;stroke-opacity:1;stroke-dasharray:none;stroke-dashoffset:0;marker:none;visibility:visible;display:inline;overflow:visible;enable-background:accumulate" />
    <text
       sodipodi:linespacing="125%"
       id="text4732"
       y="365.72839"
       x="381.04657"
       style="font-size:20px;font-style:normal;font-variant:normal;font-weight:normal;font-stretch:normal;text-align:end;line-height:125%;letter-spacing:0px;word-spacing:0px;text-anchor:end;fill:#000000;fill-opacity:1;stroke:none;font-family:URW Palladio L;-inkscape-font-specification:Sans"
       xml:space="preserve"><tspan
         y="365.72839"
         x="381.04657"
         id="tspan4734"
         sodipodi:role="line">C</tspan></text>
    <path
       sodipodi:nodetypes="cc"
       inkscape:connector-curvature="0"
       id="path4736"
       d="m 250.17355,358.9484 100,0"
       style="fill:none;stroke:#000000;stroke-width:3.54330707;stroke-linecap:butt;stroke-linejoin:miter;stroke-miterlimit:4;stroke-opacity:1;stroke-dasharray:none;marker-end:url(#Arrow1Mend)" />
    <path
       style="fill:none;stroke:#000000;stroke-width:3.54330707;stroke-linecap:butt;stroke-linejoin:miter;stroke-miterlimit:4;stroke-opacity:1;stroke-dasharray:none;marker-end:url(#Arrow1Mend)"
       d="m 100.17354,358.9484 100,0"
       id="path4740"
       inkscape:connector-curvature="0"
       sodipodi:nodetypes="cc" />
    <text
       sodipodi:linespacing="125%"
       id="text4742"
       y="365.97839"
       x="69.939011"
       style="font-size:20px;font-style:normal;font-variant:normal;font-weight:bold;font-stretch:normal;text-align:center;line-height:125%;letter-spacing:0px;word-spacing:0px;text-anchor:middle;fill:#000000;fill-opacity:1;stroke:none;font-family:URW Palladio L;-inkscape-font-specification:Sans Bold"
       xml:space="preserve"><tspan
         y="365.97839"
         x="69.939011"
         id="tspan4744"
         sodipodi:role="line">stack</tspan></text>
    <g
       transform="matrix(0.5,0,0,0.5,-141.92107,-19.689171)"
       id="g4806">
      <g
         style="font-style:normal;font-variant:normal;font-weight:normal;font-stretch:normal;letter-spacing:normal;word-spacing:normal;text-anchor:start;fill:none;stroke:#000000;stroke-linecap:butt;stroke-linejoin:miter;stroke-miterlimit:10.43299961;stroke-opacity:1;stroke-dasharray:none;stroke-dashoffset:0"
         id="content"
         transform="matrix(1.0629921,0,0,-1.0629921,-186.02362,789.27165)"
         xml:space="preserve"
         stroke-miterlimit="10.433"
         font-style="normal"
         font-variant="normal"
         font-weight="normal"
         font-stretch="normal"
         font-size-adjust="none"
         letter-spacing="normal"
         word-spacing="normal"><path
           style="fill:#000000;stroke-width:0"
           inkscape:connector-curvature="0"
           d="m 470.91,425.64 0,0.14 0,0.13 -0.01,0.13 -0.01,0.12 -0.01,0.12 -0.01,0.11 -0.01,0.11 -0.02,0.1 -0.02,0.1 -0.03,0.09 -0.03,0.08 -0.03,0.08 -0.04,0.08 -0.04,0.07 -0.05,0.07 -0.05,0.06 -0.06,0.05 -0.06,0.06 -0.06,0.04 -0.07,0.05 -0.08,0.04 -0.09,0.04 -0.09,0.03 -0.09,0.03 -0.11,0.02 -0.1,0.02 -0.12,0.02 -0.12,0.01 -0.14,0.01 -0.13,0.01 -0.15,0.01 -0.08,0 -0.07,0 h -7.08 c -0.75,0 -2.05,0 -2.05,-1.49 0,-1.54 1.3,-1.54 2.05,-1.54 h 5.62 v -15.39 h -6.03 c -0.8,0 -2.03,0 -2.03,-1.55 0,-1.5 1.3,-1.5 2.03,-1.5 h 14.7 c 0.75,0 2.05,0 2.05,1.5 0,1.55 -1.3,1.55 -2.05,1.55 h -5.23 z"
           id="path4809" /><path
           style="fill:#000000;stroke-width:0"
           inkscape:connector-curvature="0"
           d="m 470.91,434.2 0,0.13 -0.01,0.13 -0.02,0.12 -0.02,0.13 -0.03,0.12 -0.03,0.11 -0.04,0.12 -0.04,0.11 -0.05,0.11 -0.06,0.11 -0.06,0.11 -0.06,0.1 -0.07,0.09 -0.07,0.1 -0.08,0.09 -0.08,0.08 -0.09,0.08 -0.09,0.08 -0.09,0.08 -0.1,0.06 -0.1,0.07 -0.1,0.06 -0.11,0.05 -0.11,0.05 -0.11,0.05 -0.12,0.03 -0.12,0.04 -0.12,0.02 -0.12,0.03 -0.13,0.01 -0.12,0.01 -0.13,0 c -1.39,0 -2.5,-1.09 -2.5,-2.48 0,-1.39 1.11,-2.49 2.5,-2.49 1.39,0 2.48,1.1 2.48,2.49 z"
           id="path4811" /><path
           style="fill:#000000;stroke-width:0"
           inkscape:connector-curvature="0"
           d="m 529.8,423.48 0.06,0 0.07,0 0.07,0 0.07,0 0.08,0.01 0.08,0 0.09,0.01 0.09,0.01 0.09,0.01 0.09,0.01 0.09,0.02 0.1,0.02 0.09,0.03 0.1,0.03 0.09,0.03 0.09,0.04 0.09,0.04 0.09,0.05 0.09,0.06 0.08,0.06 0.08,0.06 0.07,0.08 0.04,0.04 0.03,0.04 0.04,0.04 0.03,0.05 0.03,0.05 0.03,0.04 0.02,0.06 0.03,0.05 0.02,0.05 0.02,0.06 0.02,0.06 0.02,0.06 0.02,0.07 0.01,0.06 0.02,0.07 0.01,0.07 0,0.08 0.01,0.07 0,0.08 0,0.08 c 0,1.75 -1.84,1.75 -2.54,1.75 h -17.24 c -0.7,0 -2.54,0 -2.54,-1.75 0,-1.75 1.64,-1.75 2.25,-1.75 z"
           id="path4813" /><path
           style="fill:#000000;stroke-width:0"
           inkscape:connector-curvature="0"
           d="m 529.51,415.92 0.07,0 0.07,0 0.08,0 0.09,0 0.09,0 0.09,0.01 0.1,0.01 0.1,0.01 0.11,0.01 0.1,0.01 0.11,0.02 0.1,0.02 0.11,0.02 0.11,0.03 0.1,0.04 0.11,0.03 0.1,0.05 0.1,0.05 0.09,0.05 0.09,0.06 0.09,0.07 0.09,0.07 0.04,0.04 0.03,0.04 0.04,0.04 0.04,0.05 0.03,0.05 0.03,0.04 0.03,0.06 0.03,0.05 0.03,0.05 0.02,0.06 0.02,0.06 0.02,0.06 0.02,0.06 0.02,0.07 0.01,0.07 0.01,0.07 0.01,0.07 0.01,0.07 0,0.08 0,0.08 c 0,1.75 -1.65,1.75 -2.25,1.75 h -17.82 c -0.61,0 -2.25,0 -2.25,-1.75 0,-1.73 1.84,-1.73 2.54,-1.73 z"
           id="path4815" /><path
           style="fill:#000000;stroke-width:0"
           inkscape:connector-curvature="0"
           d="m 574.7,418.81 0.14,-0.08 0.13,-0.07 0.13,-0.07 0.12,-0.07 0.11,-0.06 0.11,-0.06 0.1,-0.06 0.09,-0.05 0.09,-0.06 0.09,-0.04 0.08,-0.05 0.07,-0.04 0.08,-0.04 0.06,-0.04 0.07,-0.04 0.06,-0.03 0.11,-0.07 0.09,-0.05 0.09,-0.06 0.08,-0.04 0.08,-0.05 0.07,-0.04 0.13,-0.08 0.07,-0.05 0.07,-0.04 0.07,-0.05 0.09,-0.05 0.09,-0.06 0.1,-0.07 0.05,-0.03 0.06,-0.04 0.07,-0.04 0.06,-0.04 0.07,-0.04 0.08,-0.05 0.08,-0.05 0.08,-0.05 0.09,-0.05 0.09,-0.06 0.1,-0.06 0.11,-0.07 0.11,-0.06 0.12,-0.08 0.12,-0.07 0.13,-0.08 0.14,-0.08 0.15,-0.09 0.15,-0.09 0.16,-0.1 c 1.34,-0.8 1.43,-0.8 1.84,-0.8 1,0 1.64,0.91 1.64,1.65 0,0.85 -0.59,1.29 -0.7,1.34 -1.24,0.86 -4.63,2.5 -5.92,3.2 l 5.37,2.94 c 0.61,0.34 1.25,0.69 1.25,1.64 0,0.2 0,1.64 -2,1.64 l -6.17,-3.58 c 0.09,1.28 0.15,4.58 0.15,6.02 0,0.45 0,2.09 -1.65,2.09 -1.64,0 -1.64,-1.64 -1.64,-2.09 0,-1.44 0.04,-4.74 0.16,-6.02 l -5.4,3.13 c -0.68,0.45 -0.79,0.45 -1.14,0.45 -1,0 -1.64,-0.89 -1.64,-1.64 0,-0.95 0.55,-1.25 1.19,-1.59 l 5.44,-2.94 -5.38,-2.94 c -0.61,-0.36 -1.25,-0.65 -1.25,-1.65 0,-0.19 0,-1.65 1.99,-1.65 l 6.19,3.6 c -0.12,-1.3 -0.16,-4.6 -0.16,-6.03 0,-0.46 0,-2.1 1.64,-2.1 1.65,0 1.65,1.64 1.65,2.1 0,1.43 -0.06,4.73 -0.15,6.03 z"
           id="path4817" /><path
           style="fill:#000000;stroke-width:0"
           inkscape:connector-curvature="0"
           d="m 601.15,418.9 -0.21,0.04 -0.21,0.04 -0.41,0.07 -0.41,0.06 -0.41,0.07 -0.21,0.04 -0.21,0.03 -0.21,0.04 -0.21,0.04 -0.22,0.04 -0.22,0.04 -0.23,0.04 -0.23,0.05 c -1.44,0.2 -4.83,0.79 -4.83,2.75 0,1.29 1.6,2.82 6.33,2.82 4.14,0 4.83,-1.48 4.99,-2.78 0.04,-0.84 0.14,-1.7 1.68,-1.7 1.75,0 1.75,1.05 1.75,2.05 v 3.43 c 0,0.8 0,2.05 -1.5,2.05 -1.18,0 -1.39,-0.7 -1.48,-1.05 -2.2,1.05 -4.39,1.05 -5.35,1.05 -8.31,0 -9.45,-4.08 -9.45,-5.87 0,-4.6 5.22,-5.44 9.82,-6.13 2.43,-0.41 6.42,-1.05 6.42,-3.69 0,-1.84 -1.85,-3.5 -6.38,-3.5 -2.34,0 -5.14,0.55 -6.37,4.44 -0.25,0.91 -0.46,1.45 -1.75,1.45 -1.74,0 -1.74,-1.04 -1.74,-2.04 v -4.83 c 0,-0.8 0,-2.05 1.49,-2.05 0.45,0 1.25,0.05 1.84,1.89 2.44,-1.79 5.08,-1.89 6.49,-1.89 7.87,0 9.46,4.14 9.46,6.53 0,5.18 -6.43,6.22 -8.03,6.47 z"
           id="path4819" /><path
           style="fill:#000000;stroke-width:0"
           inkscape:connector-curvature="0"
           d="m 623.53,424.64 h 8.17 c 0.75,0 1.98,0 1.98,1.48 0,1.55 -1.18,1.55 -1.98,1.55 h -8.17 v 4.09 c 0,0.94 0,2.03 -1.71,2.03 -1.73,0 -1.73,-1.03 -1.73,-2.03 v -4.09 h -4.34 c -0.8,0 -2.03,0 -2.03,-1.55 0,-1.48 1.23,-1.48 1.98,-1.48 h 4.39 v -12.16 c 0,-4.78 3.39,-6.58 7.01,-6.58 3.69,0 7.74,2.14 7.74,6.58 0,0.89 0,1.94 -1.75,1.94 -1.64,0 -1.69,-1.05 -1.69,-1.89 -0.06,-3.1 -2.89,-3.6 -4.05,-3.6 -3.82,0 -3.82,2.6 -3.82,3.85 z"
           id="path4821" /><path
           style="fill:#000000;stroke-width:0"
           inkscape:connector-curvature="0"
           d="m 656.85,407.79 0.11,-0.14 0.11,-0.13 0.13,-0.12 0.12,-0.12 0.14,-0.11 0.14,-0.1 0.14,-0.09 0.15,-0.09 0.16,-0.08 0.16,-0.07 0.16,-0.07 0.17,-0.06 0.17,-0.06 0.18,-0.05 0.17,-0.04 0.18,-0.04 0.19,-0.04 0.18,-0.03 0.19,-0.03 0.19,-0.02 0.38,-0.04 0.38,-0.03 0.38,-0.02 0.37,-0.01 0.37,0 0.36,0 c 1.41,0 2.5,0 2.5,1.55 0,1.5 -1.25,1.5 -2,1.5 -2.09,0 -2.59,0.23 -2.98,0.39 v 10.76 c 0,3.53 -2.69,7.72 -9.86,7.72 -2.14,0 -7.24,0 -7.24,-3.64 0,-1.48 1.05,-2.28 2.25,-2.28 0.75,0 2.14,0.44 2.19,2.28 0,0.41 0.05,0.45 1.05,0.55 0.7,0.04 1.34,0.04 1.79,0.04 3.79,0 6.38,-1.53 6.38,-5.07 v -2.94 -4.19 c 0,-1.14 0,-2.19 -1.94,-3.08 -1.8,-0.86 -4.05,-0.86 -4.44,-0.86 -3.09,0 -5.14,1.71 -5.14,3.64 0,2.44 4.3,4.29 11.52,4.49 h 0 V 420 c -8.81,-0.14 -14.96,-2.64 -14.96,-7.43 0,-3.43 3.15,-6.67 8.22,-6.67 1.85,0 4.94,0.35 7.28,1.89 z"
           id="path4823" /><path
           style="fill:#000000;stroke-width:0"
           inkscape:connector-curvature="0"
           d="m 688,411.64 -0.01,0.06 0,0.06 0,0.06 -0.01,0.06 -0.01,0.06 -0.01,0.05 -0.01,0.06 -0.02,0.05 -0.01,0.04 -0.02,0.05 -0.02,0.05 -0.02,0.04 -0.02,0.04 -0.03,0.04 -0.02,0.04 -0.03,0.04 -0.02,0.04 -0.03,0.03 -0.03,0.03 -0.03,0.04 -0.03,0.03 -0.03,0.02 -0.07,0.06 -0.07,0.05 -0.07,0.04 -0.07,0.04 -0.08,0.03 -0.07,0.03 -0.08,0.03 -0.07,0.02 -0.08,0.02 -0.07,0.02 -0.08,0.01 -0.07,0.02 -0.07,0.01 -0.06,0 -0.06,0.01 -0.06,0 -0.05,0 -0.05,0.01 -0.05,0 -0.03,0 -0.02,0 -0.01,0 c -0.8,0 -1.3,-0.11 -1.65,-1.1 -0.29,-0.65 -1.25,-3 -4.93,-3 -4.24,0 -7.82,3.5 -7.82,8.03 0,2.4 1.4,8.11 8.13,8.11 1.03,0 2.99,0 2.99,-0.43 0.04,-1.75 1,-2.44 2.18,-2.44 1.2,0 2.25,0.84 2.25,2.28 0,3.64 -5.18,3.64 -7.42,3.64 -8.58,0 -11.56,-6.78 -11.56,-11.16 0,-5.98 4.67,-11.06 10.95,-11.06 6.92,0 8.63,4.88 8.63,5.74 z"
           id="path4825" /><path
           style="fill:#000000;stroke-width:0"
           inkscape:connector-curvature="0"
           d="m 705.23,418.9 6.12,5.74 h 1.75 c 0.75,0 2.05,0 2.05,1.48 0,1.55 -1.3,1.55 -2.05,1.55 h -7.67 c -0.79,0 -2,0 -2,-1.55 0,-1.48 1.25,-1.48 2,-1.48 h 1.85 l -8.08,-7.58 v 17.53 c 0,1.55 -0.3,2.05 -1.98,2.05 h -3.24 c -0.75,0 -2,0 -2,-1.49 0,-1.54 1.19,-1.54 2,-1.54 h 2.44 v -24.36 h -2.44 c -0.75,0 -2,0 -2,-1.5 0,-1.55 1.19,-1.55 2,-1.55 h 7.67 c 0.74,0 1.99,0 1.99,1.5 0,1.55 -1.19,1.55 -1.99,1.55 h -2.45 v 4.03 l 3.98,3.68 5.94,-7.71 c -1.8,0 -2.8,0 -2.8,-1.55 0,-1.5 1.25,-1.5 2,-1.5 h 5.88 c 0.75,0 2.05,0 2.05,1.5 0,1.55 -1.3,1.55 -2.05,1.55 h -1.55 z"
           id="path4827" /><path
           style="fill:#000000;stroke-width:0"
           inkscape:connector-curvature="0"
           d="m 733.28,424.53 -0.01,0.17 -0.01,0.17 -0.02,0.16 -0.03,0.16 -0.04,0.16 -0.04,0.15 -0.05,0.15 -0.06,0.15 -0.06,0.14 -0.08,0.13 -0.07,0.13 -0.09,0.13 -0.09,0.12 -0.09,0.12 -0.1,0.11 -0.1,0.11 -0.11,0.1 -0.12,0.1 -0.11,0.09 -0.13,0.08 -0.12,0.08 -0.13,0.07 -0.13,0.07 -0.14,0.06 -0.14,0.05 -0.14,0.05 -0.14,0.04 -0.14,0.03 -0.15,0.02 -0.14,0.02 -0.15,0.01 -0.15,0.01 c -1.91,0 -3.14,-1.55 -3.14,-3.08 0,-1.84 1.48,-3.14 3.08,-3.14 1.9,0 3.14,1.55 3.14,3.08 z"
           id="path4829" /><path
           style="fill:#000000;stroke-width:0"
           inkscape:connector-curvature="0"
           d="m 730.34,406.2 -0.06,-0.25 -0.07,-0.23 -0.08,-0.23 -0.08,-0.22 -0.09,-0.21 -0.1,-0.2 -0.09,-0.19 -0.11,-0.18 -0.1,-0.17 -0.11,-0.17 -0.12,-0.15 -0.11,-0.15 -0.12,-0.15 -0.12,-0.13 -0.12,-0.13 -0.12,-0.12 -0.12,-0.11 -0.12,-0.11 -0.12,-0.1 -0.12,-0.09 -0.12,-0.09 -0.12,-0.09 -0.11,-0.07 -0.11,-0.08 -0.11,-0.06 -0.1,-0.07 -0.11,-0.05 -0.09,-0.06 -0.09,-0.05 -0.09,-0.04 -0.08,-0.04 -0.07,-0.04 c -0.3,-0.16 -1,-0.5 -1,-1.3 0,-0.75 0.75,-1.59 1.59,-1.59 1.1,0 5.88,2.68 5.88,8.26 0,3.3 -1.49,4.89 -3.39,4.89 -1.79,0 -3.08,-1.4 -3.08,-3.09 0,-1.39 0.84,-3.14 3.28,-3.14 z"
           id="path4831" /></g>    </g>
    <rect
       y="207.21349"
       x="200.25433"
       height="50"
       width="50"
       id="rect4612"
       style="color:#000000;fill:#ff00ff;fill-opacity:0.11036784;fill-rule:evenodd;stroke:#000000;stroke-width:2;stroke-linecap:butt;stroke-linejoin:miter;stroke-miterlimit:4;stroke-opacity:1;stroke-dasharray:none;stroke-dashoffset:0;marker:none;visibility:visible;display:inline;overflow:visible;enable-background:accumulate" />
    <rect
       y="205.10031"
       x="350.25433"
       height="50"
       width="50"
       id="rect4614"
       style="color:#000000;fill:#008080;fill-opacity:0.11036784;fill-rule:evenodd;stroke:#000000;stroke-width:2;stroke-linecap:butt;stroke-linejoin:miter;stroke-miterlimit:4;stroke-opacity:1;stroke-dasharray:none;stroke-dashoffset:0;marker:none;visibility:visible;display:inline;overflow:visible;enable-background:accumulate" />
    <text
       sodipodi:linespacing="125%"
       id="text4616"
       y="238.99348"
       x="230.75433"
       style="font-size:20px;font-style:normal;font-variant:normal;font-weight:normal;font-stretch:normal;text-align:end;line-height:125%;letter-spacing:0px;word-spacing:0px;text-anchor:end;fill:#000000;fill-opacity:1;stroke:none;font-family:URW Palladio L;-inkscape-font-specification:Sans"
       xml:space="preserve"><tspan
         y="238.99348"
         x="230.75433"
         id="tspan4618"
         sodipodi:role="line">B</tspan></text>
    <text
       sodipodi:linespacing="125%"
       id="text4620"
       y="236.88031"
       x="381.73428"
       style="font-size:20px;font-style:normal;font-variant:normal;font-weight:normal;font-stretch:normal;text-align:end;line-height:125%;letter-spacing:0px;word-spacing:0px;text-anchor:end;fill:#000000;fill-opacity:1;stroke:none;font-family:URW Palladio L;-inkscape-font-specification:Sans"
       xml:space="preserve"><tspan
         y="236.88031"
         x="381.73428"
         id="tspan4622"
         sodipodi:role="line">C</tspan></text>
    <path
       style="fill:none;stroke:#000000;stroke-width:3.54330707;stroke-linecap:butt;stroke-linejoin:miter;stroke-miterlimit:4;stroke-opacity:1;stroke-dasharray:none;marker-end:url(#Arrow1Mend)"
       d="m 250.25433,232.21348 100,0"
       id="path4626"
       inkscape:connector-curvature="0"
       sodipodi:nodetypes="cc" />
    <path
       style="fill:none;stroke:#000000;stroke-width:3.54330707;stroke-linecap:butt;stroke-linejoin:miter;stroke-miterlimit:4;stroke-opacity:1;stroke-dasharray:none;marker-end:url(#Arrow1Mend)"
       d="m 100.17354,232.21348 100,0"
       id="path4628"
       inkscape:connector-curvature="0"
       sodipodi:nodetypes="cc" />
    <g
       id="g4992"
       transform="matrix(0.5,0,0,0.5,-140.69863,12.815019)">
      <g
         word-spacing="normal"
         letter-spacing="normal"
         font-size-adjust="none"
         font-stretch="normal"
         font-weight="normal"
         font-variant="normal"
         font-style="normal"
         stroke-miterlimit="10.433"
         xml:space="preserve"
         transform="matrix(1.0629921,0,0,-1.0629921,-186.02362,789.27165)"
         id="g4994"
         style="font-style:normal;font-variant:normal;font-weight:normal;font-stretch:normal;letter-spacing:normal;word-spacing:normal;text-anchor:start;fill:none;stroke:#000000;stroke-linecap:butt;stroke-linejoin:miter;stroke-miterlimit:10.43299961;stroke-opacity:1;stroke-dasharray:none;stroke-dashoffset:0"><path
           id="path4996"
           d="m 466.58,415.46 0.01,0.44 0.03,0.44 0.04,0.44 0.06,0.44 0.08,0.43 0.09,0.43 0.12,0.42 0.13,0.42 0.14,0.41 0.17,0.41 0.18,0.39 0.2,0.39 0.22,0.38 0.23,0.36 0.25,0.36 0.27,0.34 0.29,0.32 0.31,0.32 0.32,0.29 0.34,0.28 0.36,0.27 0.38,0.24 0.39,0.23 0.42,0.2 0.43,0.19 0.44,0.16 0.47,0.14 0.48,0.12 0.51,0.09 0.52,0.07 0.53,0.04 0.56,0.01 c 0.05,-1.2 0.89,-2.18 2.14,-2.18 1.1,0 2.1,0.79 2.1,2.14 0,0.98 -0.6,3.07 -4.74,3.07 -2.55,0 -5.73,-0.89 -8.47,-4.03 v 1.71 c 0,1.53 -0.29,2.03 -2,2.03 h -5.47 c -0.75,0 -2,0 -2,-1.49 0,-1.54 1.21,-1.54 2,-1.54 h 4.03 v -15.39 h -4.03 c -0.75,0 -2,0 -2,-1.5 0,-1.55 1.21,-1.55 2,-1.55 h 13 c 0.75,0 2.05,0 2.05,1.5 0,1.55 -1.3,1.55 -2.05,1.55 h -5.53 z"
           inkscape:connector-curvature="0"
           style="fill:#000000;stroke-width:0" /><path
           id="path4998"
           d="m 502.8,415.71 0.2,0.01 0.19,0 0.09,0 0.09,0.01 0.09,0 0.09,0.01 0.09,0.02 0.09,0.01 0.08,0.02 0.08,0.02 0.08,0.03 0.07,0.03 0.08,0.03 0.07,0.05 0.06,0.04 0.07,0.05 0.06,0.06 0.05,0.07 0.06,0.07 0.02,0.03 0.03,0.04 0.02,0.05 0.02,0.04 0.02,0.05 0.02,0.04 0.02,0.05 0.02,0.05 0.02,0.06 0.01,0.05 0.02,0.06 0.01,0.06 0.01,0.07 0.01,0.06 0.01,0.07 0.01,0.07 0.01,0.07 0,0.07 0.01,0.08 0,0.08 0,0.08 0.01,0.09 c 0,5.67 -3.19,10.56 -9.66,10.56 -5.94,0 -10.72,-4.98 -10.72,-11.11 0,-6.08 5.03,-11.11 11.47,-11.11 6.58,0 8.91,4.49 8.91,5.74 0,1.39 -1.44,1.39 -1.74,1.39 -0.89,0 -1.3,-0.16 -1.64,-1.1 -1.09,-2.54 -3.8,-3 -5.19,-3 -3.73,0 -7.47,2.5 -8.26,6.78 l 0.04,2.99 c 0.71,3.64 3.64,6.37 7.13,6.37 2.59,0 5.67,-1.23 6.12,-6.37 H 488 l -0.04,-2.99 z"
           inkscape:connector-curvature="0"
           style="fill:#000000;stroke-width:0" /><path
           id="path5000"
           d="m 514.96,413.23 0.02,-0.01 0.03,-0.02 0.04,-0.03 0.04,-0.02 0.06,-0.04 0.07,-0.04 0.08,-0.04 0.08,-0.04 0.09,-0.05 0.11,-0.05 0.1,-0.05 0.12,-0.05 0.13,-0.06 0.13,-0.05 0.14,-0.06 0.14,-0.06 0.16,-0.05 0.16,-0.06 0.16,-0.05 0.17,-0.05 0.18,-0.05 0.18,-0.05 0.19,-0.05 0.19,-0.04 0.2,-0.04 0.21,-0.03 0.2,-0.03 0.22,-0.03 0.21,-0.02 0.22,-0.02 0.22,-0.01 0.23,0 v 2.98 c -2.69,0 -4.78,2.35 -4.78,4.99 0,2.84 2.19,5.03 4.78,5.03 2.69,0 4.78,-2.34 4.78,-4.98 0,-2.85 -2.19,-5.04 -4.78,-5.04 h 0 v -2.98 c 4.58,0 8.22,3.58 8.22,8.02 0,1.5 -0.45,2.93 -1.3,4.34 1.05,0.59 2.25,0.8 2.89,0.84 0.3,-1.34 1.46,-1.7 1.94,-1.7 0.86,0 2,0.61 2,2.05 0,1.15 -0.95,2.68 -3.64,2.68 -0.55,0 -2.98,-0.04 -5.28,-1.73 -0.8,0.55 -2.53,1.48 -4.83,1.48 -4.69,0 -8.22,-3.73 -8.22,-7.96 0,-2.14 0.85,-3.79 1.6,-4.74 -0.55,-0.8 -1,-1.89 -1,-3.39 0,-1.73 0.7,-2.98 1.14,-3.58 -3.69,-2.25 -3.69,-5.62 -3.69,-6.17 0,-4.3 5.23,-7.33 11.61,-7.33 6.39,0 11.61,3.1 11.61,7.33 h -2.89 c 0,-2.2 -3.74,-4.34 -8.72,-4.34 h 0 c -4.97,0 -8.72,2.14 -8.72,4.34 0,0.89 0.45,2.49 2.05,3.49 1.25,0.79 1.7,0.79 5.32,0.79 4.44,0 10.07,0 10.07,-4.28 h 2.89 c 0,1.84 -0.89,4.33 -3.44,5.67 -0.64,0.35 -2.73,1.46 -7.22,1.46 h -3.48 c -0.41,0 -1.05,0 -1.45,0.09 -0.75,0 -1.05,0 -1.65,0.7 -0.54,0.69 -0.59,1.69 -0.59,1.78 0,0.21 0.09,0.91 0.3,1.41 z"
           inkscape:connector-curvature="0"
           style="fill:#000000;stroke-width:0" /><path
           id="path5002"
           d="m 595.9,417.65 0.17,0 0.17,0 0.16,0.01 0.09,0 0.08,0.01 0.07,0 0.08,0.01 0.08,0.01 0.07,0.01 0.07,0.02 0.07,0.02 0.07,0.02 0.06,0.02 0.06,0.02 0.06,0.03 0.06,0.03 0.05,0.04 0.05,0.03 0.04,0.05 0.05,0.04 0.04,0.05 0.03,0.06 0.02,0.03 0.01,0.03 0.01,0.03 0.02,0.03 0.01,0.04 0.01,0.03 0.01,0.04 0.01,0.04 0,0.04 0.01,0.04 0,0.04 0.01,0.04 0,0.05 0,0.04 c 0,1 -0.89,1 -1.8,1 h -37.01 c 2.73,2.1 4.09,4.14 4.48,4.78 2.25,3.44 2.64,6.58 2.64,6.63 0,0.59 -0.59,0.59 -1,0.59 -0.84,0 -0.89,-0.09 -1.09,-0.98 -1.14,-4.89 -4.08,-9.03 -9.72,-11.36 -0.55,-0.2 -0.73,-0.31 -0.73,-0.66 0,-0.34 0.25,-0.45 0.73,-0.64 5.19,-2.14 8.53,-6.03 9.77,-11.61 0.15,-0.61 0.2,-0.75 1.04,-0.75 0.41,0 1,0 1,0.6 0,0.11 -0.45,3.23 -2.54,6.57 -0.99,1.5 -2.44,3.24 -4.58,4.83 z"
           inkscape:connector-curvature="0"
           style="fill:#000000;stroke-width:0" /><path
           id="path5004"
           d="m 632.42,425.64 0,0.14 -0.01,0.13 0,0.13 -0.01,0.12 -0.01,0.12 -0.01,0.11 -0.02,0.11 -0.01,0.1 -0.03,0.1 -0.02,0.09 -0.03,0.08 -0.03,0.08 -0.04,0.08 -0.04,0.07 -0.05,0.07 -0.05,0.06 -0.06,0.05 -0.06,0.06 -0.06,0.04 -0.08,0.05 -0.07,0.04 -0.09,0.04 -0.09,0.03 -0.09,0.03 -0.11,0.02 -0.11,0.02 -0.11,0.02 -0.13,0.01 -0.13,0.01 -0.14,0.01 -0.14,0.01 -0.08,0 -0.08,0 h -7.08 c -0.75,0 -2.04,0 -2.04,-1.49 0,-1.54 1.29,-1.54 2.04,-1.54 h 5.63 v -15.39 h -6.03 c -0.8,0 -2.03,0 -2.03,-1.55 0,-1.5 1.3,-1.5 2.03,-1.5 h 14.7 c 0.75,0 2.05,0 2.05,1.5 0,1.55 -1.3,1.55 -2.05,1.55 h -5.23 z"
           inkscape:connector-curvature="0"
           style="fill:#000000;stroke-width:0" /><path
           id="path5006"
           d="m 632.42,434.2 -0.01,0.13 0,0.13 -0.02,0.12 -0.02,0.13 -0.03,0.12 -0.03,0.11 -0.04,0.12 -0.04,0.11 -0.05,0.11 -0.06,0.11 -0.06,0.11 -0.06,0.1 -0.07,0.09 -0.07,0.1 -0.08,0.09 -0.08,0.08 -0.09,0.08 -0.09,0.08 -0.09,0.08 -0.1,0.06 -0.1,0.07 -0.1,0.06 -0.11,0.05 -0.11,0.05 -0.11,0.05 -0.12,0.03 -0.12,0.04 -0.12,0.02 -0.12,0.03 -0.13,0.01 -0.13,0.01 -0.13,0 c -1.39,0 -2.5,-1.09 -2.5,-2.48 0,-1.39 1.11,-2.49 2.5,-2.49 1.39,0 2.49,1.1 2.49,2.49 z"
           inkscape:connector-curvature="0"
           style="fill:#000000;stroke-width:0" /><path
           id="path5008"
           d="m 664.15,419.7 0.06,0 0.07,0 0.07,0 0.08,0 0.08,0.01 0.08,0 0.09,0.01 0.1,0.01 0.09,0.01 0.1,0.01 0.09,0.02 0.1,0.02 0.1,0.03 0.1,0.03 0.1,0.03 0.09,0.04 0.1,0.04 0.09,0.05 0.09,0.06 0.09,0.06 0.08,0.06 0.08,0.08 0.03,0.04 0.04,0.04 0.03,0.04 0.04,0.05 0.03,0.04 0.03,0.05 0.03,0.05 0.02,0.06 0.03,0.05 0.02,0.06 0.02,0.06 0.02,0.06 0.02,0.07 0.01,0.06 0.02,0.07 0.01,0.07 0,0.07 0.01,0.08 0,0.08 0.01,0.08 c 0,1.73 -1.74,1.73 -2.35,1.73 h -15.84 c -0.59,0 -2.33,0 -2.33,-1.73 0,-1.75 1.74,-1.75 2.33,-1.75 z"
           inkscape:connector-curvature="0"
           style="fill:#000000;stroke-width:0" /><path
           id="path5010"
           d="m 691.56,419.79 0.09,0.06 0.09,0.06 0.09,0.07 0.09,0.07 0.09,0.07 0.05,0.04 0.04,0.04 0.05,0.04 0.04,0.05 0.04,0.04 0.05,0.05 0.04,0.05 0.03,0.05 0.04,0.05 0.04,0.06 0.03,0.06 0.03,0.06 0.03,0.06 0.02,0.06 0.03,0.07 0.02,0.07 0.02,0.07 0.01,0.08 0.02,0.08 0,0.08 0.01,0.08 0,0.09 c 0,0.64 -0.39,1.19 -0.89,1.55 l -16.59,10.4 c -0.7,0.46 -0.85,0.5 -1.3,0.5 -0.8,0 -1.73,-0.59 -1.73,-1.75 0,-0.94 0.64,-1.34 1.18,-1.69 l 14.3,-9.01 -14.3,-9.02 c -0.54,-0.36 -1.18,-0.75 -1.18,-1.7 0,-1.14 0.93,-1.73 1.73,-1.73 0.45,0 0.6,0.04 1.3,0.48 z"
           inkscape:connector-curvature="0"
           style="fill:#000000;stroke-width:0" /><path
           id="path5012"
           d="m 703.76,425.32 0,0.15 0,0.14 0,0.14 0,0.13 -0.01,0.13 0,0.12 -0.01,0.12 -0.01,0.11 -0.01,0.11 -0.02,0.1 -0.02,0.1 -0.02,0.1 -0.03,0.09 -0.03,0.08 -0.04,0.08 -0.05,0.07 -0.05,0.07 -0.05,0.07 -0.06,0.06 -0.07,0.06 -0.08,0.05 -0.08,0.05 -0.05,0.02 -0.05,0.02 -0.04,0.02 -0.06,0.02 -0.05,0.01 -0.05,0.02 -0.06,0.01 -0.06,0.02 -0.07,0.01 -0.06,0.01 -0.07,0.01 -0.07,0.01 -0.07,0.01 -0.08,0.01 -0.07,0 -0.08,0.01 -0.09,0 -0.08,0.01 -0.09,0 -0.09,0 h -3.64 c -0.8,0 -2.05,0 -2.05,-1.55 0,-1.48 1.3,-1.48 2,-1.48 h 2.23 v -15.39 h -2.18 c -0.8,0 -2.05,0 -2.05,-1.55 0,-1.5 1.3,-1.5 2,-1.5 h 7.92 c 0.69,0 1.99,0 1.99,1.5 0,1.55 -1.24,1.55 -2.03,1.55 h -2.21 v 8.81 c 0,4.98 3.69,6.87 6.24,6.87 2.64,0 3.34,-1.39 3.34,-4.39 v -11.29 h -1.95 c -0.8,0 -2.05,0 -2.05,-1.55 0,-1.5 1.36,-1.5 2.05,-1.5 h 7.62 c 0.71,0 2,0 2,1.5 0,1.55 -1.25,1.55 -2.04,1.55 h -2.19 v 11.54 c 0,5.03 -2.55,7.17 -6.49,7.17 -3.34,0 -5.57,-1.68 -6.53,-2.64 z"
           inkscape:connector-curvature="0"
           style="fill:#ff00ff;stroke-width:0;fill-opacity:1" /><path
           id="path5014"
           d="m 742.78,415.71 0.19,0.01 0.19,0 0.1,0 0.09,0.01 0.09,0 0.09,0.01 0.09,0.02 0.08,0.01 0.08,0.02 0.09,0.02 0.07,0.03 0.08,0.03 0.07,0.03 0.07,0.05 0.07,0.04 0.06,0.05 0.06,0.06 0.06,0.07 0.05,0.07 0.03,0.03 0.02,0.04 0.03,0.05 0.02,0.04 0.02,0.05 0.02,0.04 0.02,0.05 0.02,0.05 0.01,0.06 0.02,0.05 0.01,0.06 0.02,0.06 0.01,0.07 0.01,0.06 0.01,0.07 0.01,0.07 0.01,0.07 0,0.07 0.01,0.08 0,0.08 0,0.08 0,0.09 c 0,5.67 -3.19,10.56 -9.66,10.56 -5.93,0 -10.71,-4.98 -10.71,-11.11 0,-6.08 5.03,-11.11 11.46,-11.11 6.58,0 8.91,4.49 8.91,5.74 0,1.39 -1.44,1.39 -1.73,1.39 -0.89,0 -1.3,-0.16 -1.64,-1.1 -1.1,-2.54 -3.8,-3 -5.19,-3 -3.73,0 -7.47,2.5 -8.27,6.78 l 0.05,2.99 c 0.7,3.64 3.64,6.37 7.12,6.37 2.6,0 5.68,-1.23 6.13,-6.37 h -13.25 l -0.05,-2.99 z"
           inkscape:connector-curvature="0"
           style="fill:#ff00ff;stroke-width:0;fill-opacity:1" /><path
           id="path5016"
           d="m 762.1,417.26 5.69,7.38 h 1.99 c 0.7,0 2.04,0 2.04,1.48 0,1.55 -1.29,1.55 -2.04,1.55 h -5.83 c -0.75,0 -1.98,0 -1.98,-1.49 0,-1.54 1.09,-1.54 2.43,-1.54 l -3.68,-5.03 -3.79,5.03 c 1.29,0 2.39,0 2.39,1.54 0,1.49 -1.25,1.49 -2,1.49 h -5.82 c -0.75,0 -2.05,0 -2.05,-1.55 0,-1.48 1.34,-1.48 2.05,-1.48 h 1.98 l 5.89,-7.38 -6.19,-8.01 h -1.98 c -0.75,0 -2.05,0 -2.05,-1.55 0,-1.5 1.35,-1.5 2.05,-1.5 h 5.83 c 0.75,0 1.98,0 1.98,1.5 0,1.55 -1.04,1.55 -2.58,1.55 l 4.29,6.12 4.43,-6.12 c -1.4,0 -2.5,0 -2.5,-1.55 0,-1.5 1.25,-1.5 2,-1.5 h 5.83 c 0.69,0 2.05,0 2.05,1.5 0,1.55 -1.3,1.55 -2.05,1.55 h -2 z"
           inkscape:connector-curvature="0"
           style="fill:#ff00ff;stroke-width:0;fill-opacity:1" /><path
           id="path5018"
           d="m 785.03,424.64 h 8.17 c 0.75,0 1.98,0 1.98,1.48 0,1.55 -1.18,1.55 -1.98,1.55 h -8.17 v 4.09 c 0,0.94 0,2.03 -1.71,2.03 -1.73,0 -1.73,-1.03 -1.73,-2.03 v -4.09 h -4.34 c -0.8,0 -2.03,0 -2.03,-1.55 0,-1.48 1.23,-1.48 1.98,-1.48 h 4.39 v -12.16 c 0,-4.78 3.39,-6.58 7.01,-6.58 3.69,0 7.74,2.14 7.74,6.58 0,0.89 0,1.94 -1.75,1.94 -1.64,0 -1.69,-1.05 -1.69,-1.89 -0.06,-3.1 -2.89,-3.6 -4.05,-3.6 -3.82,0 -3.82,2.6 -3.82,3.85 z"
           inkscape:connector-curvature="0"
           style="fill:#ff00ff;stroke-width:0;fill-opacity:1" /></g>    </g>
    <path
       style="fill:none;stroke:#000000;stroke-width:3.54330707;stroke-linecap:butt;stroke-linejoin:miter;stroke-miterlimit:4;stroke-opacity:1;stroke-dasharray:none;marker-end:url(#Arrow1Mend)"
       d="m 251.5017,294.48818 100,0"
       id="path5250"
       inkscape:connector-curvature="0"
       sodipodi:nodetypes="cc" />
    <g
       transform="matrix(0.5,0,0,0.5,211.17088,123.54661)"
       id="g5333">
      <g
         style="font-style:normal;font-variant:normal;font-weight:normal;font-stretch:normal;letter-spacing:normal;word-spacing:normal;text-anchor:start;fill:none;stroke:#000000;stroke-linecap:butt;stroke-linejoin:miter;stroke-miterlimit:10.43299961;stroke-opacity:1;stroke-dasharray:none;stroke-dashoffset:0"
         id="g5335"
         transform="matrix(1.0629921,0,0,-1.0629921,-186.02362,789.27165)"
         xml:space="preserve"
         stroke-miterlimit="10.433"
         font-style="normal"
         font-variant="normal"
         font-weight="normal"
         font-stretch="normal"
         font-size-adjust="none"
         letter-spacing="normal"
         word-spacing="normal"><path
           style="fill:#000000;stroke-width:0"
           inkscape:connector-curvature="0"
           d="m 464.99,434.84 -0.06,0.15 -0.06,0.14 -0.05,0.14 -0.06,0.12 -0.06,0.12 -0.07,0.11 -0.06,0.1 -0.06,0.1 -0.07,0.09 -0.07,0.08 -0.07,0.08 -0.07,0.07 -0.07,0.06 -0.08,0.06 -0.07,0.05 -0.08,0.05 -0.09,0.04 -0.08,0.04 -0.09,0.04 -0.08,0.03 -0.1,0.02 -0.09,0.02 -0.1,0.02 -0.1,0.02 -0.1,0.01 -0.1,0.01 -0.11,0.01 -0.11,0.01 -0.12,0 -0.11,0.01 -0.12,0 -0.13,0 h -3.39 c -0.75,0 -2,0 -2,-1.49 0,-1.54 1.2,-1.54 2,-1.54 h 1.25 v -24.36 h -1.25 c -0.75,0 -2,0 -2,-1.5 0,-1.55 1.2,-1.55 2,-1.55 h 5.28 c 0.75,0 1.99,0 1.99,1.5 0,1.55 -1.19,1.55 -1.99,1.55 h -1.25 v 23.65 h 0.05 l 9.17,-24.9 c 0.64,-1.75 1.44,-1.8 2.73,-1.8 1.5,0 2.1,0.16 2.1,2.05 v 25.36 h 1.25 c 0.75,0 2,0 2,1.48 0,1.55 -1.2,1.55 -2,1.55 h -5.28 c -0.8,0 -2,0 -2,-1.55 0,-1.48 1.25,-1.48 2,-1.48 h 1.25 v -23.68 h -0.05 z"
           id="path5337" /><path
           style="fill:#000000;stroke-width:0"
           inkscape:connector-curvature="0"
           d="m 504.05,433.61 h 1.49 c 0.79,0 2.04,0 2.04,1.54 0,1.49 -1.29,1.49 -2.04,1.49 h -6.43 c -0.75,0 -2.04,0 -2.04,-1.49 0,-1.54 1.29,-1.54 2.04,-1.54 h 1.5 v -17 c 0,-5.33 -3.29,-7.93 -5.89,-7.93 -2.64,0 -5.87,2.6 -5.87,7.93 v 17 h 1.5 c 0.75,0 2.04,0 2.04,1.54 0,1.49 -1.29,1.49 -2.04,1.49 h -6.44 c -0.73,0 -2.03,0 -2.03,-1.49 0,-1.54 1.3,-1.54 2.03,-1.54 h 1.5 v -17.25 c 0,-6.13 4.34,-10.71 9.31,-10.71 4.99,0 9.33,4.58 9.33,10.71 z"
           id="path5339" /><path
           style="fill:#000000;stroke-width:0"
           inkscape:connector-curvature="0"
           d="m 516.71,433.61 h 2.78 c 0.7,0 2.04,0 2.04,1.48 0,1.55 -1.29,1.55 -2.04,1.55 h -8.06 c -0.8,0 -2,0 -2,-1.55 0,-1.48 1.25,-1.48 2,-1.48 h 1.84 v -24.36 h -1.84 c -0.8,0 -2,0 -2,-1.55 0,-1.5 1.25,-1.5 2,-1.5 h 18.72 c 1.65,0 2,0.45 2,2.05 v 4.43 c 0,0.99 0,2.03 -1.69,2.03 -1.75,0 -1.75,-1 -1.75,-2.03 v -3.43 h -12 z"
           id="path5341" /><path
           style="fill:#000000;stroke-width:0"
           inkscape:connector-curvature="0"
           d="m 542.86,433.61 h 2.79 c 0.7,0 2.04,0 2.04,1.48 0,1.55 -1.29,1.55 -2.04,1.55 h -8.07 c -0.8,0 -2,0 -2,-1.55 0,-1.48 1.25,-1.48 2,-1.48 h 1.85 v -24.36 h -1.85 c -0.8,0 -2,0 -2,-1.55 0,-1.5 1.25,-1.5 2,-1.5 h 18.72 c 1.66,0 2,0.45 2,2.05 v 4.43 c 0,0.99 0,2.03 -1.69,2.03 -1.75,0 -1.75,-1 -1.75,-2.03 v -3.43 h -12 z"
           id="path5343" /></g>    </g>
    <path
       sodipodi:nodetypes="cc"
       inkscape:connector-curvature="0"
       id="path5430"
       d="m 402.15263,232.05402 100,0"
       style="fill:none;stroke:#000000;stroke-width:3.54330707;stroke-linecap:butt;stroke-linejoin:miter;stroke-miterlimit:4;stroke-opacity:1;stroke-dasharray:none;marker-end:url(#Arrow1Mend)" />
    <g
       id="g5432"
       transform="matrix(0.5,0,0,0.5,361.82181,61.11245)">
      <g
         word-spacing="normal"
         letter-spacing="normal"
         font-size-adjust="none"
         font-stretch="normal"
         font-weight="normal"
         font-variant="normal"
         font-style="normal"
         stroke-miterlimit="10.433"
         xml:space="preserve"
         transform="matrix(1.0629921,0,0,-1.0629921,-186.02362,789.27165)"
         id="g5434"
         style="font-style:normal;font-variant:normal;font-weight:normal;font-stretch:normal;letter-spacing:normal;word-spacing:normal;text-anchor:start;fill:none;stroke:#000000;stroke-linecap:butt;stroke-linejoin:miter;stroke-miterlimit:10.43299961;stroke-opacity:1;stroke-dasharray:none;stroke-dashoffset:0"><path
           id="path5436"
           d="m 464.99,434.84 -0.06,0.15 -0.06,0.14 -0.05,0.14 -0.06,0.12 -0.06,0.12 -0.07,0.11 -0.06,0.1 -0.06,0.1 -0.07,0.09 -0.07,0.08 -0.07,0.08 -0.07,0.07 -0.07,0.06 -0.08,0.06 -0.07,0.05 -0.08,0.05 -0.09,0.04 -0.08,0.04 -0.09,0.04 -0.08,0.03 -0.1,0.02 -0.09,0.02 -0.1,0.02 -0.1,0.02 -0.1,0.01 -0.1,0.01 -0.11,0.01 -0.11,0.01 -0.12,0 -0.11,0.01 -0.12,0 -0.13,0 h -3.39 c -0.75,0 -2,0 -2,-1.49 0,-1.54 1.2,-1.54 2,-1.54 h 1.25 v -24.36 h -1.25 c -0.75,0 -2,0 -2,-1.5 0,-1.55 1.2,-1.55 2,-1.55 h 5.28 c 0.75,0 1.99,0 1.99,1.5 0,1.55 -1.19,1.55 -1.99,1.55 h -1.25 v 23.65 h 0.05 l 9.17,-24.9 c 0.64,-1.75 1.44,-1.8 2.73,-1.8 1.5,0 2.1,0.16 2.1,2.05 v 25.36 h 1.25 c 0.75,0 2,0 2,1.48 0,1.55 -1.2,1.55 -2,1.55 h -5.28 c -0.8,0 -2,0 -2,-1.55 0,-1.48 1.25,-1.48 2,-1.48 h 1.25 v -23.68 h -0.05 z"
           inkscape:connector-curvature="0"
           style="fill:#000000;stroke-width:0" /><path
           id="path5438"
           d="m 504.05,433.61 h 1.49 c 0.79,0 2.04,0 2.04,1.54 0,1.49 -1.29,1.49 -2.04,1.49 h -6.43 c -0.75,0 -2.04,0 -2.04,-1.49 0,-1.54 1.29,-1.54 2.04,-1.54 h 1.5 v -17 c 0,-5.33 -3.29,-7.93 -5.89,-7.93 -2.64,0 -5.87,2.6 -5.87,7.93 v 17 h 1.5 c 0.75,0 2.04,0 2.04,1.54 0,1.49 -1.29,1.49 -2.04,1.49 h -6.44 c -0.73,0 -2.03,0 -2.03,-1.49 0,-1.54 1.3,-1.54 2.03,-1.54 h 1.5 v -17.25 c 0,-6.13 4.34,-10.71 9.31,-10.71 4.99,0 9.33,4.58 9.33,10.71 z"
           inkscape:connector-curvature="0"
           style="fill:#000000;stroke-width:0" /><path
           id="path5440"
           d="m 516.71,433.61 h 2.78 c 0.7,0 2.04,0 2.04,1.48 0,1.55 -1.29,1.55 -2.04,1.55 h -8.06 c -0.8,0 -2,0 -2,-1.55 0,-1.48 1.25,-1.48 2,-1.48 h 1.84 v -24.36 h -1.84 c -0.8,0 -2,0 -2,-1.55 0,-1.5 1.25,-1.5 2,-1.5 h 18.72 c 1.65,0 2,0.45 2,2.05 v 4.43 c 0,0.99 0,2.03 -1.69,2.03 -1.75,0 -1.75,-1 -1.75,-2.03 v -3.43 h -12 z"
           inkscape:connector-curvature="0"
           style="fill:#000000;stroke-width:0" /><path
           id="path5442"
           d="m 542.86,433.61 h 2.79 c 0.7,0 2.04,0 2.04,1.48 0,1.55 -1.29,1.55 -2.04,1.55 h -8.07 c -0.8,0 -2,0 -2,-1.55 0,-1.48 1.25,-1.48 2,-1.48 h 1.85 v -24.36 h -1.85 c -0.8,0 -2,0 -2,-1.55 0,-1.5 1.25,-1.5 2,-1.5 h 18.72 c 1.66,0 2,0.45 2,2.05 v 4.43 c 0,0.99 0,2.03 -1.69,2.03 -1.75,0 -1.75,-1 -1.75,-2.03 v -3.43 h -12 z"
           inkscape:connector-curvature="0"
           style="fill:#000000;stroke-width:0" /></g>    </g>
    <path
       style="fill:none;stroke:#000000;stroke-width:3.54330707;stroke-linecap:butt;stroke-linejoin:miter;stroke-miterlimit:4;stroke-opacity:1;stroke-dasharray:none;marker-end:url(#Arrow1Mend)"
       d="m 400.17355,359.24175 100,0"
       id="path5444"
       inkscape:connector-curvature="0"
       sodipodi:nodetypes="cc" />
    <g
       transform="matrix(0.5,0,0,0.5,359.84273,188.30017)"
       id="g5446">
      <g
         style="font-style:normal;font-variant:normal;font-weight:normal;font-stretch:normal;letter-spacing:normal;word-spacing:normal;text-anchor:start;fill:none;stroke:#000000;stroke-linecap:butt;stroke-linejoin:miter;stroke-miterlimit:10.43299961;stroke-opacity:1;stroke-dasharray:none;stroke-dashoffset:0"
         id="g5448"
         transform="matrix(1.0629921,0,0,-1.0629921,-186.02362,789.27165)"
         xml:space="preserve"
         stroke-miterlimit="10.433"
         font-style="normal"
         font-variant="normal"
         font-weight="normal"
         font-stretch="normal"
         font-size-adjust="none"
         letter-spacing="normal"
         word-spacing="normal"><path
           style="fill:#000000;stroke-width:0"
           inkscape:connector-curvature="0"
           d="m 464.99,434.84 -0.06,0.15 -0.06,0.14 -0.05,0.14 -0.06,0.12 -0.06,0.12 -0.07,0.11 -0.06,0.1 -0.06,0.1 -0.07,0.09 -0.07,0.08 -0.07,0.08 -0.07,0.07 -0.07,0.06 -0.08,0.06 -0.07,0.05 -0.08,0.05 -0.09,0.04 -0.08,0.04 -0.09,0.04 -0.08,0.03 -0.1,0.02 -0.09,0.02 -0.1,0.02 -0.1,0.02 -0.1,0.01 -0.1,0.01 -0.11,0.01 -0.11,0.01 -0.12,0 -0.11,0.01 -0.12,0 -0.13,0 h -3.39 c -0.75,0 -2,0 -2,-1.49 0,-1.54 1.2,-1.54 2,-1.54 h 1.25 v -24.36 h -1.25 c -0.75,0 -2,0 -2,-1.5 0,-1.55 1.2,-1.55 2,-1.55 h 5.28 c 0.75,0 1.99,0 1.99,1.5 0,1.55 -1.19,1.55 -1.99,1.55 h -1.25 v 23.65 h 0.05 l 9.17,-24.9 c 0.64,-1.75 1.44,-1.8 2.73,-1.8 1.5,0 2.1,0.16 2.1,2.05 v 25.36 h 1.25 c 0.75,0 2,0 2,1.48 0,1.55 -1.2,1.55 -2,1.55 h -5.28 c -0.8,0 -2,0 -2,-1.55 0,-1.48 1.25,-1.48 2,-1.48 h 1.25 v -23.68 h -0.05 z"
           id="path5450" /><path
           style="fill:#000000;stroke-width:0"
           inkscape:connector-curvature="0"
           d="m 504.05,433.61 h 1.49 c 0.79,0 2.04,0 2.04,1.54 0,1.49 -1.29,1.49 -2.04,1.49 h -6.43 c -0.75,0 -2.04,0 -2.04,-1.49 0,-1.54 1.29,-1.54 2.04,-1.54 h 1.5 v -17 c 0,-5.33 -3.29,-7.93 -5.89,-7.93 -2.64,0 -5.87,2.6 -5.87,7.93 v 17 h 1.5 c 0.75,0 2.04,0 2.04,1.54 0,1.49 -1.29,1.49 -2.04,1.49 h -6.44 c -0.73,0 -2.03,0 -2.03,-1.49 0,-1.54 1.3,-1.54 2.03,-1.54 h 1.5 v -17.25 c 0,-6.13 4.34,-10.71 9.31,-10.71 4.99,0 9.33,4.58 9.33,10.71 z"
           id="path5452" /><path
           style="fill:#000000;stroke-width:0"
           inkscape:connector-curvature="0"
           d="m 516.71,433.61 h 2.78 c 0.7,0 2.04,0 2.04,1.48 0,1.55 -1.29,1.55 -2.04,1.55 h -8.06 c -0.8,0 -2,0 -2,-1.55 0,-1.48 1.25,-1.48 2,-1.48 h 1.84 v -24.36 h -1.84 c -0.8,0 -2,0 -2,-1.55 0,-1.5 1.25,-1.5 2,-1.5 h 18.72 c 1.65,0 2,0.45 2,2.05 v 4.43 c 0,0.99 0,2.03 -1.69,2.03 -1.75,0 -1.75,-1 -1.75,-2.03 v -3.43 h -12 z"
           id="path5454" /><path
           style="fill:#000000;stroke-width:0"
           inkscape:connector-curvature="0"
           d="m 542.86,433.61 h 2.79 c 0.7,0 2.04,0 2.04,1.48 0,1.55 -1.29,1.55 -2.04,1.55 h -8.07 c -0.8,0 -2,0 -2,-1.55 0,-1.48 1.25,-1.48 2,-1.48 h 1.85 v -24.36 h -1.85 c -0.8,0 -2,0 -2,-1.55 0,-1.5 1.25,-1.5 2,-1.5 h 18.72 c 1.66,0 2,0.45 2,2.05 v 4.43 c 0,0.99 0,2.03 -1.69,2.03 -1.75,0 -1.75,-1 -1.75,-2.03 v -3.43 h -12 z"
           id="path5456" /></g>    </g>
    <rect
       style="color:#000000;fill:#ffff00;fill-opacity:0.50196081;fill-rule:evenodd;stroke:#000000;stroke-width:1;stroke-linecap:butt;stroke-linejoin:miter;stroke-miterlimit:4;stroke-opacity:1;stroke-dasharray:none;stroke-dashoffset:0;marker:none;visibility:visible;display:inline;overflow:visible;enable-background:accumulate"
       id="rect5772"
       width="325"
       height="50"
       x="0"
       y="394.09448" />
    <g
       id="g5559"
       transform="matrix(0.5,0,0,0.5,-144.68346,247.70294)">
      <g
         word-spacing="normal"
         letter-spacing="normal"
         font-size-adjust="none"
         font-stretch="normal"
         font-weight="normal"
         font-variant="normal"
         font-style="normal"
         stroke-miterlimit="10.433"
         xml:space="preserve"
         transform="matrix(1.0629921,0,0,-1.0629921,-186.02362,789.27165)"
         id="g5561"
         style="font-style:normal;font-variant:normal;font-weight:normal;font-stretch:normal;letter-spacing:normal;word-spacing:normal;text-anchor:start;fill:none;stroke:#000000;stroke-linecap:butt;stroke-linejoin:miter;stroke-miterlimit:10.43299961;stroke-opacity:1;stroke-dasharray:none;stroke-dashoffset:0"><path
           id="path5563"
           d="m 479.63,435.15 0,0.08 0,0.08 0,0.08 0,0.08 -0.01,0.17 -0.01,0.08 0,0.09 -0.01,0.08 -0.02,0.09 -0.01,0.08 -0.02,0.09 -0.02,0.08 -0.03,0.08 -0.02,0.08 -0.04,0.08 -0.03,0.07 -0.05,0.07 -0.04,0.07 -0.05,0.07 -0.06,0.06 -0.06,0.06 -0.04,0.03 -0.03,0.03 -0.04,0.02 -0.04,0.03 -0.04,0.02 -0.04,0.02 -0.04,0.03 -0.05,0.01 -0.04,0.02 -0.05,0.02 -0.05,0.02 -0.06,0.01 -0.05,0.01 -0.06,0.01 -0.05,0.01 -0.06,0.01 -0.07,0.01 -0.06,0 -0.07,0 -0.07,0 c -0.9,0 -1.15,-0.5 -1.4,-0.84 -0.1,-0.2 -0.1,-0.3 -0.74,-1.55 -1.65,1.41 -3.93,2.39 -6.48,2.39 -6.42,0 -12,-6.67 -12,-15.73 0,-9.13 5.58,-15.8 12.05,-15.8 5.78,0 10.06,4.44 10.06,8.92 0,1.64 -1.19,1.64 -1.74,1.64 -0.45,0 -1.59,0 -1.7,-1.45 -0.34,-4.87 -4.37,-6.08 -6.42,-6.08 -4.53,0 -8.81,5.28 -8.81,12.77 0,7.42 4.33,12.7 8.76,12.7 2.99,0 5.72,-2.29 6.42,-6.33 0.16,-0.84 0.25,-1.64 1.75,-1.64 1.74,0 1.74,1.05 1.74,2.03 z"
           inkscape:connector-curvature="0"
           style="fill:#000000;stroke-width:0" /><path
           id="path5565"
           d="m 497.43,435.29 -0.03,0.09 -0.02,0.08 -0.02,0.09 -0.02,0.08 -0.03,0.07 -0.02,0.08 -0.02,0.07 -0.03,0.07 -0.05,0.13 -0.05,0.12 -0.05,0.12 -0.06,0.1 -0.06,0.1 -0.06,0.09 -0.06,0.08 -0.07,0.08 -0.07,0.06 -0.07,0.07 -0.08,0.05 -0.08,0.05 -0.08,0.04 -0.08,0.04 -0.09,0.04 -0.09,0.03 -0.1,0.02 -0.1,0.02 -0.1,0.02 -0.11,0.01 -0.11,0.01 -0.11,0.01 -0.12,0.01 -0.13,0 -0.12,0.01 -0.14,0 -0.13,0 -0.15,0 c -1.43,0 -2.23,0 -2.68,-1.89 L 486,409.25 c -0.68,0 -1.84,0 -2.14,-0.11 -0.54,-0.3 -0.84,-0.8 -0.84,-1.44 0,-1.5 1.3,-1.5 2.14,-1.5 h 5.08 c 0.9,0 2.09,0 2.09,1.5 0,1.55 -0.98,1.55 -2.78,1.55 l 1.14,5.17 0.75,3.04 3.28,15.74 h 0.07 l 3.23,-15.74 h -6.58 l -0.75,-3.04 h 8.08 l 1.14,-5.17 c -1.8,0 -2.8,0 -2.8,-1.55 0,-1.5 1.21,-1.5 2.1,-1.5 h 5.09 c 0.84,0 2.14,0 2.14,1.5 0,0.64 -0.25,1.14 -0.84,1.39 -0.31,0.16 -1.41,0.16 -2.16,0.16 z"
           inkscape:connector-curvature="0"
           style="fill:#000000;stroke-width:0" /><path
           id="path5567"
           d="m 522.58,419.86 0.14,-0.03 0.15,-0.04 0.17,-0.04 0.18,-0.04 0.19,-0.06 0.2,-0.05 0.21,-0.07 0.21,-0.07 0.22,-0.08 0.23,-0.09 0.23,-0.1 0.23,-0.1 0.24,-0.12 0.23,-0.13 0.23,-0.14 0.23,-0.15 0.22,-0.16 0.22,-0.17 0.22,-0.19 0.2,-0.2 0.2,-0.21 0.18,-0.23 0.17,-0.24 0.16,-0.26 0.15,-0.28 0.13,-0.29 0.06,-0.15 0.06,-0.15 0.05,-0.16 0.04,-0.17 0.04,-0.17 0.04,-0.17 0.03,-0.18 0.03,-0.18 0.02,-0.19 0.01,-0.19 0.01,-0.19 0,-0.21 c 0,-2.57 -2.14,-5.53 -6.08,-5.53 -1.4,0 -3.84,0.21 -5.82,1.55 -2.1,1.34 -2.3,3.44 -2.35,4.34 -0.04,0.85 -0.11,1.74 -1.7,1.74 -1.73,0 -1.73,-1.05 -1.73,-2.03 v -6.58 c 0,-0.8 0,-2.05 1.48,-2.05 1.11,0 1.41,0.71 1.84,2.3 2,-1.5 5.03,-2.3 8.24,-2.3 5.76,0 9.36,4.39 9.36,8.81 0,3.19 -1.8,5.29 -2.39,5.94 -2.05,1.99 -3.39,2.35 -7.28,3.24 l -4.03,0.89 c -2.1,0.61 -3.99,2.34 -3.99,4.68 0,2.55 2.44,4.94 5.99,4.94 5.87,0 6.62,-4.69 6.92,-6.23 0.14,-1.1 0.7,-1.39 1.68,-1.39 1.75,0 1.75,1.04 1.75,2.04 v 6.58 c 0,0.8 0,2.03 -1.5,2.03 -1.18,0 -1.43,-0.84 -1.84,-2.34 -2.03,1.75 -4.73,2.34 -6.97,2.34 -5.53,0 -9.26,-3.93 -9.26,-8.17 0,-3.33 2.28,-6.62 6.42,-7.81 0.2,-0.05 5.03,-1.2 5.73,-1.34 z"
           inkscape:connector-curvature="0"
           style="fill:#000000;stroke-width:0" /><path
           id="path5569"
           d="m 581.91,403.51 0,0.07 0,0.07 -0.01,0.06 0,0.06 -0.01,0.06 -0.01,0.05 -0.02,0.05 -0.01,0.05 -0.02,0.05 -0.02,0.05 -0.03,0.05 -0.02,0.04 -0.03,0.04 -0.03,0.05 -0.03,0.04 -0.04,0.04 -0.04,0.04 -0.04,0.04 -0.04,0.04 -0.05,0.04 -0.05,0.04 -0.05,0.04 -0.05,0.04 -0.06,0.05 -0.06,0.04 -0.07,0.04 -0.06,0.05 -0.07,0.05 -0.07,0.05 -0.08,0.05 -0.08,0.05 -0.08,0.06 c -6.19,4.19 -8.47,10.81 -8.47,16.39 0,4.98 1.89,11.91 8.56,16.44 0.8,0.54 1.14,0.75 1.14,1.5 0,0.39 -0.25,1.39 -1.53,1.39 -1.45,0 -11.61,-6.58 -11.61,-19.33 0,-5.94 2.28,-10.42 4.03,-12.91 2.65,-3.64 6.38,-6.42 7.58,-6.42 1.28,0 1.53,0.99 1.53,1.39 z"
           inkscape:connector-curvature="0"
           style="fill:#000000;stroke-width:0" /><path
           id="path5571"
           d="m 601.15,418.9 -0.21,0.04 -0.21,0.04 -0.42,0.07 -0.41,0.06 -0.41,0.07 -0.2,0.04 -0.21,0.03 -0.21,0.04 -0.22,0.04 -0.21,0.04 -0.22,0.04 -0.23,0.04 -0.23,0.05 c -1.44,0.2 -4.83,0.79 -4.83,2.75 0,1.29 1.59,2.82 6.33,2.82 4.14,0 4.83,-1.48 4.98,-2.78 0.05,-0.84 0.14,-1.7 1.69,-1.7 1.75,0 1.75,1.05 1.75,2.05 v 3.43 c 0,0.8 0,2.05 -1.5,2.05 -1.19,0 -1.39,-0.7 -1.48,-1.05 -2.21,1.05 -4.4,1.05 -5.35,1.05 -8.31,0 -9.45,-4.08 -9.45,-5.87 0,-4.6 5.22,-5.44 9.81,-6.13 2.44,-0.41 6.42,-1.05 6.42,-3.69 0,-1.84 -1.84,-3.5 -6.37,-3.5 -2.35,0 -5.14,0.55 -6.38,4.44 -0.25,0.91 -0.45,1.45 -1.75,1.45 -1.73,0 -1.73,-1.04 -1.73,-2.04 v -4.83 c 0,-0.8 0,-2.05 1.48,-2.05 0.46,0 1.25,0.05 1.85,1.89 2.43,-1.79 5.07,-1.89 6.48,-1.89 7.88,0 9.47,4.14 9.47,6.53 0,5.18 -6.44,6.22 -8.03,6.47 z"
           inkscape:connector-curvature="0"
           style="fill:#000000;stroke-width:0" /><path
           id="path5573"
           d="m 623.52,424.64 h 8.18 c 0.75,0 1.98,0 1.98,1.48 0,1.55 -1.19,1.55 -1.98,1.55 h -8.18 v 4.09 c 0,0.94 0,2.03 -1.7,2.03 -1.73,0 -1.73,-1.03 -1.73,-2.03 v -4.09 h -4.35 c -0.79,0 -2.03,0 -2.03,-1.55 0,-1.48 1.24,-1.48 1.99,-1.48 h 4.39 v -12.16 c 0,-4.78 3.39,-6.58 7.01,-6.58 3.69,0 7.74,2.14 7.74,6.58 0,0.89 0,1.94 -1.75,1.94 -1.64,0 -1.69,-1.05 -1.69,-1.89 -0.06,-3.1 -2.89,-3.6 -4.05,-3.6 -3.83,0 -3.83,2.6 -3.83,3.85 z"
           inkscape:connector-curvature="0"
           style="fill:#000000;stroke-width:0" /><path
           id="path5575"
           d="m 656.85,407.79 0.11,-0.14 0.11,-0.13 0.12,-0.12 0.13,-0.12 0.13,-0.11 0.14,-0.1 0.15,-0.09 0.15,-0.09 0.15,-0.08 0.16,-0.07 0.17,-0.07 0.16,-0.06 0.18,-0.06 0.17,-0.05 0.18,-0.04 0.18,-0.04 0.18,-0.04 0.19,-0.03 0.19,-0.03 0.18,-0.02 0.38,-0.04 0.38,-0.03 0.38,-0.02 0.38,-0.01 0.37,0 0.36,0 c 1.4,0 2.5,0 2.5,1.55 0,1.5 -1.25,1.5 -2,1.5 -2.1,0 -2.6,0.23 -2.99,0.39 v 10.76 c 0,3.53 -2.69,7.72 -9.86,7.72 -2.14,0 -7.23,0 -7.23,-3.64 0,-1.48 1.05,-2.28 2.25,-2.28 0.75,0 2.14,0.44 2.19,2.28 0,0.41 0.04,0.45 1.04,0.55 0.71,0.04 1.35,0.04 1.8,0.04 3.78,0 6.37,-1.53 6.37,-5.07 v -2.94 -4.19 c 0,-1.14 0,-2.19 -1.93,-3.08 -1.8,-0.86 -4.05,-0.86 -4.44,-0.86 -3.09,0 -5.14,1.71 -5.14,3.64 0,2.44 4.3,4.29 11.51,4.49 h 0 V 420 c -8.81,-0.14 -14.95,-2.64 -14.95,-7.43 0,-3.43 3.14,-6.67 8.22,-6.67 1.84,0 4.94,0.35 7.28,1.89 z"
           inkscape:connector-curvature="0"
           style="fill:#000000;stroke-width:0" /><path
           id="path5577"
           d="m 687.99,411.64 0,0.06 0,0.06 -0.01,0.06 0,0.06 -0.01,0.06 -0.01,0.05 -0.02,0.06 -0.01,0.05 -0.02,0.04 -0.01,0.05 -0.02,0.05 -0.02,0.04 -0.03,0.04 -0.02,0.04 -0.02,0.04 -0.03,0.04 -0.03,0.04 -0.02,0.03 -0.03,0.03 -0.03,0.04 -0.04,0.03 -0.03,0.02 -0.06,0.06 -0.07,0.05 -0.07,0.04 -0.08,0.04 -0.07,0.03 -0.08,0.03 -0.07,0.03 -0.08,0.02 -0.07,0.02 -0.08,0.02 -0.07,0.01 -0.07,0.02 -0.07,0.01 -0.06,0 -0.07,0.01 -0.05,0 -0.06,0 -0.05,0.01 -0.04,0 -0.04,0 -0.01,0 -0.02,0 c -0.79,0 -1.29,-0.11 -1.64,-1.1 -0.3,-0.65 -1.25,-3 -4.94,-3 -4.23,0 -7.81,3.5 -7.81,8.03 0,2.4 1.39,8.11 8.13,8.11 1.03,0 2.98,0 2.98,-0.43 0.05,-1.75 1,-2.44 2.19,-2.44 1.2,0 2.25,0.84 2.25,2.28 0,3.64 -5.19,3.64 -7.42,3.64 -8.58,0 -11.57,-6.78 -11.57,-11.16 0,-5.98 4.68,-11.06 10.96,-11.06 6.92,0 8.62,4.88 8.62,5.74 z"
           inkscape:connector-curvature="0"
           style="fill:#000000;stroke-width:0" /><path
           id="path5579"
           d="m 705.23,418.9 6.12,5.74 h 1.75 c 0.75,0 2.05,0 2.05,1.48 0,1.55 -1.3,1.55 -2.05,1.55 h -7.67 c -0.8,0 -2,0 -2,-1.55 0,-1.48 1.25,-1.48 2,-1.48 h 1.84 l -8.07,-7.58 v 17.53 c 0,1.55 -0.3,2.05 -1.99,2.05 h -3.23 c -0.75,0 -2,0 -2,-1.49 0,-1.54 1.18,-1.54 2,-1.54 h 2.43 v -24.36 h -2.43 c -0.75,0 -2,0 -2,-1.5 0,-1.55 1.18,-1.55 2,-1.55 h 7.67 c 0.73,0 1.98,0 1.98,1.5 0,1.55 -1.18,1.55 -1.98,1.55 h -2.45 v 4.03 l 3.98,3.68 5.94,-7.71 c -1.8,0 -2.8,0 -2.8,-1.55 0,-1.5 1.25,-1.5 2,-1.5 h 5.88 c 0.75,0 2.04,0 2.04,1.5 0,1.55 -1.29,1.55 -2.04,1.55 h -1.55 z"
           inkscape:connector-curvature="0"
           style="fill:#000000;stroke-width:0" /><path
           id="path5581"
           d="m 731.13,406.36 -0.07,-0.29 -0.09,-0.27 -0.09,-0.26 -0.1,-0.24 -0.1,-0.23 -0.11,-0.22 -0.12,-0.21 -0.13,-0.2 -0.12,-0.19 -0.14,-0.17 -0.13,-0.17 -0.14,-0.16 -0.14,-0.14 -0.14,-0.14 -0.14,-0.13 -0.14,-0.12 -0.14,-0.11 -0.14,-0.1 -0.14,-0.09 -0.13,-0.09 -0.14,-0.08 -0.13,-0.07 -0.12,-0.07 -0.12,-0.06 -0.12,-0.05 -0.11,-0.05 -0.1,-0.04 -0.1,-0.04 -0.08,-0.03 -0.08,-0.03 -0.07,-0.03 -0.06,-0.02 c -0.5,-0.14 -1.4,-0.39 -1.4,-1.39 0,-0.75 0.75,-1.59 1.6,-1.59 1.59,0 6.67,2.68 6.67,8.17 0,3.03 -1.94,4.98 -4.12,4.98 -2,0 -3.15,-1.5 -3.15,-3.09 0,-1.89 1.44,-3.14 3.08,-3.14 0.32,0 0.66,0.05 1,0.16 z"
           inkscape:connector-curvature="0"
           style="fill:#000000;stroke-width:0" /><path
           id="path5583"
           d="m 784.79,425.64 0,0.14 0,0.13 -0.01,0.13 0,0.12 -0.01,0.12 -0.02,0.11 -0.01,0.11 -0.02,0.1 -0.02,0.1 -0.03,0.09 -0.03,0.08 -0.03,0.08 -0.04,0.08 -0.04,0.07 -0.05,0.07 -0.05,0.06 -0.05,0.05 -0.06,0.06 -0.07,0.04 -0.07,0.05 -0.08,0.04 -0.08,0.04 -0.09,0.03 -0.1,0.03 -0.1,0.02 -0.11,0.02 -0.12,0.02 -0.12,0.01 -0.13,0.01 -0.14,0.01 -0.15,0.01 -0.07,0 -0.08,0 h -7.08 c -0.75,0 -2.05,0 -2.05,-1.49 0,-1.54 1.3,-1.54 2.05,-1.54 h 5.62 v -15.39 h -6.03 c -0.79,0 -2.03,0 -2.03,-1.55 0,-1.5 1.3,-1.5 2.03,-1.5 h 14.71 c 0.75,0 2.04,0 2.04,1.5 0,1.55 -1.29,1.55 -2.04,1.55 h -5.24 z"
           inkscape:connector-curvature="0"
           style="fill:#000000;stroke-width:0" /><path
           id="path5585"
           d="m 784.79,434.2 0,0.13 -0.01,0.13 -0.02,0.12 -0.02,0.13 -0.02,0.12 -0.04,0.11 -0.04,0.12 -0.04,0.11 -0.05,0.11 -0.05,0.11 -0.06,0.11 -0.07,0.1 -0.07,0.09 -0.07,0.1 -0.08,0.09 -0.08,0.08 -0.08,0.08 -0.09,0.08 -0.1,0.08 -0.09,0.06 -0.1,0.07 -0.11,0.06 -0.11,0.05 -0.11,0.05 -0.11,0.05 -0.12,0.03 -0.11,0.04 -0.13,0.02 -0.12,0.03 -0.12,0.01 -0.13,0.01 -0.13,0 c -1.39,0 -2.5,-1.09 -2.5,-2.48 0,-1.39 1.11,-2.49 2.5,-2.49 1.39,0 2.48,1.1 2.48,2.49 z"
           inkscape:connector-curvature="0"
           style="fill:#000000;stroke-width:0" /><path
           id="path5587"
           d="m 809.6,406.36 -0.07,-0.29 -0.08,-0.27 -0.1,-0.26 -0.09,-0.24 -0.11,-0.23 -0.11,-0.22 -0.12,-0.21 -0.12,-0.2 -0.13,-0.19 -0.13,-0.17 -0.14,-0.17 -0.13,-0.16 -0.14,-0.14 -0.14,-0.14 -0.15,-0.13 -0.14,-0.12 -0.14,-0.11 -0.14,-0.1 -0.14,-0.09 -0.13,-0.09 -0.14,-0.08 -0.12,-0.07 -0.13,-0.07 -0.12,-0.06 -0.12,-0.05 -0.11,-0.05 -0.1,-0.04 -0.09,-0.04 -0.09,-0.03 -0.08,-0.03 -0.07,-0.03 -0.06,-0.02 c -0.5,-0.14 -1.39,-0.39 -1.39,-1.39 0,-0.75 0.75,-1.59 1.59,-1.59 1.6,0 6.67,2.68 6.67,8.17 0,3.03 -1.94,4.98 -4.12,4.98 -2,0 -3.14,-1.5 -3.14,-3.09 0,-1.89 1.44,-3.14 3.07,-3.14 0.32,0 0.66,0.05 1,0.16 z"
           inkscape:connector-curvature="0"
           style="fill:#000000;stroke-width:0" /><path
           id="path5589"
           d="m 863.15,425.64 -0.01,0.14 0,0.13 0,0.13 -0.01,0.12 -0.01,0.12 -0.01,0.11 -0.02,0.11 -0.02,0.1 -0.02,0.1 -0.03,0.09 -0.02,0.08 -0.04,0.08 -0.04,0.08 -0.04,0.07 -0.04,0.07 -0.05,0.06 -0.06,0.05 -0.06,0.06 -0.07,0.04 -0.07,0.05 -0.08,0.04 -0.08,0.04 -0.09,0.03 -0.1,0.03 -0.1,0.02 -0.11,0.02 -0.12,0.02 -0.12,0.01 -0.13,0.01 -0.14,0.01 -0.15,0.01 -0.07,0 -0.08,0 h -7.08 c -0.75,0 -2.05,0 -2.05,-1.49 0,-1.54 1.3,-1.54 2.05,-1.54 h 5.63 v -15.39 h -6.03 c -0.8,0 -2.03,0 -2.03,-1.55 0,-1.5 1.29,-1.5 2.03,-1.5 h 14.7 c 0.75,0 2.05,0 2.05,1.5 0,1.55 -1.3,1.55 -2.05,1.55 h -5.23 z"
           inkscape:connector-curvature="0"
           style="fill:#000000;stroke-width:0" /><path
           id="path5591"
           d="m 863.15,434.2 -0.01,0.13 -0.01,0.13 -0.01,0.12 -0.02,0.13 -0.03,0.12 -0.04,0.11 -0.03,0.12 -0.05,0.11 -0.05,0.11 -0.05,0.11 -0.06,0.11 -0.06,0.1 -0.07,0.09 -0.08,0.1 -0.07,0.09 -0.09,0.08 -0.08,0.08 -0.09,0.08 -0.1,0.08 -0.09,0.06 -0.1,0.07 -0.11,0.06 -0.1,0.05 -0.11,0.05 -0.12,0.05 -0.11,0.03 -0.12,0.04 -0.12,0.02 -0.13,0.03 -0.12,0.01 -0.13,0.01 -0.13,0 c -1.39,0 -2.5,-1.09 -2.5,-2.48 0,-1.39 1.11,-2.49 2.5,-2.49 1.39,0 2.49,1.1 2.49,2.49 z"
           inkscape:connector-curvature="0"
           style="fill:#000000;stroke-width:0" /><path
           id="path5593"
           d="m 894.88,419.7 0.06,0 0.07,0 0.07,0 0.07,0 0.09,0.01 0.08,0 0.09,0.01 0.09,0.01 0.1,0.01 0.09,0.01 0.1,0.02 0.1,0.02 0.1,0.03 0.1,0.03 0.09,0.03 0.1,0.04 0.09,0.04 0.1,0.05 0.09,0.06 0.08,0.06 0.08,0.06 0.08,0.08 0.04,0.04 0.03,0.04 0.04,0.04 0.03,0.05 0.03,0.04 0.03,0.05 0.03,0.05 0.03,0.06 0.02,0.05 0.03,0.06 0.02,0.06 0.02,0.06 0.01,0.07 0.02,0.06 0.01,0.07 0.01,0.07 0.01,0.07 0.01,0.08 0,0.08 0,0.08 c 0,1.73 -1.73,1.73 -2.34,1.73 h -15.85 c -0.59,0 -2.32,0 -2.32,-1.73 0,-1.75 1.73,-1.75 2.32,-1.75 z"
           inkscape:connector-curvature="0"
           style="fill:#000000;stroke-width:0" /><path
           id="path5595"
           d="m 922.28,419.79 0.09,0.06 0.09,0.06 0.09,0.07 0.1,0.07 0.09,0.07 0.05,0.04 0.04,0.04 0.04,0.04 0.05,0.05 0.04,0.04 0.04,0.05 0.04,0.05 0.04,0.05 0.04,0.05 0.03,0.06 0.04,0.06 0.03,0.06 0.03,0.06 0.02,0.06 0.03,0.07 0.02,0.07 0.02,0.07 0.01,0.08 0.01,0.08 0.01,0.08 0.01,0.08 0,0.09 c 0,0.64 -0.39,1.19 -0.89,1.55 l -16.59,10.4 c -0.71,0.46 -0.85,0.5 -1.3,0.5 -0.8,0 -1.74,-0.59 -1.74,-1.75 0,-0.94 0.64,-1.34 1.19,-1.69 l 14.3,-9.01 -14.3,-9.02 c -0.55,-0.36 -1.19,-0.75 -1.19,-1.7 0,-1.14 0.94,-1.73 1.74,-1.73 0.45,0 0.59,0.04 1.3,0.48 z"
           inkscape:connector-curvature="0"
           style="fill:#000000;stroke-width:0" /><path
           id="path5597"
           d="m 934.49,425.32 0,0.15 0,0.14 0,0.14 -0.01,0.13 0,0.13 -0.01,0.12 0,0.12 -0.01,0.11 -0.02,0.11 -0.01,0.1 -0.02,0.1 -0.03,0.1 -0.03,0.09 -0.03,0.08 -0.04,0.08 -0.04,0.07 -0.05,0.07 -0.06,0.07 -0.06,0.06 -0.07,0.06 -0.07,0.05 -0.09,0.05 -0.04,0.02 -0.05,0.02 -0.05,0.02 -0.05,0.02 -0.05,0.01 -0.06,0.02 -0.06,0.01 -0.06,0.02 -0.06,0.01 -0.06,0.01 -0.07,0.01 -0.07,0.01 -0.07,0.01 -0.08,0.01 -0.08,0 -0.08,0.01 -0.08,0 -0.09,0.01 -0.08,0 -0.1,0 h -3.64 c -0.79,0 -2.04,0 -2.04,-1.55 0,-1.48 1.29,-1.48 2,-1.48 h 2.23 v -15.39 h -2.19 c -0.79,0 -2.04,0 -2.04,-1.55 0,-1.5 1.29,-1.5 2,-1.5 h 7.92 c 0.69,0 1.98,0 1.98,1.5 0,1.55 -1.23,1.55 -2.03,1.55 h -2.2 v 8.81 c 0,4.98 3.69,6.87 6.23,6.87 2.64,0 3.35,-1.39 3.35,-4.39 v -11.29 h -1.96 c -0.79,0 -2.04,0 -2.04,-1.55 0,-1.5 1.36,-1.5 2.04,-1.5 h 7.63 c 0.7,0 2,0 2,1.5 0,1.55 -1.25,1.55 -2.05,1.55 h -2.19 v 11.54 c 0,5.03 -2.54,7.17 -6.48,7.17 -3.34,0 -5.58,-1.68 -6.53,-2.64 z"
           inkscape:connector-curvature="0"
           style="fill:#ff00ff;stroke-width:0" /><path
           id="path5599"
           d="m 973.5,415.71 0.2,0.01 0.19,0 0.09,0 0.1,0.01 0.09,0 0.09,0.01 0.08,0.02 0.09,0.01 0.08,0.02 0.08,0.02 0.08,0.03 0.08,0.03 0.07,0.03 0.07,0.05 0.07,0.04 0.06,0.05 0.06,0.06 0.06,0.07 0.05,0.07 0.02,0.03 0.03,0.04 0.02,0.05 0.02,0.04 0.03,0.05 0.02,0.04 0.01,0.05 0.02,0.05 0.02,0.06 0.01,0.05 0.02,0.06 0.01,0.06 0.01,0.07 0.02,0.06 0.01,0.07 0,0.07 0.01,0.07 0.01,0.07 0,0.08 0.01,0.08 0,0.08 0,0.09 c 0,5.67 -3.19,10.56 -9.66,10.56 -5.93,0 -10.72,-4.98 -10.72,-11.11 0,-6.08 5.04,-11.11 11.47,-11.11 6.58,0 8.91,4.49 8.91,5.74 0,1.39 -1.44,1.39 -1.74,1.39 -0.89,0 -1.29,-0.16 -1.64,-1.1 -1.09,-2.54 -3.79,-3 -5.18,-3 -3.74,0 -7.47,2.5 -8.27,6.78 l 0.05,2.99 c 0.7,3.64 3.64,6.37 7.12,6.37 2.6,0 5.67,-1.23 6.13,-6.37 h -13.25 l -0.05,-2.99 z"
           inkscape:connector-curvature="0"
           style="fill:#ff00ff;stroke-width:0" /><path
           id="path5601"
           d="m 992.83,417.26 5.69,7.38 h 1.98 c 0.7,0 2,0 2,1.48 0,1.55 -1.3,1.55 -2,1.55 h -5.82 c -0.75,0 -1.99,0 -1.99,-1.49 0,-1.54 1.09,-1.54 2.44,-1.54 l -3.69,-5.03 -3.78,5.03 c 1.28,0 2.39,0 2.39,1.54 0,1.49 -1.25,1.49 -2,1.49 h -5.83 c -0.75,0 -2.04,0 -2.04,-1.55 0,-1.48 1.34,-1.48 2.04,-1.48 h 1.99 l 5.89,-7.38 -6.19,-8.01 h -1.98 c -0.75,0 -2.05,0 -2.05,-1.55 0,-1.5 1.34,-1.5 2.05,-1.5 h 5.82 c 0.75,0 1.99,0 1.99,1.5 0,1.55 -1.05,1.55 -2.58,1.55 l 4.28,6.12 4.44,-6.12 c -1.41,0 -2.5,0 -2.5,-1.55 0,-1.5 1.25,-1.5 2,-1.5 h 5.82 c 0.7,0 2,0 2,1.5 0,1.55 -1.2,1.55 -2,1.55 h -1.99 z"
           inkscape:connector-curvature="0"
           style="fill:#ff00ff;stroke-width:0" /><path
           id="path5603"
           d="m 1015.8,424.64 h 8.1 c 0.8,0 2,0 2,1.48 0,1.55 -1.2,1.55 -2,1.55 h -8.1 v 4.09 c 0,0.94 0,2.03 -1.8,2.03 -1.7,0 -1.7,-1.03 -1.7,-2.03 v -4.09 h -4.3 c -0.8,0 -2.1,0 -2.1,-1.55 0,-1.48 1.3,-1.48 2,-1.48 h 4.4 v -12.16 c 0,-4.78 3.4,-6.58 7,-6.58 3.7,0 7.8,2.14 7.8,6.58 0,0.89 0,1.94 -1.8,1.94 -1.6,0 -1.7,-1.05 -1.7,-1.89 0,-3.1 -2.9,-3.6 -4,-3.6 -3.8,0 -3.8,2.6 -3.8,3.85 z"
           inkscape:connector-curvature="0"
           style="fill:#ff00ff;stroke-width:0" /><path
           id="path5605"
           d="m 1048.4,421.45 0,0.55 0,0.54 -0.1,0.54 0,0.52 -0.1,0.52 0,0.5 -0.1,0.5 -0.1,0.49 -0.1,0.48 -0.1,0.47 -0.1,0.46 -0.1,0.46 -0.2,0.44 -0.1,0.43 -0.1,0.42 -0.2,0.42 -0.1,0.4 -0.2,0.39 -0.1,0.38 -0.2,0.37 -0.2,0.37 -0.1,0.35 -0.2,0.34 -0.2,0.33 -0.2,0.32 -0.1,0.3 -0.2,0.3 -0.2,0.29 -0.1,0.27 -0.2,0.26 -0.2,0.25 -0.2,0.25 c -2.6,3.62 -6.3,6.42 -7.5,6.42 -1.3,0 -1.6,-1 -1.6,-1.39 0,-0.75 0.6,-1.11 0.8,-1.25 8.2,-5.44 8.9,-13.46 8.9,-16.69 0,-4.99 -1.8,-11.91 -8.5,-16.45 -0.8,-0.49 -1.2,-0.74 -1.2,-1.49 0,-0.4 0.3,-1.39 1.6,-1.39 1.4,0 11.6,6.56 11.6,19.33 z"
           inkscape:connector-curvature="0"
           style="fill:#000000;stroke-width:0" /></g>    </g>
    <rect
       style="color:#000000;fill:#ff00ff;fill-opacity:0.11036784;fill-rule:evenodd;stroke:#ff0000;stroke-width:2;stroke-linecap:butt;stroke-linejoin:miter;stroke-miterlimit:4;stroke-opacity:1;stroke-dasharray:none;stroke-dashoffset:0;marker:none;visibility:visible;display:inline;overflow:visible;enable-background:accumulate"
       id="rect5730"
       width="50"
       height="50"
       x="200.25433"
       y="456.10574" />
    <text
       xml:space="preserve"
       style="font-size:20px;font-style:normal;font-variant:normal;font-weight:normal;font-stretch:normal;text-align:end;line-height:125%;letter-spacing:0px;word-spacing:0px;text-anchor:end;fill:#000000;fill-opacity:1;stroke:none;font-family:URW Palladio L;-inkscape-font-specification:Sans"
       x="230.75433"
       y="487.88574"
       id="text5734"
       sodipodi:linespacing="125%"><tspan
         sodipodi:role="line"
         id="tspan5736"
         x="230.75433"
         y="487.88574">B</tspan></text>
    <path
       sodipodi:nodetypes="cc"
       inkscape:connector-curvature="0"
       id="path5742"
       d="m 250.25433,481.10576 100,0"
       style="fill:none;stroke:#000000;stroke-width:3.54330707;stroke-linecap:butt;stroke-linejoin:miter;stroke-miterlimit:4;stroke-opacity:1;stroke-dasharray:none;marker-end:url(#Arrow1Mend)" />
    <path
       sodipodi:nodetypes="cc"
       inkscape:connector-curvature="0"
       id="path5744"
       d="m 100.17354,481.10576 100,0"
       style="fill:none;stroke:#000000;stroke-width:3.54330707;stroke-linecap:butt;stroke-linejoin:miter;stroke-miterlimit:4;stroke-opacity:1;stroke-dasharray:none;marker-end:url(#Arrow1Mend)" />
    <text
       xml:space="preserve"
       style="font-size:20px;font-style:normal;font-variant:normal;font-weight:bold;font-stretch:normal;text-align:center;line-height:125%;letter-spacing:0px;word-spacing:0px;text-anchor:middle;fill:#000000;fill-opacity:1;stroke:none;font-family:URW Palladio L;-inkscape-font-specification:Sans Bold"
       x="69.939011"
       y="488.13574"
       id="text5746"
       sodipodi:linespacing="125%"><tspan
         sodipodi:role="line"
         id="tspan5748"
         x="69.939011"
         y="488.13574">stack</tspan></text>
    <text
       sodipodi:linespacing="125%"
       id="text5750"
       y="488.13574"
       x="69.939011"
       style="font-size:20px;font-style:normal;font-variant:normal;font-weight:bold;font-stretch:normal;text-align:center;line-height:125%;letter-spacing:0px;word-spacing:0px;text-anchor:middle;fill:#000000;fill-opacity:1;stroke:none;font-family:URW Palladio L;-inkscape-font-specification:Sans Bold"
       xml:space="preserve"><tspan
         y="488.13574"
         x="69.939011"
         id="tspan5752"
         sodipodi:role="line">stack</tspan></text>
    <text
       xml:space="preserve"
       style="font-size:20px;font-style:normal;font-variant:normal;font-weight:bold;font-stretch:normal;text-align:start;line-height:125%;letter-spacing:0px;word-spacing:0px;text-anchor:start;fill:#ff0000;fill-opacity:1;stroke:none;font-family:URW Palladio L;-inkscape-font-specification:Sans Bold"
       x="364.89935"
       y="484.39648"
       id="text5768"
       sodipodi:linespacing="125%"><tspan
         sodipodi:role="line"
         id="tspan5770"
         x="364.89935"
         y="484.39648">garbage</tspan></text>
    <rect
       style="color:#000000;fill:#ffff00;fill-opacity:0.50196078;fill-rule:evenodd;stroke:#000000;stroke-width:1.13690889;stroke-linecap:butt;stroke-linejoin:miter;stroke-miterlimit:4;stroke-opacity:1;stroke-dasharray:none;stroke-dashoffset:0;marker:none;visibility:visible;display:inline;overflow:visible;enable-background:accumulate"
       id="rect5778"
       width="324.8631"
       height="64.655327"
       x="428.06412"
       y="261.53601" />
    <text
       xml:space="preserve"
       style="font-size:20px;font-style:normal;font-variant:normal;font-weight:normal;font-stretch:normal;text-align:start;line-height:125%;letter-spacing:0px;word-spacing:0px;text-anchor:start;fill:#000000;fill-opacity:1;stroke:none;font-family:URW Palladio L;-inkscape-font-specification:Sans"
       x="446.91034"
       y="285.81366"
       id="text5780"
       sodipodi:linespacing="125%"><tspan
         sodipodi:role="line"
         id="tspan5782"
         x="446.91034"
         y="285.81366">Meanwhile, memory of object A</tspan><tspan
         sodipodi:role="line"
         x="446.91034"
         y="310.81366"
         id="tspan5784">gets recycled for A' of same type</tspan></text>
  </g>
</svg>
